<svg width="1440" height="146" viewBox="0 0 1440 146" fill="none" xmlns="http://www.w3.org/2000/svg">
<mask id="mask0_27_1477" style="mask-type:alpha" maskUnits="userSpaceOnUse" x="-508" y="0" width="5154" height="146">
<rect x="-501" y="7" width="5140" height="131.793" fill="#F9F301" stroke="#E9000B" stroke-width="14"/>
</mask>
<g mask="url(#mask0_27_1477)">
<rect x="-501" y="7" width="5140" height="131.793" fill="#F9F301" stroke="#E9000B" stroke-width="14"/>
<path d="M430.659 66.756C425.745 66.756 422.082 65.46 419.67 62.868C417.276 60.258 416.079 56.541 416.079 51.717V45.588C416.079 40.854 417.285 37.2 419.697 34.626C422.109 32.034 425.745 30.738 430.605 30.738C431.901 30.738 433.098 30.837 434.196 31.035C435.294 31.233 436.293 31.503 437.193 31.845C438.093 32.169 438.885 32.538 439.569 32.952L440.19 40.188C439.128 39.63 437.958 39.144 436.68 38.73C435.42 38.298 433.953 38.082 432.279 38.082C429.705 38.082 427.797 38.775 426.555 40.161C425.331 41.529 424.719 43.455 424.719 45.939V51.393C424.719 53.859 425.34 55.785 426.582 57.171C427.842 58.557 429.849 59.25 432.603 59.25C434.223 59.25 435.672 59.034 436.95 58.602C438.228 58.17 439.398 57.648 440.46 57.036L439.839 64.434C439.155 64.848 438.354 65.235 437.436 65.595C436.518 65.937 435.492 66.216 434.358 66.432C433.242 66.648 432.009 66.756 430.659 66.756ZM461.82 66V50.394C461.82 49.422 461.694 48.585 461.442 47.883C461.19 47.163 460.767 46.614 460.173 46.236C459.597 45.858 458.787 45.669 457.743 45.669C456.897 45.669 456.15 45.822 455.502 46.128C454.854 46.416 454.314 46.821 453.882 47.343C453.468 47.847 453.144 48.423 452.91 49.071L451.236 45.21H453.153C453.423 44.004 453.882 42.924 454.53 41.97C455.178 41.016 456.069 40.26 457.203 39.702C458.355 39.126 459.795 38.838 461.523 38.838C463.503 38.838 465.123 39.225 466.383 39.999C467.643 40.755 468.57 41.889 469.164 43.401C469.776 44.913 470.082 46.803 470.082 49.071V66H461.82ZM444.756 66V30.333H452.964V38.271L452.829 47.019L453.018 47.667V66H444.756ZM490.543 66L490.786 59.358L490.597 58.953V50.664L490.543 49.584C490.543 48.108 490.111 47.019 489.247 46.317C488.383 45.615 486.934 45.264 484.9 45.264C483.118 45.264 481.426 45.489 479.824 45.939C478.222 46.389 476.71 46.902 475.288 47.478L475.99 41.079C476.836 40.683 477.781 40.314 478.825 39.972C479.887 39.612 481.057 39.324 482.335 39.108C483.613 38.892 484.981 38.784 486.439 38.784C488.761 38.784 490.705 39.054 492.271 39.594C493.837 40.134 495.088 40.899 496.024 41.889C496.96 42.879 497.635 44.067 498.049 45.453C498.463 46.821 498.67 48.333 498.67 49.989V66H490.543ZM482.092 66.621C479.446 66.621 477.439 65.955 476.071 64.623C474.703 63.291 474.019 61.392 474.019 58.926V58.197C474.019 55.587 474.82 53.661 476.422 52.419C478.042 51.159 480.607 50.304 484.117 49.854L491.245 48.909L491.731 53.877L485.413 54.795C484.135 54.957 483.235 55.254 482.713 55.686C482.191 56.118 481.93 56.757 481.93 57.603V57.792C481.93 58.602 482.191 59.25 482.713 59.736C483.235 60.204 484.072 60.438 485.224 60.438C486.232 60.438 487.096 60.285 487.816 59.979C488.554 59.673 489.157 59.277 489.625 58.791C490.093 58.287 490.444 57.729 490.678 57.117L491.839 60.465H490.489C490.201 61.617 489.751 62.661 489.139 63.597C488.545 64.533 487.681 65.271 486.547 65.811C485.413 66.351 483.928 66.621 482.092 66.621ZM511.918 51.096L509.65 46.074H511.594C512.026 43.878 512.863 42.159 514.105 40.917C515.365 39.657 517.138 39.027 519.424 39.027C519.82 39.027 520.18 39.054 520.504 39.108C520.846 39.162 521.17 39.225 521.476 39.297L521.881 47.64C521.503 47.532 521.062 47.46 520.558 47.424C520.054 47.37 519.541 47.343 519.019 47.343C517.255 47.343 515.77 47.676 514.564 48.342C513.358 48.99 512.476 49.908 511.918 51.096ZM503.818 66V39.459H511.594L511.243 47.937L512.08 48.045V66H503.818ZM525.256 66V30.333H533.518V66H525.256ZM552.221 66.675C547.397 66.675 543.833 65.604 541.529 63.462C539.225 61.302 538.073 58.161 538.073 54.039V51.285C538.073 47.217 539.153 44.103 541.313 41.943C543.473 39.765 546.614 38.676 550.736 38.676C553.508 38.676 555.812 39.153 557.648 40.107C559.502 41.043 560.888 42.384 561.806 44.13C562.742 45.876 563.21 47.973 563.21 50.421V51.312C563.21 51.996 563.174 52.698 563.102 53.418C563.048 54.12 562.967 54.777 562.859 55.389H555.407C555.479 54.345 555.524 53.364 555.542 52.446C555.56 51.51 555.569 50.664 555.569 49.908C555.569 48.81 555.398 47.892 555.056 47.154C554.714 46.398 554.183 45.822 553.463 45.426C552.761 45.03 551.852 44.832 550.736 44.832C549.08 44.832 547.865 45.282 547.091 46.182C546.335 47.064 545.957 48.324 545.957 49.962V52.392L546.011 53.283V55.173C546.011 55.857 546.119 56.505 546.335 57.117C546.569 57.729 546.965 58.269 547.523 58.737C548.099 59.187 548.882 59.547 549.872 59.817C550.88 60.069 552.158 60.195 553.706 60.195C555.344 60.195 556.919 60.042 558.431 59.736C559.943 59.412 561.392 58.98 562.778 58.44L562.103 64.65C560.879 65.28 559.43 65.775 557.756 66.135C556.082 66.495 554.237 66.675 552.221 66.675ZM542.447 55.389V50.286H561.185V55.389H542.447ZM577.288 66.648C575.182 66.648 573.283 66.459 571.591 66.081C569.899 65.721 568.45 65.298 567.244 64.812L566.542 57.873C567.928 58.449 569.458 58.971 571.132 59.439C572.824 59.889 574.651 60.114 576.613 60.114C578.179 60.114 579.286 59.952 579.934 59.628C580.6 59.286 580.933 58.764 580.933 58.062V57.954C580.933 57.468 580.762 57.072 580.42 56.766C580.096 56.442 579.52 56.154 578.692 55.902C577.882 55.65 576.739 55.353 575.263 55.011C573.049 54.489 571.294 53.877 569.998 53.175C568.702 52.455 567.775 51.582 567.217 50.556C566.677 49.512 566.407 48.279 566.407 46.857V46.641C566.407 44.013 567.343 42.051 569.215 40.755C571.087 39.441 573.841 38.784 577.477 38.784C579.529 38.784 581.374 38.973 583.012 39.351C584.65 39.729 586.027 40.179 587.143 40.701L587.845 47.154C586.549 46.578 585.1 46.101 583.498 45.723C581.914 45.345 580.249 45.156 578.503 45.156C577.441 45.156 576.604 45.228 575.992 45.372C575.398 45.516 574.975 45.723 574.723 45.993C574.489 46.263 574.372 46.596 574.372 46.992V47.073C574.372 47.505 574.516 47.874 574.804 48.18C575.092 48.486 575.614 48.774 576.37 49.044C577.144 49.314 578.251 49.62 579.691 49.962C581.923 50.448 583.723 51.006 585.091 51.636C586.459 52.248 587.458 53.049 588.088 54.039C588.718 55.011 589.033 56.307 589.033 57.927V58.17C589.033 61.032 588.07 63.165 586.144 64.569C584.218 65.955 581.266 66.648 577.288 66.648ZM592.992 66L594.072 31.494H605.844L611.541 52.068H611.892L617.589 31.494H629.361L630.441 66H622.26L622.017 54.687L621.774 40.917H621.369L615.456 61.95H607.95L602.037 40.917H601.605L601.389 54.714L601.173 66H592.992ZM651.014 66L651.257 59.358L651.068 58.953V50.664L651.014 49.584C651.014 48.108 650.582 47.019 649.718 46.317C648.854 45.615 647.405 45.264 645.371 45.264C643.589 45.264 641.897 45.489 640.295 45.939C638.693 46.389 637.181 46.902 635.759 47.478L636.461 41.079C637.307 40.683 638.252 40.314 639.296 39.972C640.358 39.612 641.528 39.324 642.806 39.108C644.084 38.892 645.452 38.784 646.91 38.784C649.232 38.784 651.176 39.054 652.742 39.594C654.308 40.134 655.559 40.899 656.495 41.889C657.431 42.879 658.106 44.067 658.52 45.453C658.934 46.821 659.141 48.333 659.141 49.989V66H651.014ZM642.563 66.621C639.917 66.621 637.91 65.955 636.542 64.623C635.174 63.291 634.49 61.392 634.49 58.926V58.197C634.49 55.587 635.291 53.661 636.893 52.419C638.513 51.159 641.078 50.304 644.588 49.854L651.716 48.909L652.202 53.877L645.884 54.795C644.606 54.957 643.706 55.254 643.184 55.686C642.662 56.118 642.401 56.757 642.401 57.603V57.792C642.401 58.602 642.662 59.25 643.184 59.736C643.706 60.204 644.543 60.438 645.695 60.438C646.703 60.438 647.567 60.285 648.287 59.979C649.025 59.673 649.628 59.277 650.096 58.791C650.564 58.287 650.915 57.729 651.149 57.117L652.31 60.465H650.96C650.672 61.617 650.222 62.661 649.61 63.597C649.016 64.533 648.152 65.271 647.018 65.811C645.884 66.351 644.399 66.621 642.563 66.621ZM681.353 66V50.394C681.353 49.422 681.227 48.585 680.975 47.883C680.723 47.163 680.3 46.614 679.706 46.236C679.112 45.858 678.302 45.669 677.276 45.669C676.43 45.669 675.683 45.822 675.035 46.128C674.387 46.416 673.838 46.821 673.388 47.343C672.956 47.847 672.632 48.423 672.416 49.071L671.147 45.21H672.551C672.839 44.004 673.307 42.924 673.955 41.97C674.621 41.016 675.53 40.26 676.682 39.702C677.834 39.126 679.292 38.838 681.056 38.838C683.036 38.838 684.656 39.225 685.916 39.999C687.176 40.755 688.103 41.889 688.697 43.401C689.309 44.913 689.615 46.803 689.615 49.071V66H681.353ZM664.289 66V39.459H672.497L672.227 46.101L672.551 46.884V66H664.289ZM704.325 66.648C702.219 66.648 700.32 66.459 698.628 66.081C696.936 65.721 695.487 65.298 694.281 64.812L693.579 57.873C694.965 58.449 696.495 58.971 698.169 59.439C699.861 59.889 701.688 60.114 703.65 60.114C705.216 60.114 706.323 59.952 706.971 59.628C707.637 59.286 707.97 58.764 707.97 58.062V57.954C707.97 57.468 707.799 57.072 707.457 56.766C707.133 56.442 706.557 56.154 705.729 55.902C704.919 55.65 703.776 55.353 702.3 55.011C700.086 54.489 698.331 53.877 697.035 53.175C695.739 52.455 694.812 51.582 694.254 50.556C693.714 49.512 693.444 48.279 693.444 46.857V46.641C693.444 44.013 694.38 42.051 696.252 40.755C698.124 39.441 700.878 38.784 704.514 38.784C706.566 38.784 708.411 38.973 710.049 39.351C711.687 39.729 713.064 40.179 714.18 40.701L714.882 47.154C713.586 46.578 712.137 46.101 710.535 45.723C708.951 45.345 707.286 45.156 705.54 45.156C704.478 45.156 703.641 45.228 703.029 45.372C702.435 45.516 702.012 45.723 701.76 45.993C701.526 46.263 701.409 46.596 701.409 46.992V47.073C701.409 47.505 701.553 47.874 701.841 48.18C702.129 48.486 702.651 48.774 703.407 49.044C704.181 49.314 705.288 49.62 706.728 49.962C708.96 50.448 710.76 51.006 712.128 51.636C713.496 52.248 714.495 53.049 715.125 54.039C715.755 55.011 716.07 56.307 716.07 57.927V58.17C716.07 61.032 715.107 63.165 713.181 64.569C711.255 65.955 708.303 66.648 704.325 66.648ZM731.992 66.756C727.708 66.756 724.468 65.694 722.272 63.57C720.094 61.428 719.005 58.422 719.005 54.552V51.069C719.005 47.145 720.103 44.103 722.299 41.943C724.495 39.765 727.726 38.676 731.992 38.676C736.258 38.676 739.48 39.765 741.658 41.943C743.854 44.103 744.952 47.145 744.952 51.069V54.552C744.952 58.422 743.863 61.428 741.685 63.57C739.507 65.694 736.276 66.756 731.992 66.756ZM731.992 60.249C733.522 60.249 734.683 59.79 735.475 58.872C736.285 57.936 736.69 56.613 736.69 54.903V50.718C736.69 48.918 736.285 47.55 735.475 46.614C734.683 45.678 733.522 45.21 731.992 45.21C730.462 45.21 729.292 45.678 728.482 46.614C727.69 47.55 727.294 48.918 727.294 50.718V54.903C727.294 56.613 727.69 57.936 728.482 58.872C729.292 59.79 730.462 60.249 731.992 60.249ZM766.572 66V50.394C766.572 49.422 766.446 48.585 766.194 47.883C765.942 47.163 765.519 46.614 764.925 46.236C764.331 45.858 763.521 45.669 762.495 45.669C761.649 45.669 760.902 45.822 760.254 46.128C759.606 46.416 759.057 46.821 758.607 47.343C758.175 47.847 757.851 48.423 757.635 49.071L756.366 45.21H757.77C758.058 44.004 758.526 42.924 759.174 41.97C759.84 41.016 760.749 40.26 761.901 39.702C763.053 39.126 764.511 38.838 766.275 38.838C768.255 38.838 769.875 39.225 771.135 39.999C772.395 40.755 773.322 41.889 773.916 43.401C774.528 44.913 774.834 46.803 774.834 49.071V66H766.572ZM749.508 66V39.459H757.716L757.446 46.101L757.77 46.884V66H749.508ZM777.961 66L787.843 31.494H800.533L810.361 66H801.829L794.512 37.056H793.891L786.493 66H777.961ZM786.358 57.873V51.312H801.91V57.873H786.358ZM813.765 66V30.333H822.027V66H813.765ZM840.731 66.675C835.907 66.675 832.343 65.604 830.039 63.462C827.735 61.302 826.583 58.161 826.583 54.039V51.285C826.583 47.217 827.663 44.103 829.823 41.943C831.983 39.765 835.124 38.676 839.246 38.676C842.018 38.676 844.322 39.153 846.158 40.107C848.012 41.043 849.398 42.384 850.316 44.13C851.252 45.876 851.72 47.973 851.72 50.421V51.312C851.72 51.996 851.684 52.698 851.612 53.418C851.558 54.12 851.477 54.777 851.369 55.389H843.917C843.989 54.345 844.034 53.364 844.052 52.446C844.07 51.51 844.079 50.664 844.079 49.908C844.079 48.81 843.908 47.892 843.566 47.154C843.224 46.398 842.693 45.822 841.973 45.426C841.271 45.03 840.362 44.832 839.246 44.832C837.59 44.832 836.375 45.282 835.601 46.182C834.845 47.064 834.467 48.324 834.467 49.962V52.392L834.521 53.283V55.173C834.521 55.857 834.629 56.505 834.845 57.117C835.079 57.729 835.475 58.269 836.033 58.737C836.609 59.187 837.392 59.547 838.382 59.817C839.39 60.069 840.668 60.195 842.216 60.195C843.854 60.195 845.429 60.042 846.941 59.736C848.453 59.412 849.902 58.98 851.288 58.44L850.613 64.65C849.389 65.28 847.94 65.775 846.266 66.135C844.592 66.495 842.747 66.675 840.731 66.675ZM830.957 55.389V50.286H849.695V55.389H830.957ZM853.185 66L860.853 51.069V53.31L853.374 39.459H862.257L866.739 48.747H867.252L871.707 39.459H880.563L873.111 53.31V51.069L880.779 66H871.896L867.252 56.253H866.739L862.068 66H853.185ZM889.352 66.54C888.236 66.54 887.12 66.45 886.004 66.27C884.888 66.09 883.88 65.829 882.98 65.487L882.359 58.359C883.187 58.647 884.015 58.872 884.843 59.034C885.671 59.196 886.517 59.277 887.381 59.277C889.361 59.277 890.693 58.854 891.377 58.008C892.061 57.144 892.403 55.821 892.403 54.039V31.494H900.881V54.552C900.881 58.494 899.999 61.482 898.235 63.516C896.471 65.532 893.51 66.54 889.352 66.54ZM918.249 66.756C913.965 66.756 910.725 65.694 908.529 63.57C906.351 61.428 905.262 58.422 905.262 54.552V51.069C905.262 47.145 906.36 44.103 908.556 41.943C910.752 39.765 913.983 38.676 918.249 38.676C922.515 38.676 925.737 39.765 927.915 41.943C930.111 44.103 931.209 47.145 931.209 51.069V54.552C931.209 58.422 930.12 61.428 927.942 63.57C925.764 65.694 922.533 66.756 918.249 66.756ZM918.249 60.249C919.779 60.249 920.94 59.79 921.732 58.872C922.542 57.936 922.947 56.613 922.947 54.903V50.718C922.947 48.918 922.542 47.55 921.732 46.614C920.94 45.678 919.779 45.21 918.249 45.21C916.719 45.21 915.549 45.678 914.739 46.614C913.947 47.55 913.551 48.918 913.551 50.718V54.903C913.551 56.613 913.947 57.936 914.739 58.872C915.549 59.79 916.719 60.249 918.249 60.249ZM952.83 66V50.394C952.83 49.422 952.704 48.585 952.452 47.883C952.2 47.163 951.777 46.614 951.183 46.236C950.589 45.858 949.779 45.669 948.753 45.669C947.907 45.669 947.16 45.822 946.512 46.128C945.864 46.416 945.315 46.821 944.865 47.343C944.433 47.847 944.109 48.423 943.893 49.071L942.624 45.21H944.028C944.316 44.004 944.784 42.924 945.432 41.97C946.098 41.016 947.007 40.26 948.159 39.702C949.311 39.126 950.769 38.838 952.533 38.838C954.513 38.838 956.133 39.225 957.393 39.999C958.653 40.755 959.58 41.889 960.174 43.401C960.786 44.913 961.092 46.803 961.092 49.071V66H952.83ZM935.766 66V39.459H943.974L943.704 46.101L944.028 46.884V66H935.766ZM979.528 66.675C974.704 66.675 971.14 65.604 968.836 63.462C966.532 61.302 965.38 58.161 965.38 54.039V51.285C965.38 47.217 966.46 44.103 968.62 41.943C970.78 39.765 973.921 38.676 978.043 38.676C980.815 38.676 983.119 39.153 984.955 40.107C986.809 41.043 988.195 42.384 989.113 44.13C990.049 45.876 990.517 47.973 990.517 50.421V51.312C990.517 51.996 990.481 52.698 990.409 53.418C990.355 54.12 990.274 54.777 990.166 55.389H982.714C982.786 54.345 982.831 53.364 982.849 52.446C982.867 51.51 982.876 50.664 982.876 49.908C982.876 48.81 982.705 47.892 982.363 47.154C982.021 46.398 981.49 45.822 980.77 45.426C980.068 45.03 979.159 44.832 978.043 44.832C976.387 44.832 975.172 45.282 974.398 46.182C973.642 47.064 973.264 48.324 973.264 49.962V52.392L973.318 53.283V55.173C973.318 55.857 973.426 56.505 973.642 57.117C973.876 57.729 974.272 58.269 974.83 58.737C975.406 59.187 976.189 59.547 977.179 59.817C978.187 60.069 979.465 60.195 981.013 60.195C982.651 60.195 984.226 60.042 985.738 59.736C987.25 59.412 988.699 58.98 990.085 58.44L989.41 64.65C988.186 65.28 986.737 65.775 985.063 66.135C983.389 66.495 981.544 66.675 979.528 66.675ZM969.754 55.389V50.286H988.492V55.389H969.754ZM1004.59 66.648C1002.49 66.648 1000.59 66.459 998.898 66.081C997.206 65.721 995.757 65.298 994.551 64.812L993.849 57.873C995.235 58.449 996.765 58.971 998.439 59.439C1000.13 59.889 1001.96 60.114 1003.92 60.114C1005.49 60.114 1006.59 59.952 1007.24 59.628C1007.91 59.286 1008.24 58.764 1008.24 58.062V57.954C1008.24 57.468 1008.07 57.072 1007.73 56.766C1007.4 56.442 1006.83 56.154 1006 55.902C1005.19 55.65 1004.05 55.353 1002.57 55.011C1000.36 54.489 998.601 53.877 997.305 53.175C996.009 52.455 995.082 51.582 994.524 50.556C993.984 49.512 993.714 48.279 993.714 46.857V46.641C993.714 44.013 994.65 42.051 996.522 40.755C998.394 39.441 1001.15 38.784 1004.78 38.784C1006.84 38.784 1008.68 38.973 1010.32 39.351C1011.96 39.729 1013.33 40.179 1014.45 40.701L1015.15 47.154C1013.86 46.578 1012.41 46.101 1010.8 45.723C1009.22 45.345 1007.56 45.156 1005.81 45.156C1004.75 45.156 1003.91 45.228 1003.3 45.372C1002.7 45.516 1002.28 45.723 1002.03 45.993C1001.8 46.263 1001.68 46.596 1001.68 46.992V47.073C1001.68 47.505 1001.82 47.874 1002.11 48.18C1002.4 48.486 1002.92 48.774 1003.68 49.044C1004.45 49.314 1005.56 49.62 1007 49.962C1009.23 50.448 1011.03 51.006 1012.4 51.636C1013.77 52.248 1014.76 53.049 1015.39 54.039C1016.02 55.011 1016.34 56.307 1016.34 57.927V58.17C1016.34 61.032 1015.38 63.165 1013.45 64.569C1011.52 65.955 1008.57 66.648 1004.59 66.648ZM1026.7 66V59.331H1035.8C1037.42 59.331 1038.57 59.025 1039.25 58.413C1039.95 57.801 1040.31 56.883 1040.31 55.659V55.2C1040.31 53.976 1039.95 53.058 1039.25 52.446C1038.57 51.816 1037.39 51.501 1035.72 51.501H1026.56V45.345H1035.5C1037.07 45.345 1038.17 45.039 1038.82 44.427C1039.47 43.815 1039.79 42.924 1039.79 41.754V41.484C1039.79 40.332 1039.47 39.468 1038.82 38.892C1038.17 38.298 1037.07 38.001 1035.5 38.001H1026.54V31.494H1036.39C1040.57 31.494 1043.56 32.196 1045.38 33.6C1047.2 34.986 1048.11 37.038 1048.11 39.756V40.161C1048.11 42.213 1047.57 43.806 1046.49 44.94C1045.43 46.074 1043.75 46.713 1041.47 46.857V47.154C1044 47.496 1045.86 48.351 1047.03 49.719C1048.2 51.087 1048.78 53.004 1048.78 55.47V56.199C1048.78 59.439 1047.83 61.887 1045.92 63.543C1044.03 65.181 1041 66 1036.82 66H1026.7ZM1020.68 66V31.494H1028.78V66H1020.68ZM1066.49 66.675C1061.66 66.675 1058.1 65.604 1055.79 63.462C1053.49 61.302 1052.34 58.161 1052.34 54.039V51.285C1052.34 47.217 1053.42 44.103 1055.58 41.943C1057.74 39.765 1060.88 38.676 1065 38.676C1067.77 38.676 1070.08 39.153 1071.91 40.107C1073.77 41.043 1075.15 42.384 1076.07 44.13C1077.01 45.876 1077.48 47.973 1077.48 50.421V51.312C1077.48 51.996 1077.44 52.698 1077.37 53.418C1077.31 54.12 1077.23 54.777 1077.12 55.389H1069.67C1069.74 54.345 1069.79 53.364 1069.81 52.446C1069.83 51.51 1069.83 50.664 1069.83 49.908C1069.83 48.81 1069.66 47.892 1069.32 47.154C1068.98 46.398 1068.45 45.822 1067.73 45.426C1067.03 45.03 1066.12 44.832 1065 44.832C1063.35 44.832 1062.13 45.282 1061.36 46.182C1060.6 47.064 1060.22 48.324 1060.22 49.962V52.392L1060.28 53.283V55.173C1060.28 55.857 1060.38 56.505 1060.6 57.117C1060.83 57.729 1061.23 58.269 1061.79 58.737C1062.36 59.187 1063.15 59.547 1064.14 59.817C1065.15 60.069 1066.42 60.195 1067.97 60.195C1069.61 60.195 1071.18 60.042 1072.7 59.736C1074.21 59.412 1075.66 58.98 1077.04 58.44L1076.37 64.65C1075.14 65.28 1073.7 65.775 1072.02 66.135C1070.35 66.495 1068.5 66.675 1066.49 66.675ZM1056.71 55.389V50.286H1075.45V55.389H1056.71ZM1095.12 66.675C1090.3 66.675 1086.73 65.604 1084.43 63.462C1082.13 61.302 1080.97 58.161 1080.97 54.039V51.285C1080.97 47.217 1082.05 44.103 1084.21 41.943C1086.37 39.765 1089.51 38.676 1093.64 38.676C1096.41 38.676 1098.71 39.153 1100.55 40.107C1102.4 41.043 1103.79 42.384 1104.71 44.13C1105.64 45.876 1106.11 47.973 1106.11 50.421V51.312C1106.11 51.996 1106.07 52.698 1106 53.418C1105.95 54.12 1105.87 54.777 1105.76 55.389H1098.31C1098.38 54.345 1098.42 53.364 1098.44 52.446C1098.46 51.51 1098.47 50.664 1098.47 49.908C1098.47 48.81 1098.3 47.892 1097.96 47.154C1097.61 46.398 1097.08 45.822 1096.36 45.426C1095.66 45.03 1094.75 44.832 1093.64 44.832C1091.98 44.832 1090.77 45.282 1089.99 46.182C1089.24 47.064 1088.86 48.324 1088.86 49.962V52.392L1088.91 53.283V55.173C1088.91 55.857 1089.02 56.505 1089.24 57.117C1089.47 57.729 1089.87 58.269 1090.42 58.737C1091 59.187 1091.78 59.547 1092.77 59.817C1093.78 60.069 1095.06 60.195 1096.61 60.195C1098.24 60.195 1099.82 60.042 1101.33 59.736C1102.84 59.412 1104.29 58.98 1105.68 58.44L1105 64.65C1103.78 65.28 1102.33 65.775 1100.66 66.135C1098.98 66.495 1097.14 66.675 1095.12 66.675ZM1085.35 55.389V50.286H1104.09V55.389H1085.35ZM1121.35 66.594C1118.99 66.594 1117.11 66.243 1115.71 65.541C1114.32 64.821 1113.32 63.75 1112.71 62.328C1112.1 60.906 1111.79 59.151 1111.79 57.063V42.24H1120V55.74C1120 57.036 1120.29 57.99 1120.86 58.602C1121.46 59.196 1122.56 59.493 1124.16 59.493C1125.04 59.493 1125.91 59.394 1126.78 59.196C1127.64 58.998 1128.42 58.746 1129.13 58.44L1128.42 65.271C1127.51 65.667 1126.44 65.982 1125.24 66.216C1124.05 66.468 1122.75 66.594 1121.35 66.594ZM1108.23 46.047V39.567H1128.88L1128.15 46.047H1108.23ZM1111.9 40.161L1111.87 33.303L1120.05 32.52L1119.76 40.161H1111.9ZM1132.65 66V30.333H1140.91V66H1132.65ZM1159.62 66.675C1154.79 66.675 1151.23 65.604 1148.92 63.462C1146.62 61.302 1145.47 58.161 1145.47 54.039V51.285C1145.47 47.217 1146.55 44.103 1148.71 41.943C1150.87 39.765 1154.01 38.676 1158.13 38.676C1160.9 38.676 1163.21 39.153 1165.04 40.107C1166.9 41.043 1168.28 42.384 1169.2 44.13C1170.14 45.876 1170.6 47.973 1170.6 50.421V51.312C1170.6 51.996 1170.57 52.698 1170.5 53.418C1170.44 54.12 1170.36 54.777 1170.25 55.389H1162.8C1162.87 54.345 1162.92 53.364 1162.94 52.446C1162.95 51.51 1162.96 50.664 1162.96 49.908C1162.96 48.81 1162.79 47.892 1162.45 47.154C1162.11 46.398 1161.58 45.822 1160.86 45.426C1160.16 45.03 1159.25 44.832 1158.13 44.832C1156.47 44.832 1155.26 45.282 1154.49 46.182C1153.73 47.064 1153.35 48.324 1153.35 49.962V52.392L1153.41 53.283V55.173C1153.41 55.857 1153.51 56.505 1153.73 57.117C1153.96 57.729 1154.36 58.269 1154.92 58.737C1155.49 59.187 1156.28 59.547 1157.27 59.817C1158.27 60.069 1159.55 60.195 1161.1 60.195C1162.74 60.195 1164.31 60.042 1165.83 59.736C1167.34 59.412 1168.79 58.98 1170.17 58.44L1169.5 64.65C1168.27 65.28 1166.82 65.775 1165.15 66.135C1163.48 66.495 1161.63 66.675 1159.62 66.675ZM1149.84 55.389V50.286H1168.58V55.389H1149.84ZM1175.53 61.572V39.459H1183.8V61.572H1175.53ZM1179.66 36.948C1178.13 36.948 1177.02 36.597 1176.32 35.895C1175.61 35.175 1175.26 34.212 1175.26 33.006V32.817C1175.26 31.611 1175.61 30.657 1176.32 29.955C1177.02 29.253 1178.13 28.902 1179.66 28.902C1181.19 28.902 1182.31 29.253 1183.01 29.955C1183.73 30.657 1184.09 31.611 1184.09 32.817V33.006C1184.09 34.23 1183.73 35.193 1183.01 35.895C1182.31 36.597 1181.19 36.948 1179.66 36.948ZM1174.56 75.747C1173.75 75.747 1173 75.693 1172.32 75.585C1171.62 75.495 1171.01 75.378 1170.48 75.234L1169.89 68.673C1170.25 68.799 1170.63 68.898 1171.02 68.97C1171.4 69.042 1171.8 69.078 1172.21 69.078C1173.54 69.078 1174.43 68.727 1174.86 68.025C1175.31 67.323 1175.53 66.351 1175.53 65.109V59.979H1183.8V65.676C1183.8 67.71 1183.5 69.474 1182.9 70.968C1182.33 72.48 1181.37 73.65 1180.02 74.478C1178.67 75.324 1176.85 75.747 1174.56 75.747ZM1197.33 39.459V55.065C1197.33 56.037 1197.46 56.883 1197.71 57.603C1197.96 58.305 1198.38 58.854 1198.98 59.25C1199.57 59.628 1200.38 59.817 1201.41 59.817C1202.27 59.817 1203.02 59.664 1203.65 59.358C1204.3 59.052 1204.84 58.638 1205.27 58.116C1205.72 57.594 1206.05 57.018 1206.27 56.388L1207.54 60.249H1206.13C1205.85 61.437 1205.37 62.517 1204.7 63.489C1204.05 64.461 1203.15 65.226 1202 65.784C1200.87 66.342 1199.41 66.621 1197.63 66.621C1195.67 66.621 1194.05 66.243 1192.77 65.487C1191.51 64.713 1190.57 63.57 1189.96 62.058C1189.37 60.546 1189.07 58.656 1189.07 56.388V39.459H1197.33ZM1214.4 39.459V66H1206.19L1206.46 59.358L1206.13 58.602V39.459H1214.4ZM1219.93 66V39.459H1228.19V66H1219.93ZM1224.06 36.948C1222.51 36.948 1221.38 36.597 1220.68 35.895C1219.98 35.175 1219.63 34.212 1219.63 33.006V32.817C1219.63 31.611 1219.98 30.657 1220.68 29.955C1221.38 29.253 1222.51 28.902 1224.06 28.902C1225.57 28.902 1226.68 29.253 1227.38 29.955C1228.1 30.657 1228.46 31.611 1228.46 32.817V33.006C1228.46 34.23 1228.1 35.193 1227.38 35.895C1226.68 36.597 1225.57 36.948 1224.06 36.948ZM1245.16 66.702C1240.95 66.702 1237.83 65.595 1235.79 63.381C1233.76 61.167 1232.74 58.053 1232.74 54.039V51.285C1232.74 47.343 1233.76 44.265 1235.79 42.051C1237.83 39.837 1240.94 38.73 1245.14 38.73C1246.22 38.73 1247.22 38.811 1248.16 38.973C1249.1 39.117 1249.96 39.324 1250.75 39.594C1251.54 39.864 1252.24 40.152 1252.83 40.458L1253.51 47.289C1252.62 46.785 1251.65 46.371 1250.59 46.047C1249.53 45.705 1248.33 45.534 1247 45.534C1244.91 45.534 1243.4 46.038 1242.46 47.046C1241.53 48.054 1241.06 49.512 1241.06 51.42V53.715C1241.06 55.659 1241.55 57.153 1242.54 58.197C1243.53 59.241 1245.08 59.763 1247.19 59.763C1248.5 59.763 1249.68 59.61 1250.72 59.304C1251.79 58.98 1252.79 58.566 1253.75 58.062L1253.1 64.92C1252.16 65.424 1251.01 65.847 1249.64 66.189C1248.28 66.531 1246.78 66.702 1245.16 66.702ZM1270.62 66.675C1265.8 66.675 1262.23 65.604 1259.93 63.462C1257.63 61.302 1256.47 58.161 1256.47 54.039V51.285C1256.47 47.217 1257.55 44.103 1259.71 41.943C1261.87 39.765 1265.01 38.676 1269.14 38.676C1271.91 38.676 1274.21 39.153 1276.05 40.107C1277.9 41.043 1279.29 42.384 1280.21 44.13C1281.14 45.876 1281.61 47.973 1281.61 50.421V51.312C1281.61 51.996 1281.57 52.698 1281.5 53.418C1281.45 54.12 1281.37 54.777 1281.26 55.389H1273.81C1273.88 54.345 1273.92 53.364 1273.94 52.446C1273.96 51.51 1273.97 50.664 1273.97 49.908C1273.97 48.81 1273.8 47.892 1273.46 47.154C1273.11 46.398 1272.58 45.822 1271.86 45.426C1271.16 45.03 1270.25 44.832 1269.14 44.832C1267.48 44.832 1266.27 45.282 1265.49 46.182C1264.74 47.064 1264.36 48.324 1264.36 49.962V52.392L1264.41 53.283V55.173C1264.41 55.857 1264.52 56.505 1264.74 57.117C1264.97 57.729 1265.37 58.269 1265.92 58.737C1266.5 59.187 1267.28 59.547 1268.27 59.817C1269.28 60.069 1270.56 60.195 1272.11 60.195C1273.74 60.195 1275.32 60.042 1276.83 59.736C1278.34 59.412 1279.79 58.98 1281.18 58.44L1280.5 64.65C1279.28 65.28 1277.83 65.775 1276.16 66.135C1274.48 66.495 1272.64 66.675 1270.62 66.675ZM1260.85 55.389V50.286H1279.59V55.389H1260.85ZM1291.22 66V39.999H1290.87L1283.8 43.239L1284.01 35.301L1292.22 31.494H1299.62V66H1291.22ZM1307.16 66L1318.99 38.568H1303.95V31.494H1327.82V38.757L1316.26 66H1307.16ZM1333.79 66L1345.62 38.568H1330.58V31.494H1354.45V38.757L1342.89 66H1333.79ZM1371.01 66.729C1368 66.729 1365.44 66.189 1363.34 65.109C1361.25 64.011 1359.66 62.4 1358.56 60.276C1357.48 58.152 1356.94 55.542 1356.94 52.446V46.371C1356.94 41.385 1358.21 37.542 1360.75 34.842C1363.3 32.142 1367.08 30.792 1372.09 30.792C1374.23 30.792 1376.13 30.981 1377.78 31.359C1379.44 31.737 1380.84 32.178 1381.99 32.682L1382.8 39.756C1381.99 39.378 1381.13 39.054 1380.21 38.784C1379.31 38.496 1378.33 38.262 1377.27 38.082C1376.21 37.902 1375.05 37.812 1373.79 37.812C1370.91 37.812 1368.77 38.532 1367.39 39.972C1366 41.394 1365.31 43.599 1365.31 46.587V52.716C1365.31 54.318 1365.52 55.641 1365.96 56.685C1366.39 57.711 1367.04 58.485 1367.9 59.007C1368.78 59.511 1369.88 59.763 1371.19 59.763C1372.92 59.763 1374.17 59.358 1374.95 58.548C1375.74 57.72 1376.14 56.568 1376.14 55.092V54.444C1376.14 53.472 1375.98 52.644 1375.68 51.96C1375.39 51.276 1374.9 50.745 1374.22 50.367C1373.53 49.989 1372.59 49.8 1371.38 49.8C1370.41 49.8 1369.51 49.962 1368.68 50.286C1367.86 50.592 1367.14 51.042 1366.52 51.636C1365.93 52.212 1365.47 52.905 1365.15 53.715L1364.23 49.341H1365.58C1365.88 48.243 1366.4 47.253 1367.12 46.371C1367.86 45.489 1368.84 44.787 1370.06 44.265C1371.3 43.743 1372.81 43.482 1374.6 43.482C1377.87 43.482 1380.31 44.418 1381.91 46.29C1383.53 48.162 1384.34 50.826 1384.34 54.282V55.173C1384.34 58.863 1383.22 61.716 1380.97 63.732C1378.74 65.73 1375.42 66.729 1371.01 66.729ZM1394.96 56.199V49.368H1403.14C1404.91 49.368 1406.17 48.981 1406.95 48.207C1407.74 47.415 1408.14 46.236 1408.14 44.67V42.996C1408.14 41.412 1407.75 40.233 1406.98 39.459C1406.2 38.685 1404.93 38.298 1403.17 38.298H1394.93V31.494H1403.79C1408.18 31.494 1411.39 32.466 1413.43 34.41C1415.48 36.354 1416.51 39.135 1416.51 42.753V44.94C1416.51 48.576 1415.48 51.366 1413.43 53.31C1411.39 55.236 1408.19 56.199 1403.82 56.199H1394.96ZM1389.29 66V31.494H1397.55V51.285L1397.61 55.119V66H1389.29ZM416.781 118V91.459H425.043V118H416.781ZM420.912 88.948C419.364 88.948 418.239 88.597 417.537 87.895C416.835 87.175 416.484 86.212 416.484 85.006V84.817C416.484 83.611 416.835 82.657 417.537 81.955C418.239 81.253 419.364 80.902 420.912 80.902C422.424 80.902 423.531 81.253 424.233 81.955C424.953 82.657 425.313 83.611 425.313 84.817V85.006C425.313 86.23 424.953 87.193 424.233 87.895C423.531 88.597 422.424 88.948 420.912 88.948ZM441.181 118.594C438.823 118.594 436.942 118.243 435.538 117.541C434.152 116.821 433.153 115.75 432.541 114.328C431.929 112.906 431.623 111.151 431.623 109.063V94.24H439.831V107.74C439.831 109.036 440.119 109.99 440.695 110.602C441.289 111.196 442.387 111.493 443.989 111.493C444.871 111.493 445.744 111.394 446.608 111.196C447.472 110.998 448.255 110.746 448.957 110.44L448.255 117.271C447.337 117.667 446.275 117.982 445.069 118.216C443.881 118.468 442.585 118.594 441.181 118.594ZM428.059 98.047V91.567H448.714L447.985 98.047H428.059ZM431.731 92.161L431.704 85.303L439.885 84.52L439.588 92.161H431.731ZM468.682 118.621C467.098 118.621 465.766 118.36 464.686 117.838C463.606 117.316 462.742 116.578 462.094 115.624C461.446 114.652 460.987 113.527 460.717 112.249H458.584L460.555 106.687C460.591 107.785 460.807 108.712 461.203 109.468C461.599 110.224 462.166 110.809 462.904 111.223C463.642 111.619 464.506 111.817 465.496 111.817C467.008 111.817 468.151 111.376 468.925 110.494C469.699 109.594 470.086 108.253 470.086 106.471V102.718C470.086 100.954 469.699 99.631 468.925 98.749C468.169 97.867 467.035 97.426 465.523 97.426C464.677 97.426 463.903 97.588 463.201 97.912C462.517 98.236 461.932 98.668 461.446 99.208C460.978 99.73 460.636 100.333 460.42 101.017L458.557 97.21H460.825C461.095 96.022 461.536 94.951 462.148 93.997C462.76 93.025 463.615 92.26 464.713 91.702C465.829 91.126 467.242 90.838 468.952 90.838C472.048 90.838 474.388 91.855 475.972 93.889C477.574 95.905 478.375 98.938 478.375 102.988V106.228C478.375 110.314 477.574 113.401 475.972 115.489C474.37 117.577 471.94 118.621 468.682 118.621ZM452.455 118V82.333H460.663V90.271L460.528 98.776L460.555 99.505V109.684L460.42 111.277L460.663 118H452.455ZM491.06 91.459V107.065C491.06 108.037 491.186 108.883 491.438 109.603C491.69 110.305 492.113 110.854 492.707 111.25C493.301 111.628 494.111 111.817 495.137 111.817C496.001 111.817 496.748 111.664 497.378 111.358C498.026 111.052 498.566 110.638 498.998 110.116C499.448 109.594 499.781 109.018 499.997 108.388L501.266 112.249H499.862C499.574 113.437 499.097 114.517 498.431 115.489C497.783 116.461 496.883 117.226 495.731 117.784C494.597 118.342 493.139 118.621 491.357 118.621C489.395 118.621 487.775 118.243 486.497 117.487C485.237 116.713 484.301 115.57 483.689 114.058C483.095 112.546 482.798 110.656 482.798 108.388V91.459H491.06ZM508.124 91.459V118H499.916L500.186 111.358L499.862 110.602V91.459H508.124ZM513.654 118V82.333H521.916V118H513.654ZM527.576 118V82.333H535.838V118H527.576ZM549.276 102.313V103.933C549.276 106.705 549.51 109.288 549.978 111.682C550.464 114.058 551.184 116.317 552.138 118.459C553.11 120.601 554.325 122.698 555.783 124.75H547.521C546.225 122.968 545.118 121.051 544.2 118.999C543.282 116.947 542.58 114.706 542.094 112.276C541.626 109.828 541.392 107.146 541.392 104.23V102.016C541.392 99.1 541.626 96.427 542.094 93.997C542.58 91.567 543.282 89.326 544.2 87.274C545.136 85.222 546.27 83.305 547.602 81.523H555.783C554.325 83.557 553.11 85.645 552.138 87.787C551.184 89.929 550.464 92.197 549.978 94.591C549.51 96.967 549.276 99.541 549.276 102.313ZM578.852 118L568.943 102.88H566.837V97.804H568.943L578.717 83.494H588.275L576.044 100.828V98.938L588.653 118H578.852ZM559.304 118V83.494H567.674V118H559.304ZM606.084 118L606.327 111.358L606.138 110.953V102.664L606.084 101.584C606.084 100.108 605.652 99.019 604.788 98.317C603.924 97.615 602.475 97.264 600.441 97.264C598.659 97.264 596.967 97.489 595.365 97.939C593.763 98.389 592.251 98.902 590.829 99.478L591.531 93.079C592.377 92.683 593.322 92.314 594.366 91.972C595.428 91.612 596.598 91.324 597.876 91.108C599.154 90.892 600.522 90.784 601.98 90.784C604.302 90.784 606.246 91.054 607.812 91.594C609.378 92.134 610.629 92.899 611.565 93.889C612.501 94.879 613.176 96.067 613.59 97.453C614.004 98.821 614.211 100.333 614.211 101.989V118H606.084ZM597.633 118.621C594.987 118.621 592.98 117.955 591.612 116.623C590.244 115.291 589.56 113.392 589.56 110.926V110.197C589.56 107.587 590.361 105.661 591.963 104.419C593.583 103.159 596.148 102.304 599.658 101.854L606.786 100.909L607.272 105.877L600.954 106.795C599.676 106.957 598.776 107.254 598.254 107.686C597.732 108.118 597.471 108.757 597.471 109.603V109.792C597.471 110.602 597.732 111.25 598.254 111.736C598.776 112.204 599.613 112.438 600.765 112.438C601.773 112.438 602.637 112.285 603.357 111.979C604.095 111.673 604.698 111.277 605.166 110.791C605.634 110.287 605.985 109.729 606.219 109.117L607.38 112.465H606.03C605.742 113.617 605.292 114.661 604.68 115.597C604.086 116.533 603.222 117.271 602.088 117.811C600.954 118.351 599.469 118.621 597.633 118.621ZM627.459 103.096L625.191 98.074H627.135C627.567 95.878 628.404 94.159 629.646 92.917C630.906 91.657 632.679 91.027 634.965 91.027C635.361 91.027 635.721 91.054 636.045 91.108C636.387 91.162 636.711 91.225 637.017 91.297L637.422 99.64C637.044 99.532 636.603 99.46 636.099 99.424C635.595 99.37 635.082 99.343 634.56 99.343C632.796 99.343 631.311 99.676 630.105 100.342C628.899 100.99 628.017 101.908 627.459 103.096ZM619.359 118V91.459H627.135L626.784 99.937L627.621 100.045V118H619.359ZM653.629 118.675C648.805 118.675 645.241 117.604 642.937 115.462C640.633 113.302 639.481 110.161 639.481 106.039V103.285C639.481 99.217 640.561 96.103 642.721 93.943C644.881 91.765 648.022 90.676 652.144 90.676C654.916 90.676 657.22 91.153 659.056 92.107C660.91 93.043 662.296 94.384 663.214 96.13C664.15 97.876 664.618 99.973 664.618 102.421V103.312C664.618 103.996 664.582 104.698 664.51 105.418C664.456 106.12 664.375 106.777 664.267 107.389H656.815C656.887 106.345 656.932 105.364 656.95 104.446C656.968 103.51 656.977 102.664 656.977 101.908C656.977 100.81 656.806 99.892 656.464 99.154C656.122 98.398 655.591 97.822 654.871 97.426C654.169 97.03 653.26 96.832 652.144 96.832C650.488 96.832 649.273 97.282 648.499 98.182C647.743 99.064 647.365 100.324 647.365 101.962V104.392L647.419 105.283V107.173C647.419 107.857 647.527 108.505 647.743 109.117C647.977 109.729 648.373 110.269 648.931 110.737C649.507 111.187 650.29 111.547 651.28 111.817C652.288 112.069 653.566 112.195 655.114 112.195C656.752 112.195 658.327 112.042 659.839 111.736C661.351 111.412 662.8 110.98 664.186 110.44L663.511 116.65C662.287 117.28 660.838 117.775 659.164 118.135C657.49 118.495 655.645 118.675 653.629 118.675ZM643.855 107.389V102.286H662.593V107.389H643.855ZM686.152 118V102.394C686.152 101.422 686.026 100.585 685.774 99.883C685.522 99.163 685.099 98.614 684.505 98.236C683.911 97.858 683.101 97.669 682.075 97.669C681.229 97.669 680.482 97.822 679.834 98.128C679.186 98.416 678.637 98.821 678.187 99.343C677.755 99.847 677.431 100.423 677.215 101.071L675.946 97.21H677.35C677.638 96.004 678.106 94.924 678.754 93.97C679.42 93.016 680.329 92.26 681.481 91.702C682.633 91.126 684.091 90.838 685.855 90.838C687.835 90.838 689.455 91.225 690.715 91.999C691.975 92.755 692.902 93.889 693.496 95.401C694.108 96.913 694.414 98.803 694.414 101.071V118H686.152ZM669.088 118V91.459H677.296L677.026 98.101L677.35 98.884V118H669.088ZM703.859 102.313C703.859 99.541 703.616 96.967 703.13 94.591C702.662 92.197 701.942 89.929 700.97 87.787C700.016 85.645 698.81 83.557 697.352 81.523H705.533C706.865 83.305 707.99 85.222 708.908 87.274C709.844 89.326 710.546 91.567 711.014 93.997C711.5 96.427 711.743 99.1 711.743 102.016V104.23C711.743 107.146 711.5 109.828 711.014 112.276C710.546 114.706 709.853 116.947 708.935 118.999C708.035 121.051 706.928 122.968 705.614 124.75H697.352C698.81 122.698 700.016 120.601 700.97 118.459C701.942 116.317 702.662 114.058 703.13 111.682C703.616 109.288 703.859 106.705 703.859 103.933V102.313Z" fill="#E9000B"/>
<mask id="mask1_27_1477" style="mask-type:alpha" maskUnits="userSpaceOnUse" x="-311" y="14" width="688" height="118">
<rect x="-304" y="21" width="674" height="103.793" fill="#D9D9D9" stroke="black" stroke-width="14"/>
</mask>
<g mask="url(#mask1_27_1477)">
<rect x="-304" y="21" width="674" height="103.793" stroke="#E9000B" stroke-width="14"/>
<rect x="0.0334332" y="0.410228" width="13.4593" height="418.551" transform="matrix(0.941792 0.336197 -0.874925 0.484258 290.678 -37.3617)" fill="#E9000B" stroke="#E9000B"/>
<rect x="0.0334332" y="0.410228" width="13.4593" height="418.551" transform="matrix(0.941792 0.336197 -0.874925 0.484258 87.5977 -37.3617)" fill="#E9000B" stroke="#E9000B"/>
<rect x="0.0334332" y="0.410228" width="13.4593" height="418.551" transform="matrix(0.941792 0.336197 -0.874925 0.484258 493.759 -37.3617)" fill="#E9000B" stroke="#E9000B"/>
<rect x="0.0334332" y="0.410228" width="13.4593" height="418.551" transform="matrix(0.941792 0.336197 -0.874925 0.484258 358.372 -37.3617)" fill="#E9000B" stroke="#E9000B"/>
<rect x="0.0334332" y="0.410228" width="13.4593" height="418.551" transform="matrix(0.941792 0.336197 -0.874925 0.484258 155.291 -37.3617)" fill="#E9000B" stroke="#E9000B"/>
<rect x="0.0334332" y="0.410228" width="13.4593" height="418.551" transform="matrix(0.941792 0.336197 -0.874925 0.484258 561.452 -37.3617)" fill="#E9000B" stroke="#E9000B"/>
<rect x="0.0334332" y="0.410228" width="13.4593" height="418.551" transform="matrix(0.941792 0.336197 -0.874925 0.484258 19.9043 -37.3617)" fill="#E9000B" stroke="#E9000B"/>
<rect x="0.0334332" y="0.410228" width="13.4593" height="418.551" transform="matrix(0.941792 0.336197 -0.874925 0.484258 426.065 -37.3617)" fill="#E9000B" stroke="#E9000B"/>
<rect x="0.0334332" y="0.410228" width="13.4593" height="418.551" transform="matrix(0.941792 0.336197 -0.874925 0.484258 222.985 -37.3617)" fill="#E9000B" stroke="#E9000B"/>
<rect x="0.0334332" y="0.410228" width="13.4593" height="418.551" transform="matrix(0.941792 0.336197 -0.874925 0.484258 629.146 -37.3617)" fill="#E9000B" stroke="#E9000B"/>
</g>
</g>
</svg>
