<svg width="255" height="92" viewBox="0 0 255 92" fill="none" xmlns="http://www.w3.org/2000/svg">
<rect x="0.5" y="0.5" width="254" height="91" rx="30.5" fill="#025AC1" stroke="black"/>
<path d="M71.7988 56.9941C73.0749 56.9941 74.2598 56.8574 75.3535 56.584C76.265 56.3561 77.1309 55.9915 77.9512 55.4902C78.8171 54.9434 79.3867 54.1458 79.6602 53.0977C80.5716 53.2799 81.3464 53.4395 81.9844 53.5762C82.6224 53.6673 83.1693 53.7585 83.625 53.8496C84.1263 53.9863 84.5592 54.0775 84.9238 54.123C85.2884 54.2142 85.7214 54.3053 86.2227 54.3965C86.6784 54.4876 87.2253 54.6016 87.8633 54.7383C88.5469 54.8294 89.3444 54.9661 90.2559 55.1484C89.5723 55.0573 88.8659 55.1257 88.1367 55.3535C87.4531 55.5814 86.7923 55.832 86.1543 56.1055C85.4251 56.4245 84.7415 56.8118 84.1035 57.2676C83.6934 57.541 83.2148 57.9512 82.668 58.498C82.1667 59.0449 81.4375 59.569 80.4805 60.0703C79.5234 60.5716 78.2474 61.0046 76.6523 61.3691C75.1029 61.6882 73.0977 61.8021 70.6367 61.7109C67.6745 61.6198 65.1908 61.0957 63.1855 60.1387C61.1803 59.1361 59.5625 57.9284 58.332 56.5156C57.1016 55.0573 56.2129 53.485 55.666 51.7988C55.1191 50.1126 54.8229 48.5404 54.7773 47.082C54.7318 45.6237 55.1647 44.097 56.0762 42.502C56.9876 40.9069 58.2637 39.4486 59.9043 38.127C61.5905 36.8053 63.6185 35.7344 65.9883 34.9141C68.3581 34.0482 70.9557 33.6152 73.7812 33.6152C75.4219 33.6152 76.9258 33.8203 78.293 34.2305C79.7057 34.5951 80.9818 35.0964 82.1211 35.7344C83.306 36.3724 84.3314 37.1016 85.1973 37.9219C86.0632 38.6966 86.7923 39.4941 87.3848 40.3145C87.9772 41.1803 88.4785 42.0918 88.8887 43.0488C89.2533 43.8691 89.5495 44.8034 89.7773 45.8516C90.0052 46.8997 90.0736 47.9707 89.9824 49.0645C86.5189 49.1556 83.7161 49.224 81.5742 49.2695C79.4779 49.3151 77.8372 49.3379 76.6523 49.3379H73.5762H71.252C70.4316 49.3379 69.3607 49.3607 68.0391 49.4062C66.7174 49.4518 65.0996 49.5202 63.1855 49.6113C63.4134 51.4342 63.9831 52.847 64.8945 53.8496C65.8516 54.8066 66.8542 55.5358 67.9023 56.0371C69.0872 56.584 70.3861 56.903 71.7988 56.9941ZM65.6465 44.6895C67.1048 44.7806 68.3125 44.849 69.2695 44.8945C70.2721 44.9401 71.0924 44.9857 71.7305 45.0312C72.4141 45.0768 72.9609 45.0996 73.3711 45.0996H75.0801C76.2194 45.0996 78.3385 45.0312 81.4375 44.8945C81.3008 42.8893 80.8678 41.3626 80.1387 40.3145C79.4551 39.2663 78.7259 38.4915 77.9512 37.9902C77.0397 37.4434 76.0371 37.1243 74.9434 37.0332C71.9811 37.0788 69.7708 37.694 68.3125 38.8789C66.8997 40.0638 66.0111 42.0007 65.6465 44.6895ZM91.4814 38.2275C92.7412 38.4515 93.777 38.6055 94.5889 38.6895C95.4007 38.7734 96.0586 38.8434 96.5625 38.8994C97.1504 38.9554 97.6123 38.9694 97.9482 38.9414H99.208C99.6559 38.9414 100.216 38.9414 100.888 38.9414C101.588 38.9134 102.455 38.8994 103.491 38.8994C104.079 40.2712 104.611 41.5309 105.087 42.6787C105.591 43.8265 106.011 44.8063 106.347 45.6182C106.739 46.598 107.103 47.4798 107.438 48.2637C107.83 49.2435 108.25 50.3213 108.698 51.4971C109.146 52.6729 109.552 53.7786 109.916 54.8145C110.308 55.8503 110.63 56.7041 110.882 57.376C111.134 58.0479 111.26 58.3558 111.26 58.2998C111.26 58.2718 111.274 57.9919 111.302 57.46C111.33 56.9001 111.358 56.2142 111.386 55.4023C111.414 54.5625 111.442 53.6527 111.47 52.6729C111.526 51.665 111.554 50.6992 111.554 49.7754C111.582 48.8236 111.596 47.9557 111.596 47.1719C111.596 46.388 111.568 45.8001 111.512 45.4082C111.428 44.9323 111.26 44.3864 111.008 43.7705C110.784 43.2386 110.476 42.6087 110.084 41.8809C109.692 41.125 109.146 40.2712 108.446 39.3193C109.594 39.3473 110.532 39.3613 111.26 39.3613C111.988 39.3613 112.576 39.3613 113.023 39.3613C113.527 39.3613 113.919 39.3473 114.199 39.3193C114.563 39.3193 115.011 39.2913 115.543 39.2354C116.019 39.1794 116.607 39.1374 117.307 39.1094C118.035 39.0534 118.93 38.9834 119.994 38.8994C119.378 39.4593 118.888 39.9912 118.524 40.4951C118.16 40.999 117.867 41.4469 117.643 41.8389C117.391 42.2868 117.223 42.7067 117.139 43.0986C117.027 43.6025 116.929 44.4284 116.845 45.5762C116.789 46.696 116.719 47.9557 116.635 49.3555C116.579 50.7552 116.523 52.2109 116.467 53.7227C116.411 55.2344 116.355 56.6201 116.299 57.8799C116.299 58.8317 116.271 59.8535 116.215 60.9453C116.159 61.8691 116.103 62.9189 116.047 64.0947C115.991 65.2425 115.921 66.4043 115.837 67.5801L112.1 67.6641C111.008 65.7324 110.084 64.0807 109.328 62.709C108.6 61.3092 107.998 60.1615 107.522 59.2656C106.991 58.2298 106.543 57.362 106.179 56.6621C105.871 55.9902 105.465 55.2204 104.961 54.3525C104.541 53.6247 104.009 52.7288 103.365 51.665C102.749 50.6012 102.007 49.3835 101.14 48.0117C101.056 49.9434 101.014 51.5951 101.014 52.9668C101.042 54.3105 101.084 55.4303 101.14 56.3262C101.224 57.362 101.322 58.2298 101.434 58.9297C101.574 59.6016 101.77 60.3574 102.021 61.1973C102.245 61.9251 102.511 62.779 102.819 63.7588C103.155 64.7386 103.561 65.8444 104.037 67.0762C102.385 66.9922 101.154 66.9502 100.342 66.9502H99.082C98.6901 66.9502 98.1582 66.9922 97.4863 67.0762C96.9264 67.1322 96.1566 67.2161 95.1768 67.3281C94.2249 67.4401 93.0352 67.5941 91.6074 67.79C92.2793 66.9782 92.8112 66.2363 93.2031 65.5645C93.623 64.8646 93.945 64.2767 94.1689 63.8008C94.4489 63.2409 94.6449 62.751 94.7568 62.3311C94.8408 61.8831 94.8968 61.1133 94.9248 60.0215C94.9528 58.9017 94.9528 57.6419 94.9248 56.2422C94.9248 54.8145 94.8968 53.3167 94.8408 51.749C94.8128 50.1813 94.7708 48.7256 94.7148 47.3818C94.6589 46.0381 94.5889 44.8903 94.5049 43.9385C94.4489 42.9867 94.4069 42.3988 94.3789 42.1748C94.2949 41.8109 94.127 41.4189 93.875 40.999C93.651 40.6351 93.3571 40.2292 92.9932 39.7812C92.6292 39.3053 92.1253 38.7874 91.4814 38.2275ZM119.569 24.9336C120.937 25.0703 122.076 25.1842 122.987 25.2754C123.944 25.3665 124.719 25.4349 125.312 25.4805C125.995 25.526 126.542 25.5488 126.952 25.5488C127.362 25.5944 127.909 25.5944 128.593 25.5488C129.185 25.5033 129.96 25.4577 130.917 25.4121C131.874 25.321 133.082 25.1842 134.54 25.002C134.221 25.4577 133.97 25.8678 133.788 26.2324C133.606 26.5514 133.446 26.8477 133.31 27.1211L132.899 27.9414C132.808 28.2148 132.717 28.4883 132.626 28.7617C132.535 28.9896 132.444 29.263 132.353 29.582C132.307 29.901 132.261 30.2428 132.216 30.6074H142.743L141.786 36.1445L132.147 35.5977C131.92 37.9219 131.76 39.722 131.669 40.998C131.578 42.2741 131.487 43.2083 131.396 43.8008L131.259 45.0312C131.122 46.763 130.985 48.6543 130.849 50.7051C130.712 52.7103 130.666 54.5788 130.712 56.3105C130.757 58.0423 130.917 59.5007 131.19 60.6855C131.464 61.8249 131.942 62.3945 132.626 62.3945C133.31 62.3945 133.948 62.2122 134.54 61.8477C135.132 61.4831 135.634 61.0501 136.044 60.5488C136.5 60.0475 136.841 59.5462 137.069 59.0449C137.297 58.498 137.411 58.0879 137.411 57.8145C137.411 57.541 137.343 57.222 137.206 56.8574C136.978 56.1738 136.568 55.3079 135.976 54.2598C137.297 54.5788 138.459 54.8978 139.462 55.2168C139.963 55.3991 140.419 55.5814 140.829 55.7637C141.285 55.946 141.809 56.151 142.401 56.3789C142.903 56.6068 143.541 56.8802 144.315 57.1992C145.09 57.5182 146.002 57.9056 147.05 58.3613C146.047 58.5436 145.318 58.8398 144.862 59.25C144.589 59.4323 144.384 59.6374 144.247 59.8652C143.928 60.3665 143.563 61.0501 143.153 61.916C142.743 62.7363 142.128 63.5566 141.308 64.377C140.487 65.1973 139.371 65.9264 137.958 66.5645C136.591 67.2025 134.745 67.5671 132.421 67.6582C130.006 67.7493 128.16 67.3392 126.884 66.4277C125.653 65.5163 124.742 64.4681 124.149 63.2832C123.603 62.0527 123.284 60.8451 123.192 59.6602C123.101 58.4753 123.033 57.6777 122.987 57.2676C122.942 56.8574 122.942 55.832 122.987 54.1914C123.033 52.5508 123.101 50.7507 123.192 48.791C123.284 46.7858 123.375 44.8717 123.466 43.0488C123.557 41.1803 123.603 39.8132 123.603 38.9473C123.603 38.4915 123.625 38.013 123.671 37.5117C123.671 37.1016 123.671 36.6686 123.671 36.2129C123.716 35.7116 123.739 35.2331 123.739 34.7773L113.827 34.709L113.417 30.8125L123.397 31.0859C123.306 30.5846 123.192 30.1289 123.056 29.7188C122.965 29.263 122.873 28.8984 122.782 28.625C122.646 28.306 122.509 28.0326 122.372 27.8047C122.19 27.5768 121.985 27.3262 121.757 27.0527C121.529 26.8249 121.233 26.5286 120.868 26.1641C120.504 25.7995 120.071 25.3893 119.569 24.9336ZM141.66 41.9873C143.438 42.0381 144.91 42.0762 146.078 42.1016C147.271 42.1016 148.236 42.1016 148.973 42.1016H150.991H162.341C162.392 42.6094 162.43 43.1045 162.455 43.5869C162.506 44.0439 162.531 44.4502 162.531 44.8057C162.531 45.2373 162.519 45.6309 162.493 45.9863C162.468 46.3418 162.43 46.7227 162.379 47.1289C162.328 47.4844 162.277 47.8652 162.227 48.2715C162.176 48.6777 162.087 49.0967 161.96 49.5283C161.604 48.1572 161.122 47.1162 160.513 46.4053C159.929 45.6943 159.332 45.1738 158.723 44.8438C158.012 44.4629 157.263 44.2598 156.476 44.2344C155.435 44.2852 154.622 44.374 154.038 44.501C153.454 44.6279 152.997 44.8057 152.667 45.0342C152.337 45.2627 152.083 45.5293 151.905 45.834C151.753 46.1133 151.588 46.4307 151.41 46.7861C151.258 47.0908 151.118 47.5605 150.991 48.1953C150.864 48.7285 150.737 49.4521 150.61 50.3662C150.509 51.2803 150.395 52.4609 150.268 53.9082C150.953 53.7051 151.499 53.5146 151.905 53.3369C152.337 53.1592 152.68 53.0068 152.934 52.8799C153.213 52.7275 153.416 52.5879 153.543 52.4609C153.645 52.3086 153.797 52.0293 154 51.623C154.152 51.2676 154.355 50.7852 154.609 50.1758C154.889 49.5664 155.219 48.7285 155.6 47.6621C155.65 48.8301 155.676 49.8076 155.676 50.5947C155.676 51.3564 155.688 51.9785 155.714 52.4609C155.714 53.0195 155.727 53.4639 155.752 53.7939V55.2412C155.752 55.7744 155.752 56.498 155.752 57.4121C155.777 58.3008 155.815 59.4307 155.866 60.8018C155.562 59.8623 155.282 59.126 155.028 58.5928C154.8 58.0342 154.597 57.6152 154.419 57.3359C154.216 57.0059 154.038 56.7773 153.886 56.6504C153.708 56.5996 153.467 56.5488 153.162 56.498C152.883 56.4727 152.527 56.46 152.096 56.46C151.689 56.46 151.169 56.5234 150.534 56.6504C150.458 58.0469 150.445 59.1768 150.496 60.04C150.572 60.8779 150.674 61.5254 150.801 61.9824C150.928 62.5156 151.08 62.8965 151.258 63.125C151.486 63.3535 151.943 63.5439 152.629 63.6963C153.314 63.8232 154.089 63.874 154.952 63.8486C155.841 63.7979 156.742 63.6455 157.656 63.3916C158.57 63.1377 159.383 62.7188 160.094 62.1348C160.627 61.6523 161.198 61.043 161.808 60.3066C162.315 59.6719 162.874 58.8721 163.483 57.9072C164.118 56.9424 164.74 55.7744 165.35 54.4033C165.248 55.5459 165.172 56.498 165.121 57.2598C165.096 57.9961 165.058 58.5928 165.007 59.0498C164.956 59.583 164.918 59.9893 164.893 60.2686C164.893 60.5732 164.854 61.0049 164.778 61.5635C164.728 62.0459 164.639 62.7061 164.512 63.5439C164.41 64.3564 164.271 65.3975 164.093 66.667C162.899 66.6924 161.77 66.7178 160.703 66.7432C159.637 66.7432 158.697 66.7559 157.885 66.7812C156.92 66.8066 156.031 66.832 155.219 66.8574C154.381 66.8574 153.454 66.8955 152.438 66.9717C151.55 67.0225 150.496 67.0986 149.277 67.2002C148.084 67.3018 146.764 67.4414 145.316 67.6191C145.443 65.8926 145.532 64.2676 145.583 62.7441C145.659 61.1953 145.71 59.8369 145.735 58.6689C145.761 57.2979 145.761 56.0283 145.735 54.8604C145.862 51.9404 145.812 49.5791 145.583 47.7764C145.354 45.9736 145.088 44.8184 144.783 44.3105C144.631 44.1328 144.415 43.917 144.136 43.6631C143.907 43.46 143.59 43.2188 143.184 42.9395C142.777 42.6602 142.27 42.3428 141.66 41.9873ZM166.872 35.2559C167.738 35.3014 168.513 35.3242 169.196 35.3242C169.925 35.2786 170.541 35.2331 171.042 35.1875C171.634 35.1419 172.159 35.0964 172.614 35.0508C173.298 34.9596 174.004 34.8457 174.733 34.709C175.371 34.6178 176.032 34.5039 176.716 34.3672C177.445 34.1849 178.151 33.9798 178.835 33.752C178.562 34.4355 178.334 35.028 178.151 35.5293C177.969 36.0306 177.832 36.4635 177.741 36.8281C177.604 37.2383 177.536 37.5801 177.536 37.8535C177.491 38.1725 177.468 38.5599 177.468 39.0156C177.422 39.7904 177.422 41.0436 177.468 42.7754C179.838 40.7246 181.82 39.1296 183.415 37.9902C185.056 36.8509 186.354 35.9622 187.312 35.3242C188.451 34.5951 189.34 34.1165 189.978 33.8887C191.664 33.6152 193.145 34.0026 194.421 35.0508C194.968 35.5065 195.492 36.1217 195.993 36.8965C196.494 37.6257 196.927 38.6055 197.292 39.8359C197.657 41.0664 197.93 42.5475 198.112 44.2793C198.295 45.9655 198.317 47.9935 198.181 50.3633C197.224 50.4544 196.358 50.5456 195.583 50.6367C194.854 50.7279 194.239 50.7962 193.737 50.8418C193.145 50.9329 192.598 50.9785 192.097 50.9785L190.251 51.1836C189.613 51.2747 188.815 51.3659 187.858 51.457C186.947 51.5026 185.83 51.5938 184.509 51.7305C186.423 50.181 187.653 48.8366 188.2 47.6973C188.793 46.5124 189.043 45.5326 188.952 44.7578C188.861 43.8919 188.451 43.14 187.722 42.502C186.856 42.0007 185.922 41.8184 184.919 41.9551C184.053 42.0462 183.05 42.4336 181.911 43.1172C180.772 43.8008 179.564 45.0768 178.288 46.9453C178.379 49.862 178.47 52.2773 178.562 54.1914C178.698 56.1055 178.812 57.6549 178.903 58.8398C179.04 60.207 179.154 61.278 179.245 62.0527C179.382 62.7363 179.655 63.4655 180.065 64.2402C180.384 64.8783 180.84 65.5846 181.433 66.3594C182.025 67.1341 182.8 67.9089 183.757 68.6836C181.752 68.5924 180.111 68.5924 178.835 68.6836C178.06 68.7292 177.377 68.7747 176.784 68.8203C176.146 68.9115 175.463 69.0026 174.733 69.0938C174.095 69.1849 173.343 69.276 172.478 69.3672C171.657 69.5039 170.746 69.6406 169.743 69.7773C170.108 69.276 170.404 68.6836 170.632 68C170.86 67.362 171.042 66.7467 171.179 66.1543C171.361 65.4707 171.498 64.7643 171.589 64.0352C171.634 63.3971 171.657 62.4401 171.657 61.1641C171.703 59.888 171.68 58.4525 171.589 56.8574C171.543 55.2168 171.475 53.5306 171.384 51.7988C171.293 50.0215 171.179 48.3581 171.042 46.8086C170.905 45.2591 170.746 43.9147 170.563 42.7754C170.427 41.5905 170.267 40.7702 170.085 40.3145C169.857 39.7676 169.584 39.2207 169.265 38.6738C168.991 38.1725 168.649 37.6484 168.239 37.1016C167.829 36.5091 167.373 35.8939 166.872 35.2559Z" fill="#3EE242"/>
<path d="M106.953 76.6816C107.161 76.7467 107.344 76.7956 107.5 76.8281C107.663 76.8607 107.803 76.8835 107.92 76.8965C108.05 76.916 108.171 76.9225 108.281 76.916C108.379 76.9095 108.477 76.8932 108.574 76.8672C108.659 76.8411 108.75 76.8053 108.848 76.7598C108.945 76.7142 109.036 76.6491 109.121 76.5645C109.069 76.7858 109.027 76.9681 108.994 77.1113C108.962 77.2546 108.939 77.3685 108.926 77.4531C108.906 77.5508 108.893 77.6257 108.887 77.6777C108.88 77.7298 108.867 77.8112 108.848 77.9219C108.835 78.013 108.815 78.1432 108.789 78.3125C108.77 78.4753 108.74 78.6868 108.701 78.9473C108.551 78.6543 108.402 78.4199 108.252 78.2441C108.109 78.0618 107.975 77.9154 107.852 77.8047C107.708 77.681 107.572 77.5866 107.441 77.5215C107.376 77.4954 107.311 77.4727 107.246 77.4531C107.194 77.4401 107.135 77.4303 107.07 77.4238C107.012 77.4108 106.966 77.4108 106.934 77.4238L106.924 78.8008C107.301 78.8398 107.614 78.8952 107.861 78.9668C108.109 79.0384 108.307 79.11 108.457 79.1816C108.626 79.2663 108.76 79.3574 108.857 79.4551C109.066 79.709 109.225 79.9238 109.336 80.0996C109.447 80.2754 109.492 80.4805 109.473 80.7148C109.466 80.832 109.434 80.9655 109.375 81.1152C109.316 81.2585 109.238 81.3984 109.141 81.5352C109.049 81.6719 108.942 81.7923 108.818 81.8965C108.695 81.9941 108.561 82.056 108.418 82.082C108.301 82.0951 108.177 82.1048 108.047 82.1113C107.936 82.1178 107.806 82.1178 107.656 82.1113C107.507 82.0983 107.35 82.0755 107.188 82.043C107.194 82.2188 107.204 82.3522 107.217 82.4434C107.223 82.4954 107.23 82.5378 107.236 82.5703C107.243 82.6029 107.253 82.6354 107.266 82.668C107.279 82.7005 107.292 82.7396 107.305 82.7852C107.318 82.8242 107.334 82.8698 107.354 82.9219L106.23 82.9316C106.27 82.8926 106.302 82.8568 106.328 82.8242C106.354 82.7852 106.374 82.7526 106.387 82.7266C106.406 82.7005 106.416 82.6745 106.416 82.6484C106.416 82.6224 106.419 82.5801 106.426 82.5215C106.426 82.4694 106.426 82.4043 106.426 82.3262C106.432 82.2415 106.436 82.1309 106.436 81.9941C106.266 81.9551 106.12 81.929 105.996 81.916C105.879 81.903 105.775 81.8965 105.684 81.8965C105.579 81.8965 105.492 81.9062 105.42 81.9258C105.355 81.9518 105.29 81.9779 105.225 82.0039C105.173 82.0299 105.114 82.0658 105.049 82.1113C104.99 82.1504 104.941 82.196 104.902 82.248C104.876 82.1243 104.857 82.0039 104.844 81.8867C104.837 81.7695 104.827 81.6621 104.814 81.5645C104.801 81.4538 104.792 81.3464 104.785 81.2422C104.785 81.1315 104.782 81.0111 104.775 80.8809C104.769 80.7702 104.762 80.6367 104.756 80.4805C104.756 80.3242 104.759 80.1517 104.766 79.9629C104.87 80.0866 104.961 80.2038 105.039 80.3145C105.124 80.4186 105.199 80.5098 105.264 80.5879C105.335 80.6855 105.4 80.7734 105.459 80.8516C105.531 80.9492 105.612 81.0339 105.703 81.1055C105.775 81.1641 105.863 81.2161 105.967 81.2617C106.071 81.3008 106.182 81.304 106.299 81.2715L106.25 79.5918C106.042 79.5788 105.859 79.5592 105.703 79.5332C105.553 79.5072 105.433 79.4779 105.342 79.4453C105.225 79.4128 105.133 79.3704 105.068 79.3184C104.984 79.2598 104.876 79.1751 104.746 79.0645C104.622 78.9538 104.508 78.8301 104.404 78.6934C104.307 78.5501 104.232 78.4004 104.18 78.2441C104.134 78.0814 104.15 77.9186 104.229 77.7559C104.307 77.5996 104.375 77.4661 104.434 77.3555C104.492 77.2383 104.554 77.1406 104.619 77.0625C104.691 76.9844 104.766 76.9193 104.844 76.8672C104.928 76.8151 105.033 76.7663 105.156 76.7207C105.215 76.7012 105.29 76.6816 105.381 76.6621C105.459 76.6491 105.56 76.6393 105.684 76.6328C105.807 76.6198 105.957 76.6133 106.133 76.6133C106.12 76.5612 106.11 76.5124 106.104 76.4668C106.097 76.4147 106.09 76.3691 106.084 76.3301C106.077 76.2845 106.071 76.2389 106.064 76.1934C106.064 76.1478 106.058 76.099 106.045 76.0469C106.032 76.0013 106.019 75.9557 106.006 75.9102C105.993 75.8581 105.977 75.806 105.957 75.7539L107.227 75.7734C107.174 75.8385 107.132 75.8971 107.1 75.9492C107.074 76.0013 107.051 76.0469 107.031 76.0859C107.005 76.1315 106.989 76.1738 106.982 76.2129C106.982 76.2454 106.979 76.2812 106.973 76.3203C106.966 76.3594 106.96 76.4082 106.953 76.4668C106.953 76.5189 106.953 76.5905 106.953 76.6816ZM105.439 78.2148C105.446 78.2995 105.479 78.3776 105.537 78.4492C105.589 78.5208 105.667 78.5924 105.771 78.6641C105.882 78.7357 106.042 78.7975 106.25 78.8496L106.182 77.5215C106.006 77.5215 105.869 77.5573 105.771 77.6289C105.674 77.7005 105.599 77.7819 105.547 77.873C105.488 77.9772 105.452 78.0911 105.439 78.2148ZM106.982 79.6895C106.989 79.9564 106.999 80.168 107.012 80.3242C107.018 80.4089 107.021 80.4837 107.021 80.5488C107.021 80.6139 107.025 80.6855 107.031 80.7637C107.038 80.8353 107.041 80.9232 107.041 81.0273C107.048 81.125 107.057 81.2389 107.07 81.3691C107.311 81.3366 107.497 81.2812 107.627 81.2031C107.757 81.125 107.858 81.0404 107.93 80.9492C108.001 80.8451 108.05 80.7344 108.076 80.6172C108.076 80.4219 108.04 80.2493 107.969 80.0996C107.904 79.9694 107.796 79.862 107.646 79.7773C107.497 79.6862 107.275 79.6569 106.982 79.6895ZM109.678 78.3711C109.827 78.3581 109.954 78.3451 110.059 78.332C110.169 78.319 110.26 78.306 110.332 78.293C110.417 78.2799 110.488 78.2669 110.547 78.2539C110.605 78.2474 110.671 78.2344 110.742 78.2148C110.807 78.2018 110.879 78.1855 110.957 78.166C111.042 78.14 111.133 78.1107 111.23 78.0781L111.172 79.3184C111.315 79.0905 111.481 78.918 111.67 78.8008C111.859 78.6771 112.038 78.5859 112.207 78.5273C112.409 78.4557 112.611 78.4134 112.812 78.4004C113.021 78.4069 113.213 78.4395 113.389 78.498C113.538 78.5501 113.688 78.6315 113.838 78.7422C113.994 78.8529 114.115 79.0156 114.199 79.2305C114.421 79.0026 114.639 78.8268 114.854 78.7031C115.075 78.5729 115.27 78.4753 115.439 78.4102C115.641 78.3385 115.83 78.2962 116.006 78.2832C116.24 78.2767 116.455 78.3158 116.65 78.4004C116.852 78.485 117.028 78.5924 117.178 78.7227C117.327 78.8464 117.448 78.9798 117.539 79.123C117.63 79.2598 117.682 79.3802 117.695 79.4844C117.715 79.6276 117.705 79.8132 117.666 80.041C117.627 80.2624 117.581 80.4902 117.529 80.7246C117.477 80.9525 117.428 81.1641 117.383 81.3594C117.344 81.5482 117.327 81.6816 117.334 81.7598C117.354 81.8249 117.399 81.903 117.471 81.9941C117.536 82.0723 117.63 82.1699 117.754 82.2871C117.884 82.3978 118.07 82.528 118.311 82.6777C118.102 82.6712 117.917 82.6647 117.754 82.6582C117.598 82.6517 117.464 82.6419 117.354 82.6289C117.223 82.6159 117.109 82.6061 117.012 82.5996C116.934 82.5996 116.839 82.5931 116.729 82.5801C116.637 82.5736 116.517 82.5638 116.367 82.5508C116.224 82.5378 116.058 82.5247 115.869 82.5117C115.941 82.4922 115.999 82.4564 116.045 82.4043C116.09 82.3457 116.13 82.2904 116.162 82.2383C116.195 82.1732 116.221 82.1016 116.24 82.0234C116.253 81.9583 116.266 81.8542 116.279 81.7109C116.292 81.5677 116.302 81.4049 116.309 81.2227C116.322 81.0404 116.328 80.8483 116.328 80.6465C116.335 80.4447 116.335 80.2526 116.328 80.0703C116.322 79.888 116.309 79.722 116.289 79.5723C116.27 79.4225 116.243 79.3086 116.211 79.2305C116.185 79.1719 116.139 79.1263 116.074 79.0938C116.009 79.0547 115.934 79.0319 115.85 79.0254C115.765 79.0124 115.68 79.0156 115.596 79.0352C115.511 79.0482 115.436 79.0742 115.371 79.1133C115.312 79.1589 115.234 79.2207 115.137 79.2988C115.052 79.3704 114.941 79.4681 114.805 79.5918C114.668 79.7155 114.495 79.8717 114.287 80.0605C114.268 80.4707 114.251 80.8027 114.238 81.0566C114.232 81.304 114.225 81.4928 114.219 81.623C114.212 81.7793 114.209 81.8867 114.209 81.9453C114.202 81.9974 114.206 82.0462 114.219 82.0918C114.232 82.1895 114.271 82.2806 114.336 82.3652C114.258 82.3457 114.173 82.3327 114.082 82.3262C113.997 82.3197 113.919 82.3132 113.848 82.3066C113.763 82.3001 113.678 82.2969 113.594 82.2969C113.522 82.2969 113.444 82.3001 113.359 82.3066C113.288 82.3132 113.2 82.3229 113.096 82.3359C112.992 82.3424 112.878 82.3522 112.754 82.3652C112.806 82.3327 112.848 82.2936 112.881 82.248C112.913 82.2025 112.939 82.1602 112.959 82.1211C112.985 82.0755 113.005 82.0332 113.018 81.9941C113.024 81.9551 113.037 81.8607 113.057 81.7109C113.076 81.5547 113.089 81.3724 113.096 81.1641C113.102 80.9557 113.102 80.7376 113.096 80.5098C113.089 80.2754 113.066 80.0638 113.027 79.875C112.988 79.6797 112.926 79.5202 112.842 79.3965C112.764 79.2728 112.66 79.2174 112.529 79.2305C112.373 79.2435 112.214 79.2826 112.051 79.3477C111.914 79.3997 111.768 79.4779 111.611 79.582C111.455 79.6862 111.309 79.8262 111.172 80.002C111.146 80.4902 111.13 80.8776 111.123 81.1641C111.123 81.4505 111.126 81.6686 111.133 81.8184C111.139 81.9941 111.146 82.1146 111.152 82.1797C111.159 82.2253 111.175 82.2708 111.201 82.3164C111.221 82.3555 111.243 82.401 111.27 82.4531C111.302 82.5052 111.338 82.554 111.377 82.5996L109.824 82.5215C109.876 82.4954 109.922 82.4629 109.961 82.4238C110 82.3783 110.033 82.3327 110.059 82.2871C110.085 82.235 110.111 82.1829 110.137 82.1309C110.156 82.0853 110.173 81.9779 110.186 81.8086C110.205 81.6393 110.221 81.4408 110.234 81.2129C110.247 80.9785 110.257 80.7344 110.264 80.4805C110.277 80.2201 110.283 79.9792 110.283 79.7578C110.29 79.5299 110.293 79.3379 110.293 79.1816C110.293 79.0189 110.29 78.9212 110.283 78.8887C110.264 78.8236 110.228 78.7552 110.176 78.6836C110.13 78.6315 110.068 78.5762 109.99 78.5176C109.912 78.4525 109.808 78.4036 109.678 78.3711ZM121.875 75.6367C122.227 75.6497 122.581 75.7148 122.939 75.832C123.304 75.9427 123.639 76.125 123.945 76.3789C124.251 76.6263 124.512 76.9486 124.727 77.3457C124.941 77.7363 125.075 78.2148 125.127 78.7812C125.173 79.2435 125.114 79.7025 124.951 80.1582C124.795 80.6074 124.577 81.0208 124.297 81.3984C124.017 81.776 123.695 82.0983 123.33 82.3652C122.965 82.6257 122.601 82.7982 122.236 82.8828C122.015 82.9349 121.771 82.9414 121.504 82.9023C121.243 82.8568 120.977 82.7754 120.703 82.6582C120.436 82.5345 120.173 82.3783 119.912 82.1895C119.658 82.0007 119.427 81.7858 119.219 81.5449C119.01 81.2975 118.835 81.0306 118.691 80.7441C118.555 80.4577 118.47 80.1582 118.438 79.8457C118.405 79.5853 118.402 79.2988 118.428 78.9863C118.46 78.6673 118.522 78.3516 118.613 78.0391C118.711 77.7201 118.844 77.4141 119.014 77.1211C119.189 76.8216 119.411 76.5612 119.678 76.3398C119.945 76.112 120.257 75.9362 120.615 75.8125C120.98 75.6823 121.4 75.6237 121.875 75.6367ZM120.127 79.5918C120.036 80.2884 120.101 80.8483 120.322 81.2715C120.55 81.6947 120.892 81.9518 121.348 82.043C121.569 82.0885 121.781 82.043 121.982 81.9062C122.191 81.763 122.38 81.5579 122.549 81.291C122.718 81.0241 122.865 80.7116 122.988 80.3535C123.112 79.9954 123.203 79.6211 123.262 79.2305C123.32 78.8398 123.324 78.4883 123.271 78.1758C123.226 77.8568 123.145 77.5866 123.027 77.3652C122.91 77.1374 122.767 76.9616 122.598 76.8379C122.435 76.7142 122.266 76.6458 122.09 76.6328C121.784 76.6133 121.517 76.6947 121.289 76.877C121.061 77.0527 120.869 77.2839 120.713 77.5703C120.557 77.8568 120.43 78.179 120.332 78.5371C120.241 78.8952 120.173 79.2467 120.127 79.5918ZM125.195 76.0762C125.488 76.1283 125.729 76.1641 125.918 76.1836C126.107 76.2031 126.26 76.2194 126.377 76.2324C126.514 76.2454 126.621 76.2487 126.699 76.2422H126.992C127.096 76.2422 127.227 76.2422 127.383 76.2422C127.546 76.2357 127.747 76.2324 127.988 76.2324C128.125 76.5514 128.249 76.8444 128.359 77.1113C128.477 77.3783 128.574 77.6061 128.652 77.7949C128.743 78.0228 128.828 78.2279 128.906 78.4102C128.997 78.638 129.095 78.8887 129.199 79.1621C129.303 79.4355 129.398 79.6927 129.482 79.9336C129.574 80.1745 129.648 80.373 129.707 80.5293C129.766 80.6855 129.795 80.7572 129.795 80.7441C129.795 80.7376 129.798 80.6725 129.805 80.5488C129.811 80.4186 129.818 80.2591 129.824 80.0703C129.831 79.875 129.837 79.6634 129.844 79.4355C129.857 79.2012 129.863 78.9766 129.863 78.7617C129.87 78.5404 129.873 78.3385 129.873 78.1562C129.873 77.974 129.867 77.8372 129.854 77.7461C129.834 77.6354 129.795 77.5085 129.736 77.3652C129.684 77.2415 129.613 77.0951 129.521 76.9258C129.43 76.75 129.303 76.5514 129.141 76.3301C129.408 76.3366 129.626 76.3398 129.795 76.3398C129.964 76.3398 130.101 76.3398 130.205 76.3398C130.322 76.3398 130.413 76.3366 130.479 76.3301C130.563 76.3301 130.667 76.3236 130.791 76.3105C130.902 76.2975 131.038 76.2878 131.201 76.2812C131.37 76.2682 131.579 76.252 131.826 76.2324C131.683 76.3626 131.569 76.4863 131.484 76.6035C131.4 76.7207 131.331 76.8249 131.279 76.916C131.221 77.0202 131.182 77.1178 131.162 77.209C131.136 77.3262 131.113 77.5182 131.094 77.7852C131.081 78.0456 131.064 78.3385 131.045 78.6641C131.032 78.9896 131.019 79.3281 131.006 79.6797C130.993 80.0312 130.98 80.3535 130.967 80.6465C130.967 80.8678 130.96 81.1055 130.947 81.3594C130.934 81.5742 130.921 81.8184 130.908 82.0918C130.895 82.3587 130.879 82.6289 130.859 82.9023L129.99 82.9219C129.736 82.4727 129.521 82.0885 129.346 81.7695C129.176 81.444 129.036 81.1771 128.926 80.9688C128.802 80.7279 128.698 80.526 128.613 80.3633C128.542 80.207 128.447 80.028 128.33 79.8262C128.232 79.6569 128.109 79.4486 127.959 79.2012C127.816 78.9538 127.643 78.6706 127.441 78.3516C127.422 78.8008 127.412 79.1849 127.412 79.5039C127.419 79.8164 127.428 80.0768 127.441 80.2852C127.461 80.526 127.484 80.7279 127.51 80.8906C127.542 81.0469 127.588 81.2227 127.646 81.418C127.699 81.5872 127.76 81.7858 127.832 82.0137C127.91 82.2415 128.005 82.4987 128.115 82.7852C127.731 82.7656 127.445 82.7559 127.256 82.7559H126.963C126.872 82.7559 126.748 82.7656 126.592 82.7852C126.462 82.7982 126.283 82.8177 126.055 82.8438C125.833 82.8698 125.557 82.9056 125.225 82.9512C125.381 82.7624 125.505 82.5898 125.596 82.4336C125.693 82.2708 125.768 82.1341 125.82 82.0234C125.885 81.8932 125.931 81.7793 125.957 81.6816C125.977 81.5775 125.99 81.3984 125.996 81.1445C126.003 80.8841 126.003 80.5911 125.996 80.2656C125.996 79.9336 125.99 79.5853 125.977 79.2207C125.97 78.8561 125.96 78.5176 125.947 78.2051C125.934 77.8926 125.918 77.6257 125.898 77.4043C125.885 77.1829 125.876 77.0462 125.869 76.9941C125.85 76.9095 125.811 76.8184 125.752 76.7207C125.7 76.6361 125.632 76.5417 125.547 76.4375C125.462 76.3268 125.345 76.2064 125.195 76.0762ZM131.279 76.3301C131.735 76.3431 132.113 76.3529 132.412 76.3594C132.718 76.3594 132.965 76.3594 133.154 76.3594H133.672H136.582C136.595 76.4896 136.605 76.6165 136.611 76.7402C136.624 76.8574 136.631 76.9616 136.631 77.0527C136.631 77.1634 136.628 77.2643 136.621 77.3555C136.615 77.4466 136.605 77.5443 136.592 77.6484C136.579 77.7396 136.566 77.8372 136.553 77.9414C136.54 78.0456 136.517 78.153 136.484 78.2637C136.393 77.9121 136.27 77.6452 136.113 77.4629C135.964 77.2806 135.811 77.1471 135.654 77.0625C135.472 76.9648 135.28 76.9128 135.078 76.9062C134.811 76.9193 134.603 76.9421 134.453 76.9746C134.303 77.0072 134.186 77.0527 134.102 77.1113C134.017 77.1699 133.952 77.2383 133.906 77.3164C133.867 77.388 133.825 77.4694 133.779 77.5605C133.74 77.6387 133.704 77.7591 133.672 77.9219C133.639 78.0586 133.607 78.2441 133.574 78.4785C133.548 78.7129 133.519 79.0156 133.486 79.3867C133.662 79.3346 133.802 79.2858 133.906 79.2402C134.017 79.1947 134.105 79.1556 134.17 79.123C134.242 79.084 134.294 79.0482 134.326 79.0156C134.352 78.9766 134.391 78.9049 134.443 78.8008C134.482 78.7096 134.535 78.5859 134.6 78.4297C134.671 78.2734 134.756 78.0586 134.854 77.7852C134.867 78.0846 134.873 78.3353 134.873 78.5371C134.873 78.7324 134.876 78.8919 134.883 79.0156C134.883 79.1589 134.886 79.2728 134.893 79.3574V79.7285C134.893 79.8652 134.893 80.0508 134.893 80.2852C134.899 80.513 134.909 80.8027 134.922 81.1543C134.844 80.9134 134.772 80.7246 134.707 80.5879C134.648 80.4447 134.596 80.3372 134.551 80.2656C134.499 80.181 134.453 80.1224 134.414 80.0898C134.368 80.0768 134.307 80.0638 134.229 80.0508C134.157 80.0443 134.066 80.041 133.955 80.041C133.851 80.041 133.717 80.0573 133.555 80.0898C133.535 80.4479 133.532 80.7376 133.545 80.959C133.564 81.1738 133.59 81.3398 133.623 81.457C133.656 81.5938 133.695 81.6914 133.74 81.75C133.799 81.8086 133.916 81.8574 134.092 81.8965C134.268 81.929 134.466 81.9421 134.688 81.9355C134.915 81.9225 135.146 81.8835 135.381 81.8184C135.615 81.7533 135.824 81.6458 136.006 81.4961C136.143 81.3724 136.289 81.2161 136.445 81.0273C136.576 80.8646 136.719 80.6595 136.875 80.4121C137.038 80.1647 137.197 79.8652 137.354 79.5137C137.327 79.8066 137.308 80.0508 137.295 80.2461C137.288 80.4349 137.279 80.5879 137.266 80.7051C137.253 80.8418 137.243 80.946 137.236 81.0176C137.236 81.0957 137.227 81.2064 137.207 81.3496C137.194 81.4733 137.171 81.6426 137.139 81.8574C137.113 82.0658 137.077 82.3327 137.031 82.6582C136.725 82.6647 136.436 82.6712 136.162 82.6777C135.889 82.6777 135.648 82.681 135.439 82.6875C135.192 82.694 134.964 82.7005 134.756 82.707C134.541 82.707 134.303 82.7168 134.043 82.7363C133.815 82.7493 133.545 82.7689 133.232 82.7949C132.926 82.821 132.588 82.8568 132.217 82.9023C132.249 82.4596 132.272 82.043 132.285 81.6523C132.305 81.2552 132.318 80.9069 132.324 80.6074C132.331 80.2559 132.331 79.9303 132.324 79.6309C132.357 78.8822 132.344 78.2767 132.285 77.8145C132.227 77.3522 132.158 77.056 132.08 76.9258C132.041 76.8802 131.986 76.8249 131.914 76.7598C131.855 76.7077 131.774 76.6458 131.67 76.5742C131.566 76.5026 131.436 76.4212 131.279 76.3301ZM137.305 75.8711C137.513 75.9036 137.702 75.9329 137.871 75.959C138.04 75.9785 138.187 75.9948 138.311 76.0078C138.454 76.0273 138.581 76.0436 138.691 76.0566C138.828 76.0762 139.033 76.0534 139.307 75.9883C139.58 75.9167 139.88 75.8516 140.205 75.793C140.537 75.7279 140.876 75.6921 141.221 75.6855C141.566 75.6725 141.882 75.7344 142.168 75.8711C142.454 76.0078 142.689 76.1445 142.871 76.2812C143.053 76.418 143.197 76.5645 143.301 76.7207C143.411 76.8704 143.49 77.0299 143.535 77.1992C143.581 77.3685 143.607 77.554 143.613 77.7559C143.607 78.0553 143.535 78.3451 143.398 78.625C143.34 78.7422 143.262 78.8659 143.164 78.9961C143.073 79.1198 142.959 79.2402 142.822 79.3574C142.686 79.4746 142.523 79.5853 142.334 79.6895C142.152 79.7936 141.937 79.8848 141.689 79.9629C141.93 80.0345 142.129 80.1191 142.285 80.2168C142.448 80.3145 142.578 80.4056 142.676 80.4902C142.793 80.5944 142.881 80.6953 142.939 80.793C143.011 80.9297 143.06 81.0469 143.086 81.1445C143.112 81.2422 143.128 81.3366 143.135 81.4277C143.148 81.5124 143.164 81.6003 143.184 81.6914C143.203 81.7826 143.245 81.8867 143.311 82.0039C143.363 82.0951 143.424 82.1895 143.496 82.2871C143.561 82.3717 143.636 82.4629 143.721 82.5605C143.812 82.6582 143.923 82.7526 144.053 82.8438C143.87 82.8503 143.701 82.8535 143.545 82.8535C143.395 82.8535 143.265 82.8535 143.154 82.8535C143.024 82.8535 142.9 82.8503 142.783 82.8438C142.666 82.8372 142.52 82.834 142.344 82.834C142.194 82.834 142.002 82.834 141.768 82.834C141.54 82.834 141.263 82.8372 140.938 82.8438C141.081 82.7331 141.198 82.6224 141.289 82.5117C141.38 82.401 141.452 82.3001 141.504 82.209C141.562 82.1048 141.605 82.0039 141.631 81.9062C141.663 81.7305 141.667 81.5482 141.641 81.3594C141.621 81.1966 141.569 81.0176 141.484 80.8223C141.4 80.6204 141.263 80.4186 141.074 80.2168C140.885 80.2493 140.726 80.2754 140.596 80.2949C140.472 80.3079 140.365 80.321 140.273 80.334C140.169 80.347 140.085 80.3568 140.02 80.3633C139.961 80.3698 139.896 80.3763 139.824 80.3828C139.766 80.3893 139.701 80.3991 139.629 80.4121C139.564 80.4186 139.502 80.4284 139.443 80.4414C139.43 80.7214 139.43 80.9655 139.443 81.1738C139.456 81.3757 139.473 81.5449 139.492 81.6816C139.518 81.8444 139.548 81.9844 139.58 82.1016C139.613 82.2188 139.658 82.3327 139.717 82.4434C139.762 82.5345 139.821 82.6322 139.893 82.7363C139.964 82.834 140.046 82.9154 140.137 82.9805C139.967 82.9805 139.805 82.9805 139.648 82.9805C139.499 82.9805 139.362 82.9772 139.238 82.9707C139.095 82.9707 138.958 82.9674 138.828 82.9609C138.698 82.9544 138.551 82.9512 138.389 82.9512C138.252 82.9512 138.089 82.9512 137.9 82.9512C137.718 82.9512 137.52 82.9544 137.305 82.9609C137.474 82.7852 137.607 82.6354 137.705 82.5117C137.803 82.388 137.878 82.2839 137.93 82.1992C137.988 82.1081 138.024 82.0299 138.037 81.9648C138.05 81.8607 138.06 81.6751 138.066 81.4082C138.079 81.1348 138.089 80.8223 138.096 80.4707C138.102 80.1191 138.105 79.7513 138.105 79.3672C138.105 78.9831 138.102 78.625 138.096 78.293C138.089 77.9544 138.083 77.6647 138.076 77.4238C138.07 77.1829 138.063 77.0299 138.057 76.9648C138.037 76.8477 137.995 76.7305 137.93 76.6133C137.878 76.5091 137.803 76.3919 137.705 76.2617C137.607 76.1315 137.474 76.0013 137.305 75.8711ZM140.996 79.3086C141.061 79.2695 141.117 79.2305 141.162 79.1914C141.208 79.1523 141.247 79.0905 141.279 79.0059C141.312 78.9147 141.338 78.7878 141.357 78.625C141.383 78.4622 141.413 78.2409 141.445 77.9609C141.471 77.681 141.452 77.4499 141.387 77.2676C141.328 77.0853 141.247 76.9421 141.143 76.8379C141.045 76.7272 140.934 76.6523 140.811 76.6133C140.693 76.5677 140.589 76.5449 140.498 76.5449C140.316 76.5449 140.137 76.6003 139.961 76.7109C139.785 76.8216 139.652 76.9714 139.561 77.1602C139.528 77.2448 139.499 77.3848 139.473 77.5801C139.453 77.7493 139.44 77.9837 139.434 78.2832C139.427 78.5827 139.437 78.9766 139.463 79.4648C139.71 79.5039 139.928 79.5202 140.117 79.5137C140.306 79.5007 140.465 79.4779 140.596 79.4453C140.752 79.4128 140.885 79.3672 140.996 79.3086ZM147.52 75.6367C147.871 75.6497 148.226 75.7148 148.584 75.832C148.949 75.9427 149.284 76.125 149.59 76.3789C149.896 76.6263 150.156 76.9486 150.371 77.3457C150.586 77.7363 150.719 78.2148 150.771 78.7812C150.817 79.2435 150.758 79.7025 150.596 80.1582C150.439 80.6074 150.221 81.0208 149.941 81.3984C149.661 81.776 149.339 82.0983 148.975 82.3652C148.61 82.6257 148.245 82.7982 147.881 82.8828C147.66 82.9349 147.415 82.9414 147.148 82.9023C146.888 82.8568 146.621 82.7754 146.348 82.6582C146.081 82.5345 145.817 82.3783 145.557 82.1895C145.303 82.0007 145.072 81.7858 144.863 81.5449C144.655 81.2975 144.479 81.0306 144.336 80.7441C144.199 80.4577 144.115 80.1582 144.082 79.8457C144.049 79.5853 144.046 79.2988 144.072 78.9863C144.105 78.6673 144.167 78.3516 144.258 78.0391C144.355 77.7201 144.489 77.4141 144.658 77.1211C144.834 76.8216 145.055 76.5612 145.322 76.3398C145.589 76.112 145.902 75.9362 146.26 75.8125C146.624 75.6823 147.044 75.6237 147.52 75.6367ZM145.771 79.5918C145.68 80.2884 145.745 80.8483 145.967 81.2715C146.195 81.6947 146.536 81.9518 146.992 82.043C147.214 82.0885 147.425 82.043 147.627 81.9062C147.835 81.763 148.024 81.5579 148.193 81.291C148.363 81.0241 148.509 80.7116 148.633 80.3535C148.757 79.9954 148.848 79.6211 148.906 79.2305C148.965 78.8398 148.968 78.4883 148.916 78.1758C148.87 77.8568 148.789 77.5866 148.672 77.3652C148.555 77.1374 148.411 76.9616 148.242 76.8379C148.079 76.7142 147.91 76.6458 147.734 76.6328C147.428 76.6133 147.161 76.6947 146.934 76.877C146.706 77.0527 146.514 77.2839 146.357 77.5703C146.201 77.8568 146.074 78.179 145.977 78.5371C145.885 78.8952 145.817 79.2467 145.771 79.5918Z" fill="#F9F301"/>
<path d="M113.855 14.5332C113.777 14.5202 113.68 14.5104 113.562 14.5039C113.452 14.4974 113.344 14.4941 113.24 14.4941C113.123 14.4941 112.999 14.4974 112.869 14.5039C112.732 14.5104 112.596 14.5169 112.459 14.5234C112.342 14.5299 112.208 14.5397 112.059 14.5527C111.915 14.5592 111.775 14.569 111.639 14.582C111.691 14.556 111.736 14.5202 111.775 14.4746C111.821 14.429 111.86 14.3835 111.893 14.3379C111.925 14.2858 111.954 14.2305 111.98 14.1719C112.013 14.0742 112.01 13.957 111.971 13.8203C111.932 13.6771 111.86 13.5469 111.756 13.4297C111.658 13.3125 111.531 13.2214 111.375 13.1562C111.225 13.0846 111.059 13.0684 110.877 13.1074C110.682 13.153 110.506 13.2214 110.35 13.3125C110.2 13.4036 110.073 13.5306 109.969 13.6934C109.871 13.8496 109.799 14.0449 109.754 14.2793C109.715 14.5072 109.705 14.7806 109.725 15.0996C109.751 15.4967 109.816 15.8125 109.92 16.0469C110.024 16.2812 110.151 16.457 110.301 16.5742C110.451 16.6914 110.613 16.763 110.789 16.7891C110.971 16.8086 111.15 16.8086 111.326 16.7891C111.45 16.763 111.564 16.7077 111.668 16.623C111.753 16.5514 111.831 16.4473 111.902 16.3105C111.974 16.1738 112.007 15.985 112 15.7441L113.191 15.6953C113.055 16.0794 112.889 16.3854 112.693 16.6133C112.498 16.8346 112.309 17.0072 112.127 17.1309C111.912 17.2741 111.697 17.3717 111.482 17.4238C111.215 17.4694 110.978 17.4889 110.77 17.4824C110.561 17.4694 110.372 17.4368 110.203 17.3848C110.034 17.3327 109.878 17.2676 109.734 17.1895C109.591 17.1113 109.454 17.0267 109.324 16.9355C109.24 16.877 109.145 16.7793 109.041 16.6426C108.937 16.5059 108.839 16.3431 108.748 16.1543C108.657 15.959 108.582 15.7441 108.523 15.5098C108.465 15.2754 108.442 15.0345 108.455 14.7871C108.468 14.5332 108.527 14.2793 108.631 14.0254C108.735 13.7715 108.901 13.5273 109.129 13.293C109.474 12.9414 109.842 12.7135 110.232 12.6094C110.63 12.4987 111.004 12.4694 111.355 12.5215C111.707 12.5671 112.02 12.668 112.293 12.8242C112.566 12.9805 112.758 13.1497 112.869 13.332C112.98 13.5143 113.061 13.6543 113.113 13.752C113.172 13.8431 113.214 13.9147 113.24 13.9668C113.273 14.0124 113.299 14.0482 113.318 14.0742C113.344 14.0938 113.38 14.123 113.426 14.1621C113.458 14.1947 113.497 14.2305 113.543 14.2695C113.582 14.3021 113.628 14.3411 113.68 14.3867C113.732 14.4323 113.79 14.4811 113.855 14.5332ZM113.758 10.9199C113.947 10.9525 114.113 10.9753 114.256 10.9883C114.406 11.0013 114.529 11.0111 114.627 11.0176C114.744 11.0241 114.845 11.0273 114.93 11.0273C115.014 11.0273 115.135 11.0208 115.291 11.0078C115.421 10.9948 115.59 10.9785 115.799 10.959C116.014 10.9395 116.277 10.9069 116.59 10.8613C116.499 10.8874 116.414 10.9622 116.336 11.0859C116.264 11.2031 116.199 11.3301 116.141 11.4668C116.069 11.6296 116.007 11.8086 115.955 12.0039C115.91 12.1797 115.851 12.4206 115.779 12.7266C115.714 13.0326 115.649 13.3646 115.584 13.7227C115.525 14.0807 115.48 14.4453 115.447 14.8164C115.415 15.181 115.408 15.5163 115.428 15.8223C115.454 16.1283 115.516 16.3822 115.613 16.584C115.711 16.7793 115.861 16.8835 116.062 16.8965C116.368 16.9225 116.622 16.9258 116.824 16.9062C117.033 16.8802 117.202 16.8444 117.332 16.7988C117.462 16.7533 117.563 16.7012 117.635 16.6426C117.706 16.5775 117.762 16.5156 117.801 16.457C117.905 16.3073 118.012 16.1152 118.123 15.8809C118.234 15.6465 118.331 15.4219 118.416 15.207C118.507 14.9922 118.582 14.8099 118.641 14.6602C118.699 14.5104 118.729 14.4388 118.729 14.4453C118.729 14.4583 118.725 14.5332 118.719 14.6699C118.719 14.8001 118.715 14.9596 118.709 15.1484C118.709 15.3307 118.706 15.5228 118.699 15.7246C118.699 15.9264 118.696 16.099 118.689 16.2422C118.683 16.3594 118.676 16.4896 118.67 16.6328C118.663 16.7565 118.657 16.903 118.65 17.0723C118.65 17.2415 118.644 17.4271 118.631 17.6289C118.357 17.6094 118.097 17.5964 117.85 17.5898C117.602 17.5833 117.384 17.5801 117.195 17.5801C116.974 17.5801 116.769 17.5833 116.58 17.5898C116.378 17.5964 116.144 17.6061 115.877 17.6191C115.649 17.6322 115.366 17.6484 115.027 17.668C114.689 17.681 114.298 17.7005 113.855 17.7266C113.908 17.6354 113.95 17.5508 113.982 17.4727C114.021 17.3945 114.051 17.3294 114.07 17.2773C114.096 17.2122 114.113 17.1569 114.119 17.1113C114.158 16.903 114.191 16.6393 114.217 16.3203C114.243 15.9948 114.262 15.6497 114.275 15.2852C114.295 14.9206 114.305 14.5495 114.305 14.1719C114.311 13.7878 114.311 13.4329 114.305 13.1074C114.298 12.7819 114.285 12.4987 114.266 12.2578C114.253 12.0169 114.233 11.8509 114.207 11.7598C114.174 11.6556 114.135 11.5514 114.09 11.4473C114.051 11.3561 114.002 11.265 113.943 11.1738C113.891 11.0762 113.829 10.9915 113.758 10.9199ZM119.275 13.6348L121.072 13.6543C120.968 14.0514 120.89 14.39 120.838 14.6699C120.792 14.9499 120.763 15.1842 120.75 15.373C120.724 15.5879 120.717 15.7702 120.73 15.9199C120.75 16.0566 120.783 16.2031 120.828 16.3594C120.867 16.4896 120.926 16.6393 121.004 16.8086C121.082 16.9779 121.186 17.1471 121.316 17.3164C121.238 17.2904 121.154 17.2708 121.062 17.2578C120.971 17.2448 120.887 17.235 120.809 17.2285C120.717 17.222 120.626 17.222 120.535 17.2285C120.444 17.235 120.343 17.2448 120.232 17.2578C120.141 17.2708 120.031 17.2871 119.9 17.3066C119.77 17.3262 119.633 17.3522 119.49 17.3848C119.588 17.0918 119.663 16.8379 119.715 16.623C119.773 16.4082 119.816 16.2292 119.842 16.0859C119.868 15.9167 119.884 15.7799 119.891 15.6758C119.891 15.5456 119.891 15.3991 119.891 15.2363C119.891 15.0671 119.891 14.9043 119.891 14.748C119.891 14.5918 119.887 14.4551 119.881 14.3379C119.874 14.2142 119.861 14.1361 119.842 14.1035L119.744 14.0059C119.705 13.9733 119.646 13.9277 119.568 13.8691C119.497 13.804 119.399 13.7259 119.275 13.6348ZM119.969 12.1309C120.105 12.0592 120.242 12.0397 120.379 12.0723C120.522 12.1048 120.633 12.1667 120.711 12.2578C120.789 12.349 120.815 12.4564 120.789 12.5801C120.77 12.7038 120.665 12.8242 120.477 12.9414C120.288 13.0521 120.122 13.0911 119.979 13.0586C119.835 13.026 119.734 12.9577 119.676 12.8535C119.617 12.7493 119.607 12.6289 119.646 12.4922C119.686 12.349 119.793 12.2285 119.969 12.1309ZM124.48 10.7832C124.708 10.7832 124.913 10.8223 125.096 10.9004C125.285 10.972 125.457 11.0534 125.613 11.1445C125.776 11.2357 125.929 11.3203 126.072 11.3984C126.215 11.4701 126.362 11.5059 126.512 11.5059C126.629 11.4993 126.762 11.4831 126.912 11.457C127.042 11.431 127.192 11.3919 127.361 11.3398C127.537 11.2812 127.732 11.1966 127.947 11.0859C127.732 11.2943 127.557 11.4701 127.42 11.6133C127.29 11.75 127.189 11.8639 127.117 11.9551C127.033 12.0592 126.971 12.1406 126.932 12.1992C126.893 12.2708 126.834 12.3783 126.756 12.5215C126.684 12.6517 126.587 12.8275 126.463 13.0488C126.339 13.2637 126.183 13.5469 125.994 13.8984C125.994 13.4492 125.949 13.1009 125.857 12.8535C125.773 12.6061 125.678 12.4173 125.574 12.2871C125.451 12.1374 125.311 12.043 125.154 12.0039C125.011 11.9844 124.868 12.0104 124.725 12.082C124.581 12.1471 124.438 12.2448 124.295 12.375C124.158 12.5052 124.025 12.6615 123.895 12.8438C123.771 13.0195 123.657 13.2051 123.553 13.4004C123.455 13.5957 123.374 13.7943 123.309 13.9961C123.243 14.1914 123.201 14.3737 123.182 14.543C123.162 14.6927 123.159 14.8685 123.172 15.0703C123.185 15.2656 123.214 15.4674 123.26 15.6758C123.305 15.8776 123.364 16.0762 123.436 16.2715C123.507 16.4668 123.595 16.6426 123.699 16.7988C123.81 16.9486 123.934 17.0723 124.07 17.1699C124.207 17.2611 124.363 17.3034 124.539 17.2969C124.734 17.2839 124.926 17.2253 125.115 17.1211C125.278 17.0365 125.444 16.9062 125.613 16.7305C125.783 16.5482 125.929 16.291 126.053 15.959L127.498 16.2227C127.081 16.7305 126.674 17.1113 126.277 17.3652C125.887 17.6191 125.535 17.7982 125.223 17.9023C124.858 18.0195 124.513 18.0749 124.188 18.0684C123.777 18.0228 123.393 17.8991 123.035 17.6973C122.677 17.4954 122.368 17.2513 122.107 16.9648C121.854 16.6719 121.655 16.3529 121.512 16.0078C121.368 15.6628 121.307 15.3242 121.326 14.9922C121.339 14.7708 121.385 14.5137 121.463 14.2207C121.541 13.9212 121.645 13.6152 121.775 13.3027C121.912 12.9902 122.075 12.6842 122.264 12.3848C122.452 12.0853 122.661 11.8184 122.889 11.584C123.117 11.3431 123.364 11.151 123.631 11.0078C123.904 10.8581 124.188 10.7832 124.48 10.7832ZM127.498 10.959C127.57 10.9915 127.654 11.0143 127.752 11.0273C127.856 11.0404 127.954 11.0469 128.045 11.0469C128.156 11.0469 128.27 11.0436 128.387 11.0371C128.504 11.0306 128.647 11.0176 128.816 10.998C128.953 10.985 129.122 10.9688 129.324 10.9492C129.526 10.9297 129.751 10.9036 129.998 10.8711C129.907 10.9167 129.829 10.9655 129.764 11.0176C129.699 11.0697 129.643 11.1217 129.598 11.1738C129.546 11.2324 129.503 11.291 129.471 11.3496C129.425 11.4277 129.363 11.5645 129.285 11.7598C129.214 11.9486 129.139 12.1602 129.061 12.3945C128.989 12.6289 128.924 12.8665 128.865 13.1074C128.813 13.3483 128.784 13.5534 128.777 13.7227C128.771 13.8659 128.764 14.0286 128.758 14.2109C128.751 14.3672 128.745 14.5592 128.738 14.7871C128.732 15.015 128.725 15.2754 128.719 15.5684C129.188 15.2298 129.549 14.9596 129.803 14.7578C130.057 14.5495 130.242 14.39 130.359 14.2793C130.496 14.1556 130.577 14.0677 130.604 14.0156C130.597 13.9766 130.581 13.9342 130.555 13.8887C130.522 13.8496 130.477 13.804 130.418 13.752C130.359 13.6999 130.271 13.6413 130.154 13.5762C130.324 13.5957 130.47 13.6087 130.594 13.6152C130.724 13.6217 130.835 13.6283 130.926 13.6348C131.03 13.6413 131.121 13.6413 131.199 13.6348C131.284 13.6348 131.388 13.6315 131.512 13.625C131.727 13.6185 132.059 13.6087 132.508 13.5957C132.072 13.8236 131.727 14.0189 131.473 14.1816C131.329 14.2728 131.202 14.3574 131.092 14.4355C130.981 14.5202 130.867 14.6081 130.75 14.6992C130.646 14.7773 130.525 14.8685 130.389 14.9727C130.258 15.0768 130.128 15.1875 129.998 15.3047C130.226 15.6758 130.424 15.9818 130.594 16.2227C130.77 16.4635 130.916 16.6589 131.033 16.8086C131.17 16.9844 131.29 17.1243 131.395 17.2285C131.499 17.3262 131.635 17.4368 131.805 17.5605C131.948 17.6712 132.133 17.8014 132.361 17.9512C132.596 18.0944 132.879 18.2604 133.211 18.4492C133.042 18.4167 132.879 18.3939 132.723 18.3809C132.566 18.3743 132.433 18.3743 132.322 18.3809C132.186 18.3874 132.062 18.4004 131.951 18.4199C131.834 18.446 131.704 18.4785 131.561 18.5176C131.437 18.5501 131.29 18.5924 131.121 18.6445C130.958 18.7031 130.779 18.778 130.584 18.8691C130.708 18.778 130.799 18.6901 130.857 18.6055C130.923 18.5273 130.968 18.4622 130.994 18.4102C131.02 18.3451 131.03 18.2897 131.023 18.2441C130.991 18.179 130.916 18.0456 130.799 17.8438C130.688 17.6745 130.525 17.4271 130.311 17.1016C130.096 16.776 129.79 16.3333 129.393 15.7734C129.373 15.7799 129.34 15.7995 129.295 15.832C129.256 15.8646 129.197 15.9102 129.119 15.9688C129.041 16.0208 128.937 16.099 128.807 16.2031L129.07 17.9121C129.012 17.9382 128.947 17.9609 128.875 17.9805C128.81 18 128.748 18.0163 128.689 18.0293C128.618 18.0488 128.546 18.0618 128.475 18.0684C128.403 18.0749 128.318 18.0879 128.221 18.1074C128.136 18.1204 128.035 18.1367 127.918 18.1562C127.801 18.1823 127.667 18.2116 127.518 18.2441C127.602 18.1855 127.671 18.1172 127.723 18.0391C127.775 17.9674 127.817 17.8991 127.85 17.834C127.882 17.7624 127.911 17.6875 127.938 17.6094C127.951 17.5443 127.964 17.375 127.977 17.1016C127.996 16.8281 128.012 16.5026 128.025 16.125C128.038 15.7409 128.048 15.3307 128.055 14.8945C128.068 14.4583 128.074 14.0482 128.074 13.6641C128.074 13.2734 128.071 12.9349 128.064 12.6484C128.058 12.3555 128.045 12.1667 128.025 12.082C127.993 11.9779 127.954 11.8672 127.908 11.75C127.869 11.6458 127.814 11.5286 127.742 11.3984C127.677 11.2617 127.596 11.1152 127.498 10.959ZM135.242 11.8477C135.438 11.8672 135.6 11.8835 135.73 11.8965C135.867 11.9095 135.978 11.9193 136.062 11.9258C136.16 11.9323 136.238 11.9355 136.297 11.9355C136.355 11.9421 136.434 11.9421 136.531 11.9355C136.616 11.929 136.727 11.9225 136.863 11.916C137 11.903 137.173 11.8835 137.381 11.8574C137.335 11.9225 137.299 11.9811 137.273 12.0332C137.247 12.0788 137.225 12.1211 137.205 12.1602L137.146 12.2773C137.133 12.3164 137.12 12.3555 137.107 12.3945C137.094 12.4271 137.081 12.4661 137.068 12.5117C137.062 12.5573 137.055 12.6061 137.049 12.6582H138.553L138.416 13.4492L137.039 13.3711C137.007 13.7031 136.984 13.9603 136.971 14.1426C136.958 14.3249 136.945 14.4583 136.932 14.543L136.912 14.7188C136.893 14.9661 136.873 15.2363 136.854 15.5293C136.834 15.8158 136.827 16.0827 136.834 16.3301C136.84 16.5775 136.863 16.7858 136.902 16.9551C136.941 17.1178 137.01 17.1992 137.107 17.1992C137.205 17.1992 137.296 17.1732 137.381 17.1211C137.465 17.069 137.537 17.0072 137.596 16.9355C137.661 16.8639 137.71 16.7923 137.742 16.7207C137.775 16.6426 137.791 16.584 137.791 16.5449C137.791 16.5059 137.781 16.4603 137.762 16.4082C137.729 16.3105 137.671 16.1868 137.586 16.0371C137.775 16.0827 137.941 16.1283 138.084 16.1738C138.156 16.1999 138.221 16.2259 138.279 16.252C138.344 16.278 138.419 16.3073 138.504 16.3398C138.576 16.3724 138.667 16.4115 138.777 16.457C138.888 16.5026 139.018 16.5579 139.168 16.623C139.025 16.6491 138.921 16.6914 138.855 16.75C138.816 16.776 138.787 16.8053 138.768 16.8379C138.722 16.9095 138.67 17.0072 138.611 17.1309C138.553 17.248 138.465 17.3652 138.348 17.4824C138.23 17.5996 138.071 17.7038 137.869 17.7949C137.674 17.8861 137.41 17.9382 137.078 17.9512C136.733 17.9642 136.469 17.9056 136.287 17.7754C136.111 17.6452 135.981 17.4954 135.896 17.3262C135.818 17.1504 135.773 16.9779 135.76 16.8086C135.747 16.6393 135.737 16.5254 135.73 16.4668C135.724 16.4082 135.724 16.2617 135.73 16.0273C135.737 15.793 135.747 15.5358 135.76 15.2559C135.773 14.9694 135.786 14.696 135.799 14.4355C135.812 14.1686 135.818 13.9733 135.818 13.8496C135.818 13.7845 135.822 13.7161 135.828 13.6445C135.828 13.5859 135.828 13.5241 135.828 13.459C135.835 13.3874 135.838 13.319 135.838 13.2539L134.422 13.2441L134.363 12.6875L135.789 12.7266C135.776 12.6549 135.76 12.5898 135.74 12.5312C135.727 12.4661 135.714 12.4141 135.701 12.375C135.682 12.3294 135.662 12.2904 135.643 12.2578C135.617 12.2253 135.587 12.1895 135.555 12.1504C135.522 12.1178 135.48 12.0755 135.428 12.0234C135.376 11.9714 135.314 11.9128 135.242 11.8477ZM142.283 10.6367C142.635 10.6497 142.99 10.7148 143.348 10.832C143.712 10.9427 144.048 11.125 144.354 11.3789C144.66 11.6263 144.92 11.9486 145.135 12.3457C145.35 12.7363 145.483 13.2148 145.535 13.7812C145.581 14.2435 145.522 14.7025 145.359 15.1582C145.203 15.6074 144.985 16.0208 144.705 16.3984C144.425 16.776 144.103 17.0983 143.738 17.3652C143.374 17.6257 143.009 17.7982 142.645 17.8828C142.423 17.9349 142.179 17.9414 141.912 17.9023C141.652 17.8568 141.385 17.7754 141.111 17.6582C140.844 17.5345 140.581 17.3783 140.32 17.1895C140.066 17.0007 139.835 16.7858 139.627 16.5449C139.419 16.2975 139.243 16.0306 139.1 15.7441C138.963 15.4577 138.878 15.1582 138.846 14.8457C138.813 14.5853 138.81 14.2988 138.836 13.9863C138.868 13.6673 138.93 13.3516 139.021 13.0391C139.119 12.7201 139.253 12.4141 139.422 12.1211C139.598 11.8216 139.819 11.5612 140.086 11.3398C140.353 11.112 140.665 10.9362 141.023 10.8125C141.388 10.6823 141.808 10.6237 142.283 10.6367ZM140.535 14.5918C140.444 15.2884 140.509 15.8483 140.73 16.2715C140.958 16.6947 141.3 16.9518 141.756 17.043C141.977 17.0885 142.189 17.043 142.391 16.9062C142.599 16.763 142.788 16.5579 142.957 16.291C143.126 16.0241 143.273 15.7116 143.396 15.3535C143.52 14.9954 143.611 14.6211 143.67 14.2305C143.729 13.8398 143.732 13.4883 143.68 13.1758C143.634 12.8568 143.553 12.5866 143.436 12.3652C143.318 12.1374 143.175 11.9616 143.006 11.8379C142.843 11.7142 142.674 11.6458 142.498 11.6328C142.192 11.6133 141.925 11.6947 141.697 11.877C141.469 12.0527 141.277 12.2839 141.121 12.5703C140.965 12.8568 140.838 13.179 140.74 13.5371C140.649 13.8952 140.581 14.2467 140.535 14.5918Z" fill="#E9000B"/>
</svg>
