<svg width="271" height="168" viewBox="0 0 271 168" fill="none" xmlns="http://www.w3.org/2000/svg">
<rect x="0.641254" y="80.4812" width="254" height="91" rx="30.5" transform="rotate(-18.2163 0.641254 80.4812)" fill="#3EE242" stroke="black"/>
<path d="M65.3122 116.269C66.0048 116.041 66.6235 115.756 67.1683 115.412C67.6224 115.125 68.0272 114.773 68.383 114.354C68.7553 113.903 68.922 113.368 68.8832 112.75C69.4105 112.686 69.8595 112.634 70.2302 112.595C70.5928 112.53 70.9059 112.482 71.1696 112.45C71.4661 112.435 71.7174 112.407 71.9234 112.366C72.1376 112.351 72.3889 112.323 72.6773 112.283C72.9409 112.251 73.2581 112.215 73.6288 112.175C74.0162 112.103 74.4735 112.034 75.0008 111.971C74.6134 112.043 74.2422 112.206 73.8871 112.46C73.5568 112.706 73.2429 112.96 72.9454 113.223C72.6066 113.526 72.3048 113.858 72.0399 114.22C71.8661 114.441 71.6796 114.75 71.4805 115.144C71.3061 115.53 71.0039 115.945 70.574 116.388C70.1441 116.831 69.5288 117.294 68.7281 117.777C67.9441 118.227 66.876 118.647 65.524 119.037C63.8998 119.517 62.458 119.676 61.1987 119.515C59.9312 119.329 58.8373 118.962 57.917 118.415C56.9886 117.843 56.2254 117.149 55.6274 116.331C55.0293 115.514 54.5877 114.713 54.3025 113.93C54.0172 113.146 53.9795 112.24 54.1893 111.212C54.3991 110.183 54.8312 109.164 55.4857 108.153C56.1648 107.135 57.0743 106.191 58.2141 105.322C59.3457 104.429 60.6783 103.73 62.212 103.225C63.1025 102.932 63.9555 102.775 64.7708 102.753C65.6028 102.699 66.3849 102.743 67.1173 102.886C67.8745 103.021 68.5613 103.233 69.1778 103.524C69.7862 103.79 70.3244 104.092 70.7925 104.432C71.2688 104.796 71.7037 105.201 72.0973 105.647C72.4417 106.027 72.7694 106.482 73.0803 107.01C73.3912 107.538 73.6196 108.107 73.7656 108.717C71.9019 109.385 70.3928 109.923 69.2383 110.33C68.1086 110.73 67.2221 111.035 66.579 111.247L64.9092 111.796L63.6477 112.211C63.2024 112.358 62.6252 112.562 61.916 112.822C61.2067 113.083 60.3408 113.409 59.3182 113.801C59.7675 114.749 60.329 115.414 61.0029 115.796C61.6933 116.144 62.3677 116.361 63.0262 116.446C63.7671 116.531 64.5291 116.472 65.3122 116.269ZM59.7747 110.69C60.5826 110.478 61.2503 110.3 61.7779 110.154C62.3303 109.999 62.7837 109.877 63.1381 109.788C63.5173 109.691 63.8182 109.606 64.0408 109.532L64.9685 109.227C65.5869 109.023 66.7249 108.608 68.3826 107.98C67.9502 106.916 67.4425 106.165 66.8594 105.726C66.3012 105.279 65.767 104.989 65.2569 104.855C64.6645 104.721 64.0633 104.727 63.4533 104.873C61.8536 105.427 60.7638 106.156 60.1839 107.059C59.6287 107.955 59.4923 109.165 59.7747 110.69ZM75.8197 91.5916C77.081 91.2588 78.1402 90.9787 78.9976 90.7514C79.8715 90.4912 80.597 90.2799 81.1741 90.1174C81.8254 89.9305 82.3696 89.7514 82.8067 89.5801C83.2438 89.4088 83.8295 89.1475 84.5638 88.7962C85.1825 88.5104 85.9993 88.1182 87.0141 87.6197C88.0455 87.0884 89.3204 86.4221 90.8387 85.6208C90.457 86.377 90.1827 87.043 90.0158 87.6188C89.8655 88.1618 89.7567 88.6225 89.6894 89.0011C89.6217 89.462 89.5956 89.8407 89.6109 90.1372C89.6428 90.4009 89.8958 91.003 90.3699 91.9436C90.8439 92.8842 91.4409 93.99 92.1607 95.261C92.8724 96.5072 93.6414 97.8443 94.4677 99.2721C95.2859 100.675 96.0756 101.992 96.8367 103.222C97.5898 104.427 98.2446 105.459 98.8014 106.317C99.3747 107.143 99.7517 107.622 99.9323 107.755C100.474 108.152 100.823 108.421 100.979 108.561C101.127 108.677 101.345 108.756 101.633 108.799C101.748 108.816 101.933 108.837 102.189 108.863C102.419 108.896 102.72 108.935 103.09 108.977C103.485 109.012 103.975 109.042 104.56 109.069C103.611 109.436 102.795 109.746 102.11 109.999C101.418 110.227 100.853 110.426 100.416 110.598C99.9043 110.793 99.4671 110.965 99.1042 111.111C98.7332 111.233 98.2961 111.405 97.7929 111.625C97.3639 111.821 96.7989 112.062 96.0978 112.348C95.4215 112.625 94.6214 112.943 93.6977 113.302C94.0785 112.793 94.3725 112.353 94.5798 111.983C94.8037 111.581 94.9696 111.252 95.0777 110.997C95.1942 110.685 95.2569 110.417 95.266 110.195C95.2422 109.956 95.1694 109.61 95.0476 109.156C94.9421 108.753 94.7712 108.233 94.5348 107.598C94.2902 106.938 93.9435 106.093 93.4945 105.062L84.0656 109.275C83.9566 109.777 83.8932 110.209 83.8754 110.571C83.8494 110.909 83.8483 111.197 83.8721 111.436C83.8874 111.733 83.9359 111.963 84.0177 112.128C84.1323 112.31 84.2962 112.517 84.5094 112.748C84.7145 112.955 84.9853 113.194 85.3219 113.468C85.6751 113.708 86.16 113.973 86.7765 114.264C86.15 114.442 85.5151 114.638 84.872 114.849C84.2288 115.061 83.6392 115.269 83.1031 115.473C82.4681 115.709 81.8455 115.941 81.2352 116.17C80.625 116.398 79.9322 116.667 79.1569 116.977C78.5053 117.246 77.7464 117.564 76.8803 117.932C75.9814 118.282 75.0287 118.678 74.0223 119.119C74.5678 118.611 75.0143 118.135 75.3619 117.691C75.7013 117.223 75.9747 116.804 76.1819 116.434C76.4306 116.024 76.6338 115.641 76.7916 115.288C76.8834 114.984 77.0424 114.301 77.2688 113.239C77.4871 112.153 77.7143 110.886 77.9504 109.437C78.2112 107.98 78.4683 106.429 78.7217 104.783C78.9997 103.129 79.2321 101.586 79.4187 100.153C79.5972 98.6965 79.7214 97.4494 79.7912 96.412C79.8611 95.3746 79.8512 94.7199 79.7617 94.4478C79.6064 94.1425 79.3647 93.8245 79.0365 93.4939C78.7494 93.2046 78.347 92.8983 77.8294 92.5752C77.3366 92.2439 76.6667 91.916 75.8197 91.5916ZM92.1456 102.463C91.7122 101.646 91.332 100.948 91.0048 100.371C90.6694 99.7682 90.3955 99.2689 90.1829 98.8728C89.9211 98.4106 89.7044 98.0022 89.5328 97.6474C89.3447 97.3255 89.1115 96.9087 88.8335 96.3971C88.5799 95.9597 88.2649 95.4191 87.8885 94.7753C87.5288 94.0986 87.0871 93.2981 86.5636 92.3738C86.0817 95.6578 85.7013 98.2092 85.4226 100.028C85.1605 101.814 84.9744 103.123 84.8641 103.954C84.7204 104.934 84.6482 105.506 84.6476 105.67L92.1456 102.463ZM92.8715 83.8004C94.594 83.4528 96.0775 83.1291 97.3222 82.8291C98.5587 82.5045 99.5809 82.2366 100.389 82.0256C101.32 81.7738 102.091 81.5338 102.701 81.3056C103.336 81.0692 104.194 80.7183 105.275 80.2531C106.19 79.8695 107.395 79.3635 108.888 78.7351C110.372 78.082 112.224 77.2532 114.444 76.2487C114.655 76.8095 114.851 77.362 115.03 77.9062C115.226 78.4175 115.401 78.867 115.556 79.2547C115.736 79.7165 115.89 80.1453 116.021 80.5411C116.159 80.9616 116.309 81.5016 116.471 82.1611C116.601 82.7215 116.742 83.4427 116.896 84.3244C117.065 85.1733 117.226 86.2033 117.378 87.4144C116.592 86.1926 115.904 85.2265 115.314 84.516C114.715 83.7808 114.199 83.2106 113.764 82.8054C113.28 82.3342 112.84 81.999 112.446 81.7998C112.051 81.683 111.607 81.6237 111.112 81.6218C110.676 81.6284 110.136 81.6963 109.493 81.8256C108.875 81.9468 108.174 82.1912 107.391 82.5587C108.342 85.8647 109.126 88.54 109.744 90.5847C110.362 92.6293 110.846 94.2247 111.196 95.3707C111.619 96.7394 111.928 97.7205 112.123 98.3142C112.425 99.1471 112.834 99.931 113.35 100.666C113.776 101.293 114.333 101.905 115.023 102.5C115.712 103.096 116.571 103.54 117.599 103.832L113.073 105.322C112.652 105.46 112.141 105.656 111.539 105.909C111.035 106.129 110.384 106.399 109.584 106.717C108.808 107.027 107.909 107.419 106.886 107.892C107.046 107.127 107.151 106.448 107.203 105.855C107.255 105.263 107.281 104.76 107.283 104.349C107.285 103.854 107.266 103.422 107.226 103.051C107.088 102.548 106.82 101.526 106.422 99.9848C106.244 99.3582 106.016 98.5832 105.74 97.6598C105.488 96.7283 105.179 95.6236 104.813 94.3458C104.472 93.0598 104.058 91.5923 103.57 89.9435C103.099 88.2617 102.559 86.3697 101.949 84.2674C101.463 84.2902 101.047 84.441 100.7 84.7196C100.345 84.9736 100.051 85.2483 99.8194 85.5439C99.5545 85.9053 99.3183 86.312 99.1107 86.7641C98.9275 87.2905 98.7479 87.9527 98.5719 88.7509C98.4129 89.4338 98.2654 90.3185 98.1295 91.405C97.9854 92.4668 97.8528 93.7716 97.7316 95.3193C97.1357 93.9253 96.6625 92.7788 96.3118 91.8798C95.953 90.9561 95.6757 90.2386 95.48 89.7273C95.2518 89.117 95.0888 88.6635 94.9911 88.3666C94.9016 88.0945 94.7588 87.744 94.5628 87.315C94.3912 86.9602 94.1706 86.4982 93.901 85.929C93.6233 85.335 93.2801 84.6254 92.8715 83.8004ZM126.682 73.8249C127.3 73.786 127.856 73.7264 128.35 73.6459C128.861 73.5326 129.294 73.4313 129.648 73.3421C130.077 73.2284 130.465 73.1146 130.811 73.0006C131.157 72.8867 131.582 72.7195 132.085 72.499C132.976 72.1236 134.214 71.5107 135.798 70.6603C135.591 70.9477 135.396 71.2311 135.214 71.5104C135.049 71.7568 134.908 71.9951 134.791 72.2253L134.418 72.965C134.243 73.5161 134.17 74.3764 134.198 75.5459C134.227 76.5507 134.354 77.9347 134.578 79.6978C134.826 81.4529 135.279 83.744 135.935 86.5711C136.756 84.9849 137.601 83.7199 138.469 82.7762C139.354 81.7996 140.16 81.0409 140.887 80.5001C141.754 79.8858 142.579 79.436 143.363 79.1508C144.401 78.8912 145.348 78.8125 146.205 78.9146C147.077 78.9838 147.851 79.1679 148.525 79.467C149.216 79.7331 149.803 80.0606 150.287 80.4496C150.788 80.8056 151.187 81.1406 151.482 81.4547C151.662 81.6695 151.887 82.1027 152.156 82.7543C152.442 83.373 152.699 84.111 152.926 84.9684C153.153 85.8257 153.31 86.761 153.397 87.7742C153.5 88.7546 153.447 89.7179 153.238 90.6642C153.045 91.5775 152.663 92.4161 152.092 93.1798C151.545 93.9353 150.736 94.5169 149.664 94.9246C148.402 95.3398 147.129 95.5943 145.844 95.6882C144.748 95.7746 143.53 95.6959 142.189 95.4519C140.864 95.1751 139.61 94.5733 138.428 93.6464C138.526 93.9433 138.623 94.2401 138.721 94.5369C138.81 94.809 138.9 95.04 138.99 95.2297C139.104 95.4937 139.206 95.7205 139.296 95.9103C139.394 96.1248 139.533 96.3394 139.714 96.5542C139.853 96.7277 140.046 96.9384 140.292 97.1864C140.555 97.4015 140.867 97.6004 141.229 97.7829C140.948 97.8477 140.672 97.9249 140.4 98.0145C140.12 98.0793 139.848 98.1688 139.584 98.2831C139.295 98.4055 139.006 98.528 138.718 98.6504C138.429 98.7728 138.132 98.9117 137.827 99.067C137.571 99.206 137.27 99.3737 136.923 99.57C136.576 99.7663 136.221 99.9791 135.858 100.208C135.859 99.9612 135.815 99.6193 135.726 99.1825C135.629 98.721 135.52 98.2223 135.398 97.6866C135.294 97.1179 135.156 96.5327 134.985 95.9309C134.839 95.3209 134.693 94.711 134.547 94.101C134.199 92.7079 133.797 91.1953 133.342 89.563C132.594 87.0402 131.841 84.7108 131.083 82.575C130.757 81.6679 130.403 80.7566 130.019 79.841C129.66 78.9173 129.297 78.0636 128.929 77.2799C128.554 76.4714 128.173 75.7741 127.789 75.1879C127.42 74.5688 127.051 74.1145 126.682 73.8249ZM137.452 90.3075C138.084 90.8946 138.708 91.3746 139.325 91.7475C139.933 92.0957 140.516 92.3697 141.075 92.5695C141.635 92.7693 142.157 92.8989 142.643 92.9584C143.153 93.0098 143.623 93.0198 144.051 92.9885C145.048 92.9346 145.959 92.6622 146.784 92.1713C147.593 91.6308 148.123 90.9082 148.373 90.0033C148.624 89.0984 148.731 88.1311 148.693 87.1016C148.67 86.6156 148.557 86.0223 148.354 85.3215C148.176 84.6126 147.882 83.9691 147.472 83.3911C147.079 82.7802 146.566 82.3047 145.934 81.9647C145.293 81.5999 144.511 81.5145 143.587 81.7087C142.969 81.9122 142.309 82.3214 141.606 82.9364C140.987 83.4693 140.296 84.2449 139.535 85.2631C138.765 86.2567 137.969 87.6289 137.147 89.3798L137.452 90.3075ZM155.206 76.6513C155.281 76.4622 155.265 76.1657 155.16 75.7618C155.071 75.3249 155.015 74.8224 154.993 74.2541C154.995 73.6776 155.1 73.0398 155.309 72.3406C155.517 71.6414 155.986 70.8979 156.713 70.1101C157.416 69.3305 158.16 68.7568 158.943 68.3893C159.727 68.0217 160.519 67.8023 161.318 67.7313C162.117 67.6602 162.899 67.7044 163.664 67.8637C164.454 68.015 165.194 68.2237 165.885 68.4899C166.354 68.6646 166.793 68.9998 167.203 69.4955C167.605 69.9664 167.982 70.5278 168.333 71.1797C168.685 71.8317 169.011 72.5329 169.313 73.2835C169.632 74.0011 169.921 74.7146 170.182 75.4238C170.435 76.1083 170.659 76.7474 170.854 77.341C171.066 77.9018 171.27 78.3555 171.467 78.7022C171.745 79.2138 172.073 79.6268 172.45 79.9412C172.82 80.2308 173.198 80.4629 173.584 80.6373C173.962 80.787 174.324 80.8872 174.67 80.9379C175.016 80.9886 175.312 81.0145 175.559 81.0154C175.732 81.0408 175.884 81.0455 176.016 81.0295C176.296 81.047 176.469 80.99 176.535 80.8585C176.501 81.2537 176.463 81.5953 176.42 81.8834C176.378 82.1714 176.348 82.4143 176.331 82.6118C176.297 82.8423 176.264 83.0316 176.23 83.1797C176.205 83.3525 176.163 83.5171 176.105 83.6733C176.071 83.8214 176.017 83.99 175.942 84.1792C175.867 84.3683 175.797 84.5698 175.73 84.7836C175.368 84.7658 175.01 84.7191 174.656 84.6437C174.327 84.56 174.026 84.4807 173.755 84.4055C173.426 84.3219 173.121 84.2302 172.842 84.1303C172.562 84.0304 172.287 83.9017 172.016 83.7442C171.777 83.6033 171.523 83.4541 171.252 83.2966C171.005 83.1309 170.775 82.9324 170.562 82.701C170.519 83.0714 170.311 83.6471 169.938 84.428C169.589 85.2008 169.051 85.9811 168.323 86.7689C167.587 87.5319 166.658 88.2078 165.536 88.7964C164.438 89.3769 163.107 89.6642 161.543 89.6582C160.859 89.6639 160.184 89.5707 159.518 89.3787C158.843 89.1621 158.219 88.8467 157.644 88.4328C157.094 88.0107 156.618 87.4818 156.217 86.8462C155.833 86.1777 155.584 85.382 155.473 84.4593C155.361 83.5365 155.43 82.705 155.68 81.9648C155.93 81.2246 156.303 80.5672 156.799 79.9926C157.295 79.4181 157.894 78.9057 158.596 78.4554C159.298 78.0052 160.045 77.6086 160.837 77.2657C161.472 77.0293 162.127 76.8548 162.803 76.7421C163.379 76.6619 164.009 76.6602 164.693 76.7369C165.368 76.7889 166.001 77.0055 166.592 77.3865C166.136 76.0836 165.745 75.061 165.418 74.3186C165.108 73.5433 164.859 72.9535 164.671 72.5493C164.41 72.0871 164.209 71.7693 164.07 71.5958C163.889 71.4634 163.688 71.3103 163.466 71.1365C163.269 70.9545 163.043 70.8096 162.789 70.7015C162.526 70.5688 162.225 70.4894 161.888 70.4634C161.55 70.4374 161.188 70.5019 160.8 70.6569C160.388 70.82 160.09 71.0412 159.908 71.3205C159.726 71.5998 159.605 71.9 159.546 72.2209C159.504 72.509 159.519 72.8055 159.592 73.1105C159.665 73.4155 159.763 73.6711 159.886 73.8775C159.984 74.0096 160.111 74.146 160.267 74.2866C160.415 74.4024 160.604 74.5184 160.834 74.6346C161.064 74.7508 161.348 74.8219 161.686 74.8478C161.141 75.1093 160.654 75.338 160.225 75.534C159.788 75.7053 159.417 75.8686 159.112 76.0239C158.757 76.1955 158.448 76.3384 158.184 76.4527C157.92 76.567 157.615 76.7223 157.268 76.9186C156.963 77.0739 156.587 77.266 156.142 77.4949C155.696 77.7238 155.184 78.0018 154.607 78.329C154.698 78.107 154.781 77.9014 154.856 77.7123C154.923 77.4985 154.985 77.3134 155.043 77.1572C155.094 76.9762 155.148 76.8076 155.206 76.6513ZM162.225 79.2351C161.788 79.4064 161.379 79.6642 160.999 80.0087C160.611 80.3284 160.3 80.7183 160.068 81.1786C159.828 81.6142 159.657 82.0953 159.556 82.6219C159.472 83.1157 159.515 83.6224 159.686 84.1418C159.857 84.6613 160.131 85.0782 160.509 85.3926C160.903 85.6741 161.351 85.8693 161.853 85.9783C162.38 86.0791 162.899 86.0729 163.41 85.9595C163.945 85.8381 164.436 85.6217 164.882 85.3105C165.295 84.9826 165.651 84.564 165.949 84.0546C166.24 83.5204 166.46 82.9818 166.61 82.4389C166.752 81.8712 166.812 81.3444 166.789 80.8584C166.758 80.3477 166.644 79.9602 166.448 79.6959C166.038 79.1179 165.446 78.8192 164.672 78.7998C163.89 78.7556 163.074 78.9007 162.225 79.2351ZM167.932 59.7149C168.789 59.6523 169.592 59.5524 170.342 59.4153C171.092 59.2781 171.747 59.1447 172.308 59.0151C172.975 58.8777 173.577 58.707 174.113 58.5032C174.806 58.2753 175.651 57.9285 176.649 57.4629C177.672 56.9892 178.724 56.5196 179.805 56.0544C180.877 55.5644 181.916 55.1401 182.923 54.7816C183.945 54.3902 184.807 54.1753 185.507 54.1367C186.199 54.0735 186.932 54.0928 187.705 54.1946C188.496 54.2634 189.253 54.4393 189.976 54.722C190.692 54.9801 191.337 55.3572 191.911 55.8535C192.478 56.3251 192.912 56.9361 193.214 57.6867C193.506 58.6596 193.581 59.6357 193.437 60.6151C193.327 61.4465 192.99 62.3799 192.426 63.4154C191.854 64.4261 190.866 65.3817 189.463 66.2822C190.262 66.1288 190.975 66.0862 191.6 66.1545C192.242 66.1899 192.814 66.3033 193.316 66.4946C193.834 66.653 194.278 66.8771 194.647 67.1667C195.042 67.4482 195.374 67.7501 195.645 68.0723C196.301 68.8159 196.791 69.7237 197.116 70.7955C197.424 72.2296 197.502 73.424 197.35 74.3787C197.223 75.3252 196.973 76.1066 196.6 76.7228C196.227 77.339 195.797 77.8233 195.31 78.1755C194.822 78.5278 194.372 78.8266 193.96 79.0721C193.547 79.3176 193.019 79.5462 192.376 79.7578C191.733 79.9695 191.036 80.1851 190.286 80.4046C189.552 80.5912 188.798 80.7983 188.023 81.0259C187.24 81.2288 186.51 81.4689 185.834 81.7464C185.281 81.9831 184.605 82.2605 183.805 82.5786C183.128 82.856 182.283 83.2028 181.268 83.6189C180.246 84.0103 179.054 84.471 177.693 85.0011C177.9 84.7137 178.05 84.4178 178.141 84.1134C178.25 83.7762 178.333 83.4883 178.392 83.2497C178.434 82.9616 178.468 82.69 178.494 82.4348C178.503 82.2125 178.385 81.6479 178.142 80.7411C177.898 79.8343 177.585 78.7585 177.203 77.5135C176.812 76.2438 176.381 74.8916 175.909 73.4569C175.453 71.9893 174.981 70.5957 174.492 69.2762C174.02 67.9239 173.575 66.7404 173.159 65.7259C172.76 64.6785 172.433 63.9361 172.179 63.4987C171.86 63.0281 171.487 62.5613 171.061 62.0985C170.708 61.6937 170.257 61.2802 169.707 60.8581C169.181 60.4279 168.59 60.0468 167.932 59.7149ZM177.007 60.923C177.039 61.022 177.162 61.3518 177.374 61.9126C177.561 62.3992 177.838 63.1579 178.205 64.1887C178.588 65.1866 179.126 66.6134 179.819 68.4689C180.527 68.5375 181.182 68.4865 181.784 68.3158C182.378 68.1205 182.901 67.9207 183.355 67.7165C183.875 67.4632 184.353 67.1686 184.791 66.8326C185.37 66.3407 185.742 65.7245 185.91 64.984C186.102 64.2353 186.15 63.5067 186.054 62.7981C185.975 62.0566 185.8 61.4013 185.531 60.832C185.253 60.238 184.946 59.8457 184.609 59.655C184 59.3891 183.305 59.2341 182.523 59.19C181.856 59.1627 181.053 59.2626 180.113 59.4896C179.19 59.6837 178.154 60.1615 177.007 60.923ZM182.609 78.5718C183.679 78.7405 184.585 78.7852 185.326 78.7057C186.068 78.6261 186.674 78.509 187.144 78.3544C187.688 78.1753 188.133 77.9464 188.48 77.6677C188.877 77.2904 189.237 76.843 189.56 76.3254C189.9 75.7749 190.096 75.2033 190.147 74.6106C190.216 73.985 190.119 73.3587 189.858 72.7319C189.589 72.0803 189.064 71.4442 188.284 70.8235C187.627 70.4093 186.911 70.1513 186.138 70.0495C185.455 69.9728 184.643 70.0479 183.703 70.2749C182.788 70.4938 181.757 71.0663 180.609 71.9925L182.609 78.5718ZM187.251 53.5628C188.347 53.3117 189.311 53.0766 190.144 52.8574C190.976 52.6382 191.673 52.4638 192.233 52.3342C192.893 52.172 193.449 52.03 193.903 51.9082C194.356 51.7864 194.904 51.6197 195.548 51.4081C196.1 51.2537 196.784 51.0422 197.601 50.7735C198.417 50.5049 199.382 50.1874 200.495 49.8211C199.891 50.4035 199.441 50.9082 199.142 51.3353C198.869 51.7543 198.67 52.1076 198.545 52.3954C198.388 52.7489 198.321 53.0451 198.344 53.284C198.385 53.49 198.544 53.8077 198.823 54.237C199.101 54.6663 199.449 55.1411 199.867 55.6615C200.277 56.1572 200.749 56.6737 201.282 57.211C201.815 57.7483 202.34 58.2197 202.858 58.6252C203.391 58.9979 203.897 59.2839 204.374 59.4834C204.851 59.6828 205.258 59.7132 205.596 59.5745C205.934 59.4358 206.302 59.1366 206.699 58.677C207.088 58.1926 207.465 57.6299 207.83 56.989C208.219 56.3399 208.584 55.6577 208.924 54.9426C209.265 54.2274 209.547 53.545 209.772 52.8953C210.022 52.2374 210.201 51.6575 210.31 51.1556C210.436 50.6208 210.466 50.2544 210.401 50.0565C210.295 49.8173 210.102 49.5654 209.823 49.3008C209.585 49.0775 209.232 48.8374 208.763 48.5803C208.287 48.2985 207.658 48.012 206.877 47.7208C208.93 47.1274 210.426 46.6761 211.366 46.3667L212.739 45.9149L214.297 45.4021C214.866 45.2148 215.621 44.9665 216.561 44.6572C217.492 44.3231 218.655 43.8993 220.049 43.3858C219.296 44.3465 218.646 45.2045 218.1 45.9601C217.57 46.6828 217.115 47.2987 216.734 47.8078C216.303 48.4156 215.955 48.9413 215.69 49.385C215.384 49.8697 214.981 50.6052 214.484 51.5915C214.052 52.4463 213.484 53.5929 212.778 55.0314C212.065 56.4451 211.185 58.27 210.138 60.5059C210.51 62.385 210.842 63.8933 211.134 65.0308C211.451 66.1603 211.715 67.0466 211.927 67.6897C212.171 68.4318 212.404 68.9721 212.625 69.3106C212.846 69.5667 213.17 69.8438 213.598 70.1419C213.959 70.4068 214.439 70.701 215.039 71.0245C215.664 71.3398 216.453 71.6557 217.408 71.9723C216.526 72.0431 215.71 72.147 214.961 72.2842C214.235 72.4131 213.592 72.5425 213.032 72.6721C212.364 72.8095 211.771 72.9637 211.251 73.1347C210.707 73.3138 210.072 73.5502 209.346 73.8439C208.72 74.105 207.973 74.4192 207.107 74.7865C206.241 75.1538 205.239 75.607 204.1 76.1462C204.58 75.5221 204.949 74.9347 205.206 74.3839C205.464 73.8332 205.647 73.348 205.755 72.9284C205.897 72.4431 205.973 72.0069 205.983 71.6199C205.951 71.1916 205.838 70.5982 205.644 69.8398C205.481 69.1804 205.2 68.327 204.801 67.2796C204.426 66.224 203.908 64.9003 203.247 63.3084C200.982 61.4222 199.155 59.9534 197.767 58.9023C196.371 57.8264 195.296 57.0152 194.54 56.4688C193.653 55.856 193.029 55.4584 192.667 55.2758C192.354 55.1593 191.939 55.0219 191.421 54.8634C190.985 54.7053 190.434 54.5303 189.768 54.3383C189.068 54.1298 188.229 53.8713 187.251 53.5628Z" fill="black"/>
<path d="M107.643 62.4268C107.526 62.4449 107.382 62.4768 107.212 62.5224C107.051 62.565 106.897 62.6108 106.748 62.6596C106.581 62.7146 106.407 62.7772 106.224 62.8475C106.032 62.9209 105.841 62.9943 105.649 63.0677C105.485 63.1319 105.299 63.2084 105.092 63.2972C104.891 63.3736 104.696 63.4532 104.507 63.5358C104.569 63.4743 104.618 63.4019 104.652 63.3187C104.695 63.2324 104.73 63.1491 104.755 63.0689C104.777 62.9794 104.793 62.8869 104.802 62.7912C104.803 62.6368 104.743 62.4713 104.623 62.2948C104.501 62.1091 104.337 61.9571 104.134 61.839C103.94 61.7178 103.716 61.6475 103.463 61.628C103.216 61.5962 102.972 61.6508 102.731 61.792C102.474 61.9485 102.255 62.1283 102.075 62.3314C101.905 62.5315 101.784 62.7719 101.711 63.0527C101.646 63.3211 101.635 63.633 101.68 63.9883C101.731 64.3313 101.846 64.7254 102.023 65.1708C102.246 65.7245 102.487 66.1438 102.745 66.4289C103.004 66.714 103.267 66.9049 103.535 67.0017C103.804 67.0985 104.069 67.1242 104.332 67.0789C104.601 67.0212 104.856 66.9373 105.097 66.827C105.261 66.7319 105.398 66.5996 105.506 66.4302C105.593 66.2885 105.656 66.1034 105.694 65.875C105.732 65.6467 105.689 65.3624 105.567 65.0222L107.242 64.394C107.227 65.0054 107.134 65.5192 106.963 65.9355C106.788 66.3424 106.6 66.6768 106.398 66.9385C106.159 67.2433 105.899 67.4832 105.617 67.6582C105.258 67.8483 104.929 67.9875 104.629 68.0759C104.326 68.1551 104.042 68.1972 103.776 68.2024C103.511 68.2075 103.258 68.188 103.017 68.1439C102.776 68.0997 102.542 68.0433 102.313 67.9745C102.165 67.9307 101.985 67.8358 101.772 67.6898C101.56 67.5439 101.344 67.3577 101.126 67.1315C100.905 66.8959 100.697 66.6249 100.504 66.3185C100.31 66.012 100.165 65.6795 100.068 65.3208C99.9671 64.953 99.9315 64.5637 99.9609 64.1531C99.9902 63.7425 100.112 63.3168 100.327 62.876C100.654 62.2133 101.071 61.7161 101.579 61.3845C102.093 61.0406 102.612 60.8234 103.138 60.7327C103.66 60.6328 104.153 60.63 104.615 60.7245C105.078 60.8189 105.431 60.97 105.675 61.1778C105.918 61.3857 106.099 61.5469 106.219 61.6617C106.346 61.7641 106.439 61.8463 106.501 61.9083C106.569 61.9579 106.623 61.9967 106.663 62.0247C106.709 62.0403 106.774 62.0652 106.857 62.0995C106.919 62.1307 106.991 62.1634 107.074 62.1976C107.145 62.2257 107.228 62.26 107.324 62.3005C107.42 62.341 107.526 62.3831 107.643 62.4268ZM105.81 57.3243C106.094 57.2821 106.341 57.2368 106.551 57.1882C106.771 57.1365 106.952 57.0924 107.094 57.0559C107.264 57.0102 107.409 56.9675 107.53 56.9278C107.65 56.8882 107.819 56.8224 108.035 56.7306C108.215 56.651 108.448 56.5484 108.736 56.4229C109.033 56.2943 109.393 56.1243 109.817 55.9128C109.7 55.9927 109.614 56.1391 109.561 56.3519C109.514 56.5525 109.481 56.7639 109.461 56.9862C109.435 57.2517 109.431 57.5358 109.449 57.8385C109.466 58.1103 109.496 58.481 109.537 58.9506C109.588 59.4171 109.651 59.9207 109.726 60.4614C109.81 60.9991 109.916 61.5399 110.044 62.0839C110.169 62.6186 110.316 63.0994 110.488 63.5262C110.668 63.95 110.876 64.2828 111.109 64.5245C111.34 64.757 111.602 64.8352 111.896 64.7592C112.344 64.6528 112.707 64.5384 112.986 64.4159C113.27 64.2811 113.495 64.1507 113.659 64.0247C113.823 63.8987 113.943 63.7772 114.017 63.6601C114.089 63.5338 114.138 63.4197 114.167 63.3179C114.245 63.0557 114.308 62.7317 114.356 62.3459C114.403 61.96 114.437 61.5942 114.457 61.2484C114.486 60.8996 114.507 60.6047 114.521 60.3639C114.534 60.1231 114.542 60.0073 114.545 60.0166C114.551 60.0351 114.582 60.1433 114.637 60.3412C114.698 60.5267 114.768 60.7555 114.847 61.0275C114.933 61.2873 115.018 61.5625 115.103 61.8531C115.198 62.1406 115.274 62.388 115.332 62.5951C115.378 62.7651 115.43 62.9537 115.487 63.1608C115.536 63.3401 115.596 63.5519 115.666 63.7961C115.745 64.0373 115.823 64.3047 115.899 64.5984C115.5 64.6988 115.123 64.8024 114.767 64.9091C114.412 65.0158 114.1 65.1134 113.831 65.202C113.515 65.3058 113.224 65.4066 112.958 65.5044C112.674 65.6083 112.345 65.7321 111.97 65.8758C111.652 66.0012 111.256 66.1572 110.783 66.3438C110.307 66.5211 109.759 66.7321 109.141 66.9768C109.172 66.8225 109.193 66.682 109.202 66.5555C109.221 66.4258 109.233 66.3193 109.236 66.236C109.243 66.131 109.24 66.0445 109.228 65.9765C109.186 65.6614 109.108 65.2704 108.996 64.8037C108.88 64.3277 108.746 63.8269 108.594 63.3013C108.451 62.7727 108.291 62.2393 108.114 61.7013C107.943 61.151 107.777 60.6454 107.615 60.1847C107.453 59.7239 107.301 59.3265 107.161 58.9924C107.029 58.6553 106.923 58.4279 106.844 58.3103C106.748 58.1771 106.644 58.047 106.53 57.92C106.432 57.8084 106.319 57.7015 106.193 57.5991C106.073 57.4843 105.945 57.3928 105.81 57.3243ZM114.944 58.6052L117.514 57.7905C117.551 58.4052 117.599 58.9242 117.656 59.3475C117.722 59.7677 117.79 60.1154 117.86 60.3905C117.924 60.7089 118 60.9716 118.089 61.1789C118.181 61.3645 118.296 61.558 118.434 61.7592C118.551 61.9264 118.705 62.1123 118.895 62.3169C119.086 62.5214 119.314 62.7138 119.579 62.8939C119.455 62.8934 119.325 62.9053 119.189 62.9295C119.054 62.9536 118.928 62.9794 118.814 63.0068C118.681 63.0402 118.551 63.083 118.424 63.135C118.298 63.187 118.158 63.2482 118.007 63.3187C117.883 63.38 117.733 63.4551 117.557 63.5439C117.38 63.6328 117.198 63.734 117.009 63.8476C117.011 63.3844 116.998 62.9875 116.972 62.657C116.954 62.3234 116.931 62.0484 116.901 61.8321C116.858 61.5787 116.817 61.3763 116.778 61.2248C116.717 61.0393 116.648 60.8306 116.572 60.5987C116.492 60.3575 116.416 60.1256 116.343 59.903C116.27 59.6803 116.201 59.4871 116.137 59.3232C116.069 59.15 116.014 59.0448 115.971 59.0075L115.786 58.9142C115.715 58.8861 115.61 58.8487 115.472 58.8018C115.339 58.7426 115.163 58.6771 114.944 58.6052ZM115.227 56.1373C115.388 55.9712 115.574 55.8792 115.784 55.8615C116.003 55.8407 116.19 55.8769 116.344 55.9702C116.498 56.0634 116.586 56.2043 116.606 56.3927C116.637 56.5781 116.545 56.7986 116.331 57.0541C116.114 57.3003 115.895 57.4338 115.676 57.4546C115.457 57.4754 115.281 57.4253 115.148 57.3043C115.016 57.1834 114.946 57.0164 114.937 56.8033C114.926 56.5809 115.022 56.3589 115.227 56.1373ZM121.023 52.1016C121.348 51.9947 121.659 51.9542 121.955 51.98C122.258 51.9936 122.542 52.0286 122.807 52.0852C123.082 52.1388 123.339 52.1876 123.58 52.2318C123.818 52.2666 124.043 52.249 124.257 52.1787C124.42 52.1145 124.603 52.0288 124.804 51.9214C124.977 51.8233 125.172 51.6974 125.389 51.5438C125.612 51.3779 125.851 51.1657 126.105 50.9073C125.897 51.3049 125.729 51.6378 125.601 51.9059C125.48 52.1618 125.389 52.3715 125.33 52.5349C125.258 52.723 125.208 52.868 125.18 52.9698C125.158 53.0901 125.125 53.2706 125.081 53.5114C125.04 53.7305 124.983 54.0267 124.91 54.4001C124.835 54.7642 124.745 55.241 124.641 55.8305C124.43 55.1904 124.202 54.7155 123.956 54.4057C123.72 54.0929 123.497 53.8682 123.287 53.7315C123.041 53.5761 122.797 53.5073 122.556 53.5249C122.343 53.5642 122.151 53.6685 121.98 53.8377C121.807 53.9976 121.649 54.2039 121.506 54.4566C121.372 54.7062 121.255 54.9914 121.155 55.3122C121.061 55.6207 120.986 55.9385 120.929 56.2656C120.881 56.5897 120.858 56.9108 120.86 57.2289C120.859 57.5377 120.884 57.8173 120.936 58.0676C120.978 58.2901 121.056 58.5421 121.169 58.8235C121.279 59.0957 121.416 59.3696 121.578 59.645C121.738 59.9112 121.915 60.1667 122.108 60.4114C122.302 60.6561 122.509 60.8653 122.731 61.0391C122.959 61.2006 123.193 61.3188 123.434 61.3938C123.671 61.4596 123.914 61.4466 124.161 61.3549C124.433 61.2448 124.68 61.0712 124.9 60.8343C125.092 60.6374 125.268 60.374 125.426 60.0442C125.582 59.7051 125.67 59.27 125.691 58.7389L127.874 58.4369C127.518 59.3558 127.117 60.0892 126.67 60.6372C126.233 61.1822 125.816 61.6021 125.419 61.8971C124.955 62.235 124.489 62.4756 124.022 62.619C123.416 62.7464 122.811 62.7503 122.206 62.6306C121.601 62.5109 121.046 62.3081 120.541 62.0221C120.042 61.7237 119.609 61.3623 119.243 60.9378C118.878 60.5133 118.631 60.0599 118.503 59.5777C118.418 59.2562 118.362 58.8684 118.336 58.4144C118.307 57.951 118.312 57.4662 118.351 56.9599C118.399 56.4505 118.487 55.9382 118.616 55.423C118.745 54.9077 118.916 54.4297 119.131 53.9889C119.343 53.5389 119.605 53.1492 119.918 52.82C120.238 52.4784 120.606 52.2389 121.023 52.1016ZM125.405 50.9371C125.523 50.9499 125.654 50.9426 125.799 50.9154C125.954 50.8851 126.096 50.8486 126.226 50.8058C126.384 50.7539 126.544 50.6959 126.708 50.6317C126.872 50.5674 127.07 50.4817 127.302 50.3745C127.491 50.2919 127.724 50.1893 128.003 50.0668C128.281 49.9444 128.589 49.8019 128.926 49.6396C128.818 49.7472 128.729 49.8534 128.661 49.9582C128.593 50.0629 128.538 50.1631 128.498 50.2586C128.451 50.3666 128.418 50.4699 128.399 50.5686C128.371 50.7013 128.347 50.9251 128.327 51.24C128.314 51.5426 128.306 51.8792 128.305 52.2498C128.313 52.6173 128.331 52.9864 128.361 53.3571C128.4 53.7248 128.454 54.0307 128.524 54.2749C128.582 54.4821 128.649 54.717 128.725 54.9798C128.789 55.2055 128.87 55.4822 128.968 55.8099C129.065 56.1376 129.178 56.5117 129.306 56.9322C129.815 56.23 130.203 55.6757 130.471 55.269C130.735 54.8531 130.924 54.5389 131.039 54.3262C131.176 54.0859 131.251 53.9225 131.263 53.8361C131.236 53.7834 131.193 53.7308 131.134 53.6781C131.07 53.6377 130.983 53.5941 130.875 53.5474C130.768 53.5006 130.615 53.4584 130.417 53.4205C130.668 53.369 130.883 53.3189 131.062 53.2701C131.25 53.2184 131.411 53.1757 131.544 53.1423C131.696 53.1027 131.825 53.06 131.934 53.0141C132.054 52.9744 132.201 52.9209 132.374 52.8536C132.677 52.7436 133.146 52.574 133.78 52.3448C133.265 52.874 132.865 53.3141 132.58 53.665C132.418 53.8621 132.277 54.0422 132.156 54.2054C132.038 54.3779 131.917 54.5565 131.793 54.7414C131.681 54.9015 131.552 55.0879 131.406 55.3004C131.269 55.5099 131.136 55.7286 131.005 55.9566C131.504 56.3785 131.93 56.7214 132.284 56.9853C132.648 57.2461 132.948 57.4557 133.185 57.6141C133.463 57.8004 133.7 57.9434 133.897 58.0429C134.091 58.1332 134.338 58.2268 134.637 58.3237C134.893 58.4142 135.219 58.5128 135.613 58.6193C136.015 58.7134 136.496 58.8172 137.058 58.9305C136.801 58.9635 136.558 59.0074 136.33 59.0621C136.104 59.1261 135.914 59.1886 135.759 59.2498C135.568 59.3232 135.397 59.3998 135.249 59.4795C135.094 59.5715 134.924 59.679 134.738 59.8018C134.577 59.9062 134.388 60.0352 134.171 60.1887C133.967 60.3485 133.747 60.5392 133.511 60.7606C133.645 60.5727 133.734 60.4048 133.777 60.2567C133.834 60.1149 133.868 60.0007 133.881 59.9143C133.887 59.8093 133.875 59.7259 133.845 59.664C133.768 59.5865 133.598 59.4315 133.337 59.1989C133.1 59.0096 132.752 58.7334 132.293 58.3703C131.834 58.0073 131.191 57.52 130.362 56.9084C130.338 56.9269 130.3 56.97 130.251 57.0377C130.21 57.1024 130.148 57.1948 130.064 57.3149C129.977 57.4258 129.866 57.5859 129.729 57.7954L130.906 60.1068C130.835 60.1714 130.753 60.2344 130.66 60.2958C130.576 60.3541 130.496 60.4063 130.418 60.4523C130.325 60.5138 130.229 60.5659 130.131 60.6087C130.032 60.6516 129.917 60.7098 129.787 60.7835C129.673 60.8417 129.536 60.9122 129.379 60.995C129.224 61.087 129.047 61.1914 128.849 61.308C128.942 61.1848 129.008 61.0553 129.045 60.9196C129.086 60.7931 129.114 60.6759 129.13 60.5679C129.143 60.4506 129.15 60.3302 129.15 60.2066C129.138 60.1078 129.077 59.8605 128.968 59.4648C128.867 59.066 128.738 58.5946 128.579 58.0504C128.418 57.497 128.239 56.9081 128.044 56.2835C127.858 55.6559 127.675 55.0684 127.495 54.5211C127.312 53.9646 127.148 53.4837 127.005 53.0786C126.858 52.6643 126.751 52.4014 126.683 52.2899C126.588 52.1568 126.481 52.0174 126.361 51.8718C126.256 51.7417 126.122 51.6007 125.959 51.4487C125.802 51.2844 125.618 51.1139 125.405 50.9371ZM136.856 48.572C137.144 48.5082 137.383 48.4551 137.575 48.4126C137.776 48.367 137.938 48.329 138.062 48.2986C138.204 48.2621 138.317 48.2301 138.4 48.2026C138.487 48.1844 138.598 48.1478 138.734 48.0927C138.852 48.0438 139.006 47.9826 139.198 47.9092C139.387 47.8266 139.623 47.7178 139.908 47.583C139.874 47.6972 139.85 47.7975 139.837 47.8839C139.822 47.961 139.809 48.032 139.799 48.0968L139.771 48.2913C139.771 48.353 139.77 48.4148 139.77 48.4765C139.767 48.529 139.767 48.5908 139.77 48.6618C139.782 48.7298 139.795 48.8024 139.81 48.8797L141.953 48.1745L142.129 49.3657L140.131 49.9C140.24 50.3884 140.328 50.7655 140.395 51.0313C140.462 51.2972 140.506 51.4934 140.527 51.6201L140.582 51.8797C140.67 52.2414 140.769 52.6355 140.878 53.0621C140.985 53.4794 141.101 53.8628 141.226 54.2122C141.351 54.5617 141.481 54.8478 141.617 55.0707C141.748 55.2843 141.884 55.3682 142.023 55.3224C142.162 55.2766 142.28 55.1967 142.376 55.0829C142.472 54.969 142.545 54.8473 142.595 54.7177C142.654 54.5852 142.69 54.4602 142.703 54.3429C142.713 54.2164 142.709 54.1252 142.69 54.0696C142.672 54.0139 142.637 53.9536 142.585 53.8885C142.492 53.7646 142.351 53.6159 142.16 53.4422C142.45 53.4186 142.708 53.4057 142.934 53.4035C143.048 53.407 143.153 53.4136 143.249 53.4232C143.354 53.4298 143.474 53.4364 143.61 53.4431C143.727 53.4559 143.875 53.4688 144.055 53.4819C144.234 53.4949 144.445 53.5127 144.689 53.5352C144.497 53.6395 144.369 53.7486 144.303 53.8627C144.26 53.9181 144.232 53.9736 144.219 54.0291C144.188 54.1525 144.159 54.3161 144.134 54.5198C144.105 54.7142 144.035 54.9224 143.923 55.1443C143.811 55.3663 143.633 55.5895 143.388 55.814C143.152 56.0354 142.801 56.2333 142.334 56.4075C141.849 56.5879 141.445 56.628 141.125 56.528C140.813 56.4249 140.557 56.2726 140.357 56.0711C140.164 55.8573 140.018 55.6328 139.92 55.3977C139.822 55.1627 139.755 55.0049 139.718 54.9245C139.681 54.844 139.612 54.6353 139.512 54.2983C139.411 53.9613 139.304 53.5903 139.192 53.1854C139.076 52.7711 138.966 52.3754 138.863 51.9982C138.756 51.6118 138.674 51.3305 138.616 51.1542C138.585 51.0615 138.558 50.9625 138.534 50.8574C138.506 50.774 138.477 50.6858 138.447 50.5931C138.422 50.488 138.395 50.3891 138.364 50.2963L136.342 50.9464L135.998 50.1807L138.048 49.5678C137.995 49.4719 137.942 49.3868 137.886 49.3124C137.837 49.2258 137.794 49.1577 137.757 49.1081C137.708 49.0523 137.662 49.0058 137.619 48.9686C137.567 48.9345 137.508 48.8972 137.443 48.8568C137.382 48.8257 137.302 48.7852 137.203 48.7354C137.104 48.6856 136.989 48.6311 136.856 48.572ZM146.321 43.545C146.828 43.3987 147.364 43.3251 147.929 43.3242C148.5 43.3109 149.063 43.4134 149.618 43.6317C150.17 43.8407 150.693 44.1778 151.185 44.6429C151.674 45.0987 152.089 45.7179 152.429 46.5005C152.71 47.1378 152.842 47.8192 152.824 48.5449C152.812 49.2582 152.695 49.9495 152.473 50.6188C152.251 51.2881 151.943 51.8984 151.549 52.4497C151.152 52.9917 150.713 53.4084 150.233 53.7C149.942 53.878 149.597 54.0018 149.199 54.0713C148.806 54.1284 148.388 54.1376 147.943 54.0989C147.505 54.0478 147.056 53.9488 146.596 53.8019C146.146 53.652 145.716 53.4542 145.306 53.2087C144.893 52.9539 144.518 52.656 144.179 52.315C143.85 51.971 143.589 51.5839 143.396 51.1539C143.228 50.7982 143.089 50.3915 142.979 49.9341C142.876 49.4643 142.816 48.9854 142.8 48.4974C142.789 47.997 142.836 47.4985 142.94 47.0017C143.05 46.4926 143.243 46.0177 143.52 45.5772C143.793 45.1273 144.156 44.7303 144.608 44.3862C145.066 44.0297 145.637 43.7493 146.321 43.545ZM145.684 50C145.881 51.0353 146.237 51.8025 146.75 52.3017C147.273 52.7978 147.881 53.0039 148.573 52.9201C148.91 52.8812 149.19 52.7171 149.413 52.4276C149.643 52.1259 149.816 51.7451 149.932 51.2854C150.048 50.8257 150.11 50.3118 150.119 49.7436C150.127 49.1754 150.081 48.5993 149.982 48.0152C149.882 47.4312 149.722 46.9287 149.501 46.5079C149.286 46.0747 149.044 45.7279 148.773 45.4675C148.499 45.1978 148.213 45.0145 147.913 44.9176C147.624 44.8177 147.35 44.7997 147.094 44.8635C146.649 44.9792 146.306 45.2203 146.067 45.5869C145.825 45.9442 145.66 46.3635 145.571 46.845C145.483 47.3264 145.453 47.8451 145.482 48.4011C145.52 48.954 145.588 49.487 145.684 50Z" fill="#EA000B"/>
</svg>
