<svg width="267" height="130" viewBox="0 0 267 130" fill="none" xmlns="http://www.w3.org/2000/svg">
<rect x="14.6842" y="1.10887" width="254" height="91" rx="30.5" transform="rotate(8.55742 14.6842 1.10887)" fill="#F9F301" stroke="black"/>
<path d="M56.3003 62.1923C57.0214 62.3008 57.7025 62.3243 58.3438 62.2628C58.8783 62.2115 59.3985 62.0791 59.9047 61.8656C60.4405 61.6302 60.8302 61.228 61.0738 60.659C61.5734 60.8395 61.9976 60.9955 62.3465 61.127C62.6992 61.2327 63.0005 61.3307 63.2503 61.421C63.5219 61.5409 63.7588 61.6292 63.961 61.6859C64.1592 61.7684 64.3961 61.8567 64.6716 61.9509C64.9214 62.0411 65.2207 62.152 65.5696 62.2835C65.9482 62.3931 66.3872 62.5382 66.8867 62.7187C66.5082 62.6091 66.1032 62.5877 65.6718 62.6544C65.2662 62.725 64.8715 62.8105 64.4877 62.9108C64.0485 63.029 63.6293 63.1898 63.2301 63.393C62.975 63.5127 62.6698 63.7038 62.3142 63.9663C61.9845 64.2327 61.5279 64.4668 60.9445 64.6687C60.3611 64.8706 59.6032 65.0068 58.6709 65.0771C57.7682 65.1257 56.6254 65.0195 55.2426 64.7588C53.5765 64.4554 52.2176 63.9481 51.1659 63.2368C50.118 62.4997 49.3065 61.6798 48.7314 60.7768C48.1601 59.8481 47.7916 58.8841 47.626 57.8848C47.4603 56.8855 47.4266 55.9719 47.5249 55.144C47.6231 54.316 47.9976 53.4902 48.6482 52.6664C49.2989 51.8425 50.1439 51.127 51.1834 50.5197C52.2486 49.9163 53.4856 49.4835 54.8944 49.2215C56.3071 48.9337 57.8118 48.91 59.4084 49.1502C60.3355 49.2897 61.1678 49.5335 61.9055 49.8815C62.6728 50.2076 63.3512 50.5994 63.9408 51.0568C64.5561 51.5181 65.0735 52.0173 65.493 52.5544C65.9164 53.0658 66.2607 53.5785 66.5257 54.0924C66.7868 54.6321 66.9926 55.1897 67.143 55.7654C67.2793 56.2599 67.3672 56.813 67.4068 57.4247C67.4465 58.0363 67.394 58.6473 67.2495 59.2576C65.2846 59.0146 63.6951 58.8149 62.4809 58.6586C61.2924 58.5061 60.3634 58.3794 59.6939 58.2787L57.9556 58.0171L56.6423 57.8195C56.1788 57.7497 55.5717 57.6716 54.821 57.5849C54.0703 57.4983 53.1503 57.3994 52.061 57.2881C52.0348 58.3376 52.2365 59.1843 52.6663 59.8284C53.1257 60.4505 53.6303 60.9478 54.1799 61.3202C54.803 61.73 55.5098 62.0207 56.3003 62.1923ZM53.8701 54.7162C54.6864 54.8917 55.363 55.033 55.8999 55.1401C56.4626 55.2511 56.9222 55.3466 57.2789 55.4266C57.6613 55.5105 57.9684 55.5699 58.2001 55.6048L59.1658 55.7501C59.8096 55.847 61.0129 55.9885 62.7756 56.1748C62.8689 55.0301 62.7541 54.1306 62.4312 53.4763C62.134 52.8259 61.7878 52.3261 61.3927 51.9769C60.9242 51.5904 60.3847 51.3249 59.7745 51.1804C58.0967 50.9543 56.7954 51.114 55.8706 51.6595C54.9716 52.2089 54.3047 53.2278 53.8701 54.7162ZM76.7979 44.8935C78.0739 45.1645 79.1458 45.3916 80.0136 45.5749C80.911 45.7363 81.6539 45.8744 82.2423 45.9893C82.908 46.1158 83.4745 46.201 83.942 46.245C84.4094 46.289 85.05 46.3196 85.8638 46.3367C86.5449 46.3602 87.4508 46.378 88.5814 46.3901C89.7416 46.3804 91.1799 46.3598 92.8964 46.3284C92.215 46.8315 91.6701 47.3026 91.2617 47.7415C90.8829 48.1585 90.5782 48.5209 90.3476 48.8285C90.0796 49.2095 89.8856 49.5359 89.7657 49.8075C89.6755 50.0573 89.6301 50.7088 89.6296 51.7621C89.6291 52.8155 89.664 54.0716 89.7341 55.5306C89.8081 56.9638 89.8924 58.5039 89.9869 60.1509C90.0853 61.7721 90.1973 63.3032 90.3228 64.7442C90.4522 66.1594 90.572 67.3757 90.6823 68.393C90.8222 69.3884 90.943 69.986 91.0446 70.1856C91.3495 70.7845 91.5399 71.1819 91.6158 71.3776C91.6955 71.5476 91.8545 71.7164 92.0926 71.8839C92.1879 71.9509 92.3436 72.0533 92.5599 72.1912C92.7504 72.3252 93.0014 72.4947 93.313 72.6996C93.6502 72.9083 94.0738 73.1564 94.5835 73.4438C93.5715 73.3442 92.703 73.253 91.9781 73.1702C91.257 73.0617 90.6628 72.9855 90.1954 72.9415C89.6507 72.8859 89.1833 72.8419 88.7932 72.8095C88.4069 72.7514 87.9395 72.7074 87.3909 72.6775C86.9197 72.6593 86.3067 72.6197 85.5522 72.5588C84.8234 72.5018 83.9658 72.4255 82.9795 72.3297C83.5488 72.0467 84.0093 71.7868 84.3609 71.55C84.7422 71.2914 85.0385 71.0726 85.2497 70.8937C85.4945 70.6672 85.671 70.4567 85.7792 70.2624C85.8656 70.0383 85.9566 69.6965 86.0521 69.2368C86.1398 68.8287 86.2212 68.2879 86.2962 67.6145C86.3751 66.9153 86.4463 66.0043 86.5099 64.8815L76.1939 64.3957C75.8705 64.7948 75.6193 65.152 75.4401 65.4674C75.2649 65.757 75.1341 66.0139 75.0477 66.2379C74.9278 66.5095 74.8672 66.7374 74.8658 66.9215C74.8863 67.1353 74.9396 67.3935 75.0258 67.6962C75.1158 67.9731 75.2495 68.3092 75.427 68.7046C75.6342 69.0781 75.9475 69.5335 76.3671 70.0706C75.7271 69.948 75.0724 69.8363 74.4029 69.7356C73.7333 69.6348 73.1133 69.5547 72.5429 69.4952C71.8695 69.4202 71.209 69.3471 70.5613 69.276C69.9136 69.2049 69.1739 69.1331 68.3421 69.0606C67.639 69.0074 66.8182 68.9498 65.8795 68.8875C64.9189 68.7956 63.8901 68.7198 62.793 68.6601C63.5091 68.4518 64.1221 68.228 64.6321 67.9888C65.146 67.7238 65.5788 67.4729 65.9305 67.2361C66.3375 66.9813 66.6911 66.7317 66.9912 66.4872C67.2102 66.2568 67.6599 65.7187 68.3402 64.873C69.0243 64.0016 69.798 62.9725 70.6613 61.7856C71.5504 60.6027 72.4788 59.3334 73.4464 57.978C74.4399 56.6264 75.3425 55.3533 76.1543 54.1587C76.9699 52.9383 77.6426 51.8808 78.1722 50.9861C78.7019 50.0915 78.988 49.5025 79.0307 49.2192C79.0295 48.8767 78.957 48.4839 78.8129 48.0409C78.6869 47.6532 78.4657 47.1986 78.1491 46.6769C77.8584 46.1591 77.4079 45.5647 76.7979 44.8935ZM86.4765 61.9533C86.4576 61.0287 86.4323 60.2349 86.4004 59.5717C86.3724 58.8828 86.3527 58.3136 86.3413 57.8642C86.3158 57.3337 86.3063 56.8714 86.313 56.4774C86.29 56.1052 86.2696 55.6281 86.2518 55.0461C86.2224 54.5413 86.1847 53.9168 86.1387 53.1725C86.1223 52.4063 86.0886 51.4927 86.0376 50.4316C84.128 53.1464 82.6391 55.253 81.571 56.7514C80.5324 58.2279 79.7767 59.3124 79.3038 60.0049C78.7342 60.8146 78.4121 61.2928 78.3374 61.4396L86.4765 61.9533ZM95.5313 45.6188C97.2257 46.0844 98.6961 46.4637 99.9424 46.7566C101.193 47.0237 102.226 47.245 103.042 47.4205C103.987 47.6154 104.784 47.7484 105.431 47.8195C106.105 47.8945 107.029 47.9677 108.203 48.0391C109.193 48.1091 110.496 48.1998 112.112 48.3113C113.732 48.3971 115.759 48.4914 118.192 48.5942C118.129 49.1904 118.055 49.7717 117.97 50.3383C117.914 50.8829 117.868 51.3632 117.832 51.7791C117.784 52.2723 117.729 52.7249 117.667 53.1369C117.601 53.5747 117.492 54.1245 117.34 54.7863C117.203 55.3451 117.004 56.0525 116.744 56.9087C116.513 57.743 116.192 58.735 115.782 59.8847C115.631 58.4399 115.452 57.2674 115.245 56.3672C115.042 55.4413 114.838 54.6995 114.632 54.1418C114.412 53.503 114.171 53.0059 113.908 52.6503C113.608 52.3682 113.238 52.115 112.798 51.8907C112.405 51.7 111.893 51.5175 111.261 51.3434C110.654 51.1732 109.919 51.0756 109.053 51.0507C108.413 54.4306 107.908 57.1725 107.539 59.2764C107.17 61.3802 106.883 63.0225 106.679 64.2032C106.44 65.6157 106.274 66.631 106.181 67.249C106.075 68.1285 106.087 69.0124 106.217 69.901C106.314 70.6531 106.537 71.4502 106.884 72.2925C107.231 73.1348 107.798 73.918 108.585 74.6421L103.872 73.9329C103.434 73.867 102.89 73.8114 102.238 73.7661C101.689 73.7362 100.986 73.6831 100.129 73.6067C99.297 73.5342 98.3178 73.479 97.1911 73.4411C97.6781 72.8297 98.0782 72.2711 98.3913 71.7651C98.7045 71.2592 98.9545 70.8228 99.1414 70.4559C99.3656 70.0156 99.5435 69.6211 99.675 69.2722C99.7783 68.761 99.9996 67.7277 100.339 66.1724C100.462 65.5325 100.607 64.738 100.777 63.7891C100.971 62.844 101.193 61.7187 101.443 60.4131C101.718 59.1114 102.009 57.6146 102.316 55.9227C102.653 54.209 103.023 52.2764 103.425 50.1248C102.981 49.9263 102.541 49.8733 102.106 49.9658C101.675 50.0326 101.289 50.1457 100.949 50.3053C100.55 50.5085 100.156 50.7652 99.7666 51.0754C99.3659 51.4628 98.9073 51.9731 98.3906 52.6064C97.941 53.1445 97.4107 53.8679 96.8 54.7767C96.193 55.6598 95.4869 56.7649 94.6815 58.0921C94.7775 56.5792 94.8714 55.3424 94.9633 54.3818C95.059 53.3955 95.1347 52.63 95.1903 52.0854C95.2614 51.4377 95.3203 50.9594 95.3668 50.6503C95.4094 50.3671 95.4398 49.9898 95.4581 49.5185C95.4647 49.1245 95.4759 48.6126 95.4916 47.983C95.5112 47.3275 95.5245 46.5395 95.5313 45.6188ZM130.211 51.9433C130.78 52.1869 131.303 52.3842 131.781 52.535C132.288 52.664 132.72 52.7686 133.077 52.8486C133.511 52.9402 133.908 53.0131 134.268 53.0674C134.629 53.1216 135.083 53.1637 135.632 53.1936C136.596 53.2597 137.977 53.27 139.775 53.2245C139.461 53.3878 139.159 53.5532 138.871 53.7204C138.612 53.8658 138.379 54.0151 138.171 54.1682L137.505 54.6604C137.1 55.0736 136.647 55.8087 136.146 56.8656C135.719 57.7758 135.209 59.0684 134.614 60.7434C134.046 62.4222 133.418 64.6715 132.73 67.4912C134.178 66.445 135.502 65.6962 136.702 65.2448C137.932 64.7715 138.993 64.4571 139.886 64.3017C140.937 64.1439 141.876 64.114 142.704 64.2123C143.748 64.4484 144.629 64.8049 145.348 65.2816C146.096 65.7365 146.703 66.2493 147.17 66.82C147.667 67.3688 148.044 67.9259 148.301 68.4913C148.588 69.0348 148.793 69.5133 148.915 69.9267C148.979 70.1997 148.985 70.6877 148.932 71.3908C148.908 72.0719 148.805 72.8464 148.621 73.7142C148.438 74.582 148.157 75.4878 147.778 76.4315C147.429 77.3533 146.947 78.1894 146.334 78.9398C145.75 79.6684 145.032 80.2449 144.178 80.6695C143.349 81.0979 142.365 81.2526 141.224 81.1336C139.911 80.936 138.659 80.5897 137.47 80.0946C136.453 79.6782 135.4 79.059 134.313 78.237C133.255 77.3931 132.406 76.2911 131.768 74.931C131.722 75.24 131.675 75.549 131.629 75.858C131.586 76.1413 131.562 76.3879 131.557 76.5978C131.54 76.8849 131.529 77.1334 131.524 77.3433C131.515 77.579 131.542 77.8333 131.607 78.1063C131.653 78.3239 131.73 78.5989 131.838 78.9312C131.976 79.2416 132.165 79.5597 132.405 79.8856C132.126 79.8172 131.845 79.7617 131.561 79.7191C131.282 79.6507 130.999 79.6081 130.712 79.5912C130.399 79.5705 130.086 79.5497 129.773 79.529C129.46 79.5082 129.132 79.4984 128.79 79.4996C128.499 79.5084 128.154 79.5224 127.756 79.5416C127.359 79.5607 126.946 79.5908 126.518 79.6318C126.63 79.4116 126.745 79.0865 126.863 78.6565C126.984 78.2007 127.111 77.7063 127.244 77.1733C127.406 76.6184 127.547 76.0338 127.666 75.4197C127.81 74.8094 127.955 74.1991 128.099 73.5888C128.415 72.1879 128.738 70.6564 129.067 68.9942C129.536 66.4049 129.913 63.9861 130.198 61.738C130.316 60.7813 130.41 59.8079 130.48 58.8177C130.576 57.8313 130.636 56.9055 130.661 56.0402C130.69 55.1492 130.664 54.3553 130.585 53.6586C130.535 52.9401 130.41 52.3683 130.211 51.9433ZM132.402 71.5106C132.701 72.3194 133.042 73.029 133.424 73.6396C133.81 74.2243 134.208 74.7319 134.617 75.1621C135.027 75.5924 135.435 75.9435 135.841 76.2154C136.274 76.4912 136.688 76.7115 137.085 76.8766C137.999 77.2774 138.935 77.4446 139.893 77.3781C140.859 77.2601 141.658 76.8536 142.289 76.1585C142.92 75.4635 143.451 74.648 143.882 73.712C144.08 73.2679 144.246 72.6872 144.381 71.97C144.541 71.2567 144.568 70.5498 144.463 69.8493C144.387 69.1268 144.143 68.4713 143.732 67.8826C143.324 67.2682 142.664 66.8398 141.752 66.5973C141.109 66.5004 140.335 66.5683 139.431 66.8009C138.637 66.9976 137.671 67.3789 136.533 67.945C135.398 68.4853 134.07 69.3519 132.547 70.5449L132.402 71.5106ZM154.404 67.3159C154.556 67.1807 154.675 66.9091 154.763 66.5009C154.881 66.0709 155.057 65.5971 155.293 65.0796C155.555 64.5659 155.936 64.044 156.437 63.5137C156.938 62.9834 157.691 62.5305 158.696 62.1549C159.675 61.7755 160.597 61.5982 161.462 61.6231C162.327 61.648 163.133 61.8087 163.878 62.1052C164.624 62.4017 165.302 62.7935 165.913 63.2805C166.551 63.7714 167.118 64.2912 167.614 64.84C167.954 65.2072 168.195 65.7043 168.338 66.3315C168.484 66.9329 168.568 67.6038 168.588 68.3442C168.608 69.0847 168.584 69.8579 168.516 70.664C168.477 71.4481 168.414 72.2156 168.327 72.9662C168.244 73.6912 168.157 74.3626 168.064 74.9807C168 75.5769 167.978 76.0739 167.997 76.4718C168.015 77.0538 168.122 77.5702 168.317 78.021C168.516 78.446 168.749 78.8234 169.016 79.1532C169.286 79.4572 169.564 79.7097 169.85 79.9108C170.136 80.1118 170.389 80.2683 170.609 80.3805C170.752 80.481 170.885 80.5538 171.01 80.5989C171.252 80.7407 171.433 80.7678 171.551 80.6803C171.342 81.0176 171.154 81.3053 170.987 81.5434C170.819 81.7816 170.683 81.9849 170.579 82.1536C170.445 82.3441 170.33 82.4979 170.233 82.6151C170.132 82.7579 170.021 82.886 169.899 82.9993C169.802 83.1164 169.678 83.2425 169.526 83.3777C169.374 83.5128 169.22 83.6608 169.064 83.8217C168.748 83.6426 168.45 83.4396 168.168 83.2129C167.912 82.99 167.679 82.7838 167.471 82.5945C167.215 82.3716 166.984 82.1526 166.78 81.9374C166.575 81.7223 166.387 81.4833 166.216 81.2206C166.067 80.9874 165.907 80.7395 165.735 80.4767C165.59 80.2178 165.474 79.937 165.388 79.6344C165.183 79.9459 164.738 80.3661 164.053 80.8951C163.393 81.4279 162.561 81.882 161.557 82.2575C160.556 82.6073 159.422 82.7922 158.155 82.8122C156.914 82.8361 155.596 82.493 154.202 81.7828C153.589 81.4799 153.028 81.0927 152.52 80.6212C152.015 80.1239 151.6 79.561 151.273 78.9325C150.972 78.3078 150.786 77.6214 150.714 76.8732C150.672 76.1032 150.808 75.2811 151.124 74.4069C151.44 73.5327 151.876 72.8215 152.433 72.2732C152.99 71.7249 153.619 71.306 154.321 71.0166C155.023 70.7272 155.788 70.5396 156.618 70.4537C157.447 70.3678 158.292 70.3502 159.154 70.4008C159.827 70.4758 160.491 70.6152 161.145 70.8189C161.696 71.0072 162.259 71.2894 162.835 71.6657C163.414 72.0162 163.882 72.4948 164.238 73.1015C164.418 71.7328 164.529 70.6434 164.572 69.8335C164.644 69.0017 164.688 68.363 164.702 67.9175C164.677 67.387 164.641 67.0129 164.594 66.7952C164.493 66.5956 164.382 66.3683 164.263 66.1133C164.169 65.8621 164.032 65.6309 163.853 65.4197C163.678 65.1826 163.446 64.9765 163.156 64.8012C162.867 64.626 162.514 64.5202 162.098 64.484C161.656 64.4439 161.291 64.5074 161.003 64.6747C160.714 64.842 160.471 65.0556 160.274 65.3156C160.107 65.5538 159.987 65.8254 159.915 66.1306C159.842 66.4357 159.815 66.708 159.831 66.9475C159.86 67.1098 159.912 67.2888 159.987 67.4846C160.067 67.6546 160.184 67.8433 160.337 68.0507C160.49 68.2581 160.711 68.4494 161.001 68.6246C160.397 68.6128 159.859 68.5977 159.388 68.5795C158.921 68.5355 158.516 68.514 158.173 68.5152C157.779 68.5085 157.439 68.4968 157.152 68.4799C156.864 68.4631 156.522 68.4642 156.124 68.4833C155.781 68.4844 155.36 68.4868 154.859 68.4904C154.358 68.4941 153.776 68.5118 153.113 68.5437C153.294 68.3867 153.461 68.2406 153.613 68.1055C153.769 67.9446 153.908 67.8075 154.031 67.6943C154.157 67.5553 154.281 67.4291 154.404 67.3159ZM159.506 72.7844C159.039 72.7404 158.558 72.7866 158.063 72.9228C157.572 73.0333 157.12 73.2417 156.705 73.548C156.294 73.8285 155.925 74.1812 155.598 74.606C155.3 75.0089 155.111 75.4807 155.029 76.0215C154.948 76.5623 155.005 77.0581 155.2 77.5089C155.426 77.9378 155.738 78.3139 156.137 78.6373C156.561 78.9646 157.027 79.1927 157.535 79.3217C158.068 79.4546 158.603 79.4825 159.142 79.4055C159.658 79.2989 160.164 79.0854 160.66 78.765C161.16 78.4188 161.599 78.0372 161.978 77.6202C162.361 77.1774 162.651 76.7339 162.85 76.2898C163.052 75.8199 163.125 75.4226 163.069 75.0981C162.963 74.3976 162.57 73.8643 161.887 73.4983C161.209 73.1065 160.415 72.8686 159.506 72.7844ZM173.395 57.9279C174.188 58.2579 174.95 58.5306 175.681 58.746C176.413 58.9614 177.058 59.1374 177.616 59.2742C178.274 59.4522 178.888 59.5709 179.459 59.6304C180.18 59.7389 181.091 59.8102 182.192 59.8442C183.319 59.882 184.469 59.9367 185.643 60.008C186.822 60.0536 187.941 60.143 189 60.2761C190.09 60.3874 190.955 60.5835 191.598 60.8645C192.244 61.1198 192.89 61.4671 193.535 61.9065C194.209 62.324 194.806 62.822 195.325 63.4004C195.847 63.9531 196.253 64.5804 196.542 65.2823C196.836 65.9584 196.948 66.6995 196.879 67.5056C196.703 68.506 196.329 69.4111 195.76 70.2208C195.287 70.9133 194.565 71.5948 193.596 72.2653C192.63 72.9099 191.317 73.3182 189.659 73.4899C190.441 73.7131 191.097 73.996 191.624 74.3388C192.182 74.6597 192.641 75.0185 193.003 75.4153C193.394 75.7902 193.69 76.1901 193.889 76.6152C194.114 77.0441 194.275 77.4633 194.371 77.8728C194.622 78.8323 194.651 79.8637 194.459 80.9671C194.087 82.386 193.619 83.4874 193.053 84.2713C192.513 85.0591 191.938 85.6441 191.327 86.0263C190.717 86.4084 190.115 86.647 189.521 86.742C188.927 86.837 188.391 86.9012 187.912 86.9344C187.433 86.9677 186.859 86.9339 186.189 86.8332C185.52 86.7324 184.8 86.6111 184.032 86.4691C183.293 86.3052 182.526 86.1503 181.732 86.0044C180.941 85.8328 180.181 85.7185 179.453 85.6615C178.853 85.6239 178.124 85.5669 177.266 85.4905C176.537 85.4335 175.626 85.3622 174.533 85.2768C173.444 85.1655 172.172 85.04 170.719 84.9003C171.033 84.7369 171.3 84.54 171.519 84.3096C171.767 84.0573 171.971 83.8379 172.131 83.6512C172.299 83.4131 172.451 83.1859 172.589 82.9696C172.697 82.7752 172.847 82.2184 173.038 81.2991C173.229 80.3797 173.434 79.2782 173.654 77.9945C173.877 76.6851 174.101 75.2835 174.326 73.7899C174.58 72.2744 174.786 70.8175 174.944 69.4192C175.132 67.999 175.268 66.7423 175.354 65.6491C175.469 64.534 175.512 63.7241 175.482 63.2193C175.409 62.6552 175.286 62.0706 175.114 61.4653C174.982 60.945 174.765 60.3725 174.464 59.7479C174.189 59.1271 173.832 58.5204 173.395 57.9279ZM180.952 63.0943C180.937 63.1973 180.897 63.5469 180.834 64.1431C180.782 64.662 180.688 65.4642 180.551 66.5496C180.443 67.6132 180.281 69.1294 180.064 71.0981C180.665 71.4783 181.273 71.7277 181.887 71.8465C182.505 71.9395 183.062 71.997 183.56 72.0192C184.138 72.0272 184.698 71.9798 185.24 71.877C185.978 71.6984 186.588 71.3162 187.072 70.7305C187.581 70.1487 187.952 69.5199 188.185 68.844C188.448 68.1462 188.587 67.4824 188.603 66.8528C188.623 66.1973 188.525 65.7086 188.31 65.3866C187.887 64.8752 187.336 64.4236 186.658 64.0318C186.074 63.7071 185.312 63.4344 184.371 63.2138C183.459 62.9712 182.32 62.9314 180.952 63.0943ZM178.004 81.3748C178.883 82.0074 179.672 82.4553 180.369 82.7183C181.067 82.9813 181.661 83.1496 182.15 83.2232C182.717 83.3085 183.218 83.3048 183.653 83.2123C184.177 83.0542 184.7 82.8169 185.222 82.5003C185.773 82.1619 186.205 81.7398 186.518 81.2339C186.861 80.7061 187.057 80.1035 187.106 79.4262C187.159 78.7232 186.977 77.919 186.561 77.0135C186.161 76.3476 185.638 75.795 184.993 75.3556C184.418 74.9793 183.659 74.6808 182.718 74.4602C181.803 74.2434 180.624 74.2899 179.181 74.5996L178.004 81.3748ZM193.413 61.1377C194.505 61.4073 195.472 61.6319 196.314 61.8112C197.156 61.9906 197.857 62.1487 198.415 62.2854C199.077 62.4377 199.638 62.5616 200.098 62.6571C200.557 62.7526 201.122 62.8507 201.791 62.9514C202.354 63.0624 203.06 63.1819 203.91 63.3098C204.76 63.4376 205.764 63.5888 206.923 63.7631C206.122 64.0113 205.492 64.2589 205.034 64.5059C204.601 64.7568 204.264 64.9826 204.023 65.1834C203.723 65.4279 203.53 65.6622 203.443 65.8862C203.387 66.0883 203.386 66.4437 203.441 66.9524C203.496 67.461 203.593 68.0418 203.732 68.6947C203.875 69.3219 204.063 69.9955 204.297 70.7154C204.531 71.4353 204.787 72.0928 205.067 72.6878C205.375 73.261 205.698 73.744 206.034 74.1369C206.37 74.5298 206.72 74.7405 207.084 74.769C207.449 74.7975 207.911 74.696 208.473 74.4645C209.038 74.2072 209.628 73.8746 210.243 73.4667C210.883 73.0627 211.516 72.6181 212.142 72.1329C212.768 71.6477 213.328 71.1658 213.821 70.687C214.34 70.2121 214.762 69.7751 215.085 69.3761C215.438 68.9551 215.63 68.6417 215.661 68.4357C215.674 68.1743 215.616 67.8626 215.486 67.5007C215.374 67.1942 215.167 66.8207 214.864 66.3802C214.566 65.9139 214.133 65.3748 213.567 64.7629C215.667 65.1579 217.206 65.429 218.185 65.5763L219.614 65.7913L221.237 66.0355C221.829 66.1246 222.614 66.2428 223.593 66.39C224.575 66.5115 225.804 66.657 227.28 66.8263C226.175 67.3447 225.208 67.8182 224.38 68.2466C223.581 68.6531 222.898 68.9979 222.328 69.2809C221.67 69.6296 221.123 69.9422 220.686 70.2189C220.194 70.5135 219.504 70.989 218.615 71.6453C217.844 72.2141 216.82 72.9817 215.543 73.9482C214.269 74.8889 212.661 76.1217 210.72 77.6467C210.205 79.4917 209.822 80.9878 209.57 82.135C209.345 83.2861 209.181 84.1964 209.08 84.866C208.964 85.6385 208.929 86.2257 208.973 86.6274C209.056 86.9558 209.22 87.3493 209.467 87.8078C209.671 88.2071 209.967 88.6863 210.357 89.2453C210.773 89.8082 211.335 90.4459 212.044 91.1583C211.226 90.8244 210.45 90.5498 209.719 90.3344C209.014 90.1229 208.381 89.9487 207.823 89.812C207.165 89.634 206.565 89.5043 206.025 89.4229C205.458 89.3377 204.785 89.2627 204.004 89.1979C203.327 89.1487 202.519 89.0929 201.58 89.0307C200.642 88.9684 199.543 88.9216 198.283 88.8901C198.993 88.5492 199.587 88.1908 200.065 87.815C200.543 87.4393 200.925 87.0886 201.211 86.7629C201.556 86.3935 201.82 86.0382 202.003 85.6971C202.168 85.3005 202.334 84.7199 202.502 83.9551C202.654 83.2933 202.788 82.4049 202.903 81.2898C203.044 80.1786 203.178 78.7635 203.305 77.0445C202.132 74.3398 201.163 72.2057 200.397 70.6421C199.636 69.0527 199.041 67.844 198.612 67.0158C198.096 66.0691 197.718 65.4328 197.477 65.1069C197.251 64.8622 196.942 64.5523 196.551 64.1774C196.233 63.8399 195.82 63.4354 195.311 62.9639C194.781 62.4627 194.148 61.854 193.413 61.1377Z" fill="#E9000B"/>
<path d="M118.348 33.1911C118.235 33.1544 118.092 33.1181 117.92 33.0823C117.757 33.0479 117.598 33.0191 117.444 32.9958C117.27 32.9697 117.086 32.9469 116.891 32.9275C116.687 32.9066 116.483 32.8858 116.278 32.8649C116.103 32.8484 115.903 32.8331 115.678 32.819C115.464 32.7967 115.254 32.7799 115.048 32.7687C115.132 32.7417 115.207 32.6988 115.275 32.6399C115.353 32.5825 115.421 32.5236 115.48 32.4633C115.54 32.3933 115.595 32.3177 115.647 32.2366C115.717 32.0991 115.738 31.9245 115.711 31.713C115.685 31.4918 115.608 31.2827 115.48 31.0856C115.361 30.89 115.193 30.7265 114.976 30.595C114.769 30.4554 114.527 30.3942 114.248 30.4114C113.948 30.4354 113.672 30.4976 113.42 30.5979C113.177 30.6997 112.961 30.8597 112.77 31.0778C112.59 31.2878 112.44 31.5615 112.32 31.899C112.212 32.2283 112.136 32.6317 112.094 33.1092C112.044 33.7041 112.07 34.187 112.172 34.5579C112.274 34.9288 112.423 35.2179 112.619 35.4251C112.815 35.6324 113.041 35.7749 113.296 35.8528C113.562 35.9225 113.827 35.9624 114.092 35.9727C114.282 35.9617 114.463 35.905 114.636 35.8027C114.778 35.7154 114.917 35.5783 115.054 35.3915C115.191 35.2047 115.281 34.9319 115.325 34.5731L117.103 34.7666C116.815 35.3059 116.5 35.7227 116.16 36.0171C115.82 36.3018 115.502 36.5156 115.204 36.6584C114.853 36.8229 114.513 36.9198 114.182 36.9491C113.776 36.9571 113.419 36.9331 113.112 36.8769C112.806 36.8111 112.533 36.7207 112.294 36.6056C112.054 36.4906 111.837 36.3591 111.642 36.2113C111.447 36.0634 111.263 35.9074 111.09 35.7431C110.978 35.6373 110.859 35.4714 110.735 35.2454C110.611 35.0193 110.503 34.7561 110.41 34.4557C110.318 34.1456 110.255 33.8103 110.221 33.4495C110.186 33.0888 110.206 32.7264 110.28 32.3624C110.356 31.9886 110.5 31.6251 110.711 31.2717C110.922 30.9184 111.223 30.5933 111.613 30.2965C112.204 29.852 112.8 29.5961 113.403 29.5288C114.017 29.4533 114.578 29.4934 115.088 29.6491C115.6 29.7952 116.041 30.0146 116.411 30.3074C116.782 30.6002 117.029 30.8942 117.153 31.1893C117.276 31.4844 117.366 31.7101 117.421 31.8666C117.488 32.0149 117.534 32.1306 117.561 32.2136C117.6 32.2885 117.63 32.3474 117.653 32.3904C117.688 32.4252 117.734 32.4766 117.793 32.5448C117.834 32.6003 117.884 32.6621 117.943 32.7303C117.994 32.7873 118.052 32.8554 118.12 32.9346C118.187 33.0138 118.263 33.0993 118.348 33.1911ZM119.009 27.8097C119.282 27.9002 119.523 27.971 119.733 28.0223C119.952 28.075 120.133 28.1171 120.277 28.1486C120.449 28.1844 120.598 28.2117 120.723 28.2306C120.849 28.2495 121.029 28.2667 121.264 28.2823C121.46 28.2921 121.715 28.3057 122.028 28.3232C122.351 28.3422 122.749 28.3528 123.223 28.3549C123.082 28.3732 122.94 28.4654 122.796 28.6314C122.664 28.7893 122.539 28.963 122.422 29.1528C122.279 29.3782 122.147 29.63 122.026 29.908C121.92 30.1586 121.779 30.5028 121.604 30.9407C121.44 31.3801 121.269 31.858 121.092 32.3746C120.926 32.8927 120.777 33.4233 120.645 33.9665C120.516 34.5 120.431 34.9959 120.392 35.4541C120.362 35.9138 120.397 36.3042 120.497 36.6254C120.598 36.9369 120.797 37.1248 121.094 37.1892C121.542 37.2961 121.918 37.3576 122.221 37.3737C122.536 37.3815 122.795 37.3662 122.999 37.3277C123.202 37.2891 123.363 37.2344 123.483 37.1635C123.603 37.0829 123.699 37.0035 123.77 36.9253C123.958 36.7265 124.16 36.4656 124.377 36.1426C124.593 35.8197 124.788 35.5083 124.962 35.2085C125.145 34.9102 125.297 34.6565 125.417 34.4475C125.537 34.2384 125.597 34.1387 125.595 34.1484C125.592 34.1677 125.571 34.278 125.531 34.4794C125.502 34.6725 125.461 34.9084 125.409 35.187C125.369 35.4574 125.321 35.7415 125.266 36.0394C125.221 36.3388 125.178 36.594 125.136 36.805C125.101 36.9774 125.062 37.169 125.02 37.38C124.983 37.5621 124.941 37.7779 124.893 38.0275C124.855 38.2786 124.804 38.5524 124.74 38.8488C124.339 38.7588 123.955 38.6814 123.59 38.6165C123.224 38.5516 122.902 38.4981 122.621 38.456C122.293 38.4066 121.988 38.3656 121.707 38.3332C121.406 38.2978 121.056 38.2599 120.657 38.2197C120.316 38.1881 119.893 38.1491 119.386 38.1025C118.881 38.0462 118.297 37.988 117.635 37.9278C117.732 37.8042 117.814 37.6882 117.88 37.5795C117.955 37.4724 118.013 37.3823 118.054 37.3094C118.107 37.2187 118.143 37.1402 118.163 37.0741C118.268 36.7738 118.375 36.39 118.485 35.9226C118.596 35.4455 118.702 34.9381 118.803 34.4002C118.913 33.8638 119.01 33.3155 119.095 32.7554C119.19 32.1871 119.269 31.6608 119.332 31.1765C119.395 30.6922 119.439 30.2692 119.464 29.9076C119.498 29.5474 119.506 29.2967 119.488 29.1557C119.463 28.994 119.428 28.8307 119.384 28.666C119.346 28.5221 119.294 28.376 119.228 28.2278C119.172 28.0713 119.099 27.9319 119.009 27.8097ZM126.587 33.0682L129.248 33.4982C129.005 34.064 128.814 34.5488 128.674 34.9524C128.544 35.3575 128.448 35.6986 128.387 35.9757C128.3 36.2886 128.25 36.5575 128.236 36.7825C128.234 36.9897 128.25 37.2142 128.282 37.4562C128.311 37.658 128.365 37.8932 128.443 38.1617C128.521 38.4302 128.638 38.7046 128.793 38.9847C128.683 38.9287 128.562 38.8808 128.43 38.8411C128.297 38.8015 128.174 38.7681 128.06 38.741C127.926 38.711 127.791 38.6907 127.654 38.68C127.517 38.6693 127.365 38.6613 127.198 38.6559C127.06 38.6548 126.892 38.6543 126.695 38.6542C126.497 38.6541 126.289 38.6622 126.069 38.6785C126.279 38.2658 126.447 37.9058 126.572 37.5988C126.707 37.2932 126.81 37.0371 126.881 36.8304C126.957 36.5852 127.012 36.386 127.044 36.2329C127.074 36.0398 127.106 35.8225 127.143 35.5811C127.18 35.33 127.217 35.0886 127.252 34.8568C127.286 34.6251 127.312 34.4215 127.329 34.2463C127.347 34.0613 127.345 33.9425 127.323 33.8899L127.2 33.7233C127.149 33.6662 127.073 33.5856 126.97 33.4812C126.878 33.3687 126.751 33.231 126.587 33.0682ZM127.952 30.9922C128.17 30.9165 128.378 30.918 128.573 30.9968C128.778 31.0771 128.929 31.1935 129.024 31.3462C129.12 31.4988 129.134 31.6639 129.068 31.8416C129.012 32.0207 128.83 32.1761 128.524 32.3078C128.219 32.4299 127.964 32.4507 127.759 32.3705C127.554 32.2902 127.419 32.1663 127.356 31.9987C127.292 31.8311 127.304 31.6503 127.393 31.4562C127.483 31.2525 127.669 31.0978 127.952 30.9922ZM134.945 30.0002C135.283 30.0511 135.578 30.1548 135.831 30.3114C136.095 30.4597 136.333 30.619 136.544 30.789C136.765 30.9606 136.973 31.1203 137.168 31.2681C137.365 31.4063 137.574 31.4921 137.796 31.5255C137.972 31.542 138.173 31.5477 138.401 31.5425C138.6 31.5329 138.831 31.5084 139.094 31.4689C139.367 31.4212 139.676 31.3393 140.019 31.2231C139.654 31.4841 139.354 31.7056 139.119 31.8876C138.896 32.0613 138.721 32.2078 138.594 32.327C138.445 32.4626 138.335 32.5695 138.264 32.6477C138.19 32.7452 138.08 32.8915 137.932 33.0865C137.796 33.2637 137.612 33.5026 137.379 33.8033C137.148 34.0944 136.853 34.4796 136.495 34.9589C136.595 34.2926 136.605 33.7658 136.525 33.3785C136.455 32.9926 136.357 32.6915 136.231 32.4751C136.081 32.2254 135.895 32.0541 135.672 31.9613C135.464 31.9004 135.245 31.907 135.017 31.9813C134.79 32.0459 134.556 32.1588 134.314 32.3199C134.082 32.4826 133.849 32.6845 133.616 32.9259C133.393 33.159 133.182 33.4088 132.984 33.6752C132.796 33.9432 132.631 34.2195 132.489 34.5044C132.349 34.7795 132.246 35.0405 132.179 35.2872C132.117 35.5049 132.072 35.765 132.047 36.0672C132.022 36.3598 132.021 36.6657 132.042 36.9849C132.064 37.2945 132.107 37.6021 132.17 37.9078C132.232 38.2135 132.323 38.4938 132.443 38.7488C132.574 38.9957 132.73 39.2067 132.911 39.3821C133.093 39.5478 133.315 39.6455 133.578 39.675C133.87 39.6993 134.168 39.6553 134.472 39.5429C134.732 39.4537 135.007 39.2976 135.297 39.0747C135.589 38.8421 135.864 38.4933 136.122 38.0284L138.207 38.7421C137.475 39.4023 136.787 39.8765 136.141 40.1644C135.505 40.4539 134.943 40.641 134.457 40.7257C133.89 40.8182 133.365 40.8232 132.884 40.7409C132.286 40.5818 131.744 40.3126 131.258 39.9333C130.771 39.554 130.367 39.1228 130.045 38.6398C129.734 38.1486 129.51 37.6311 129.375 37.0873C129.24 36.5435 129.223 36.0275 129.326 35.5394C129.395 35.214 129.52 34.8427 129.701 34.4256C129.884 33.9988 130.107 33.5682 130.37 33.1337C130.642 32.7007 130.952 32.2831 131.299 31.881C131.646 31.479 132.014 31.1295 132.405 30.8327C132.797 30.5263 133.206 30.2966 133.634 30.1438C134.073 29.9827 134.51 29.9348 134.945 30.0002ZM139.381 30.9345C139.48 30.9988 139.601 31.0515 139.743 31.0926C139.894 31.1351 140.038 31.1666 140.173 31.1869C140.337 31.2116 140.507 31.2322 140.682 31.2487C140.857 31.2652 141.073 31.2779 141.328 31.2867C141.534 31.2979 141.789 31.3115 142.092 31.3276C142.396 31.3437 142.735 31.3552 143.109 31.3621C142.964 31.4094 142.837 31.4644 142.729 31.5271C142.621 31.5898 142.527 31.6547 142.448 31.7218C142.357 31.7971 142.282 31.8746 142.22 31.9542C142.135 32.0599 142.013 32.2489 141.853 32.5212C141.705 32.7852 141.547 33.0824 141.379 33.4126C141.22 33.7443 141.07 34.0822 140.93 34.4264C140.799 34.7721 140.71 35.0698 140.662 35.3194C140.62 35.5304 140.574 35.7704 140.524 36.0393C140.48 36.2696 140.427 36.553 140.367 36.8896C140.306 37.2261 140.238 37.6109 140.163 38.044C140.934 37.6465 141.53 37.3264 141.952 37.0837C142.375 36.8314 142.686 36.6362 142.884 36.4982C143.115 36.3452 143.255 36.233 143.305 36.1616C143.305 36.1022 143.29 36.0358 143.261 35.9623C143.222 35.8971 143.164 35.8194 143.089 35.729C143.014 35.6387 142.897 35.5322 142.737 35.4095C142.984 35.4762 143.198 35.5282 143.38 35.5655C143.572 35.6042 143.735 35.6386 143.868 35.6686C144.022 35.7015 144.157 35.7218 144.274 35.7296C144.4 35.7485 144.555 35.7669 144.74 35.7849C145.06 35.8232 145.555 35.8828 146.224 35.9637C145.526 36.2044 144.971 36.4171 144.558 36.6018C144.325 36.705 144.118 36.8022 143.936 36.8934C143.753 36.9942 143.564 37.0992 143.37 37.2082C143.198 37.3009 142.999 37.4092 142.773 37.5332C142.557 37.6586 142.339 37.7937 142.12 37.9385C142.375 38.5398 142.601 39.038 142.798 39.4331C143.005 39.8296 143.179 40.152 143.319 40.4003C143.483 40.6915 143.63 40.926 143.762 41.1038C143.894 41.2719 144.072 41.4666 144.296 41.6878C144.484 41.884 144.73 42.1185 145.034 42.3915C145.35 42.6563 145.733 42.9657 146.183 43.3199C145.94 43.2338 145.703 43.1637 145.474 43.1095C145.244 43.065 145.046 43.0352 144.881 43.0201C144.676 42.9993 144.49 42.991 144.321 42.9953C144.142 43.0077 143.941 43.0269 143.72 43.0529C143.529 43.0736 143.303 43.1037 143.04 43.1431C142.786 43.1937 142.503 43.2648 142.193 43.3564C142.397 43.2488 142.552 43.1388 142.658 43.0263C142.772 42.925 142.854 42.8386 142.904 42.7672C142.957 42.6764 142.984 42.5965 142.985 42.5274C142.951 42.4236 142.87 42.2089 142.741 41.8834C142.614 41.6076 142.428 41.2043 142.182 40.6735C141.936 40.1427 141.581 39.4178 141.117 38.4986C141.087 38.5039 141.034 38.5256 140.959 38.5638C140.894 38.6033 140.797 38.6578 140.668 38.7273C140.54 38.7871 140.368 38.8798 140.152 39.0052L140.162 41.599C140.069 41.6246 139.967 41.6438 139.857 41.6568C139.756 41.6712 139.66 41.6816 139.57 41.6878C139.46 41.7008 139.351 41.7041 139.243 41.6978C139.135 41.6915 139.007 41.6919 138.858 41.6991C138.729 41.6995 138.576 41.7011 138.398 41.7039C138.218 41.7164 138.014 41.7301 137.784 41.7449C137.923 41.6769 138.04 41.5908 138.134 41.4865C138.227 41.3919 138.306 41.3 138.368 41.2107C138.433 41.1117 138.493 41.0072 138.549 40.8971C138.583 40.8035 138.64 40.5553 138.72 40.1526C138.81 39.7514 138.907 39.2722 139.011 38.715C139.116 38.1481 139.222 37.5419 139.329 36.8963C139.445 36.2522 139.546 35.6453 139.632 35.0755C139.719 34.4961 139.79 33.9932 139.844 33.5669C139.9 33.1309 139.923 32.8479 139.913 32.718C139.888 32.5562 139.855 32.3834 139.813 32.1994C139.779 32.0361 139.723 31.85 139.645 31.6408C139.579 31.4235 139.491 31.1881 139.381 30.9345ZM150.67 33.9812C150.955 34.0537 151.193 34.1142 151.383 34.1626C151.583 34.2124 151.745 34.2516 151.869 34.2801C152.013 34.3116 152.128 34.3339 152.215 34.3469C152.3 34.3697 152.416 34.3871 152.562 34.3992C152.689 34.4085 152.855 34.4235 153.059 34.4444C153.265 34.4556 153.525 34.4651 153.84 34.473C153.758 34.5594 153.692 34.6383 153.641 34.7098C153.593 34.7715 153.549 34.8292 153.512 34.8828L153.399 35.0436C153.371 35.0986 153.343 35.1536 153.315 35.2087C153.288 35.254 153.26 35.3091 153.23 35.3738C153.211 35.4399 153.19 35.5109 153.169 35.5867L155.4 35.9224L155.02 37.0652L152.995 36.6419C152.873 37.1272 152.782 37.5035 152.722 37.771C152.662 38.0385 152.612 38.2336 152.574 38.3562L152.506 38.6126C152.422 38.9752 152.333 39.3716 152.238 39.8018C152.145 40.2223 152.076 40.6168 152.031 40.9852C151.985 41.3536 151.972 41.6678 151.992 41.9276C152.014 42.1777 152.097 42.3137 152.242 42.3355C152.387 42.3573 152.528 42.339 152.665 42.2806C152.802 42.2222 152.922 42.1465 153.025 42.0533C153.138 41.9616 153.226 41.8663 153.29 41.7674C153.356 41.6587 153.393 41.5755 153.402 41.5175C153.411 41.4596 153.407 41.3898 153.389 41.3082C153.363 41.1561 153.303 40.9595 153.211 40.7185C153.481 40.8282 153.717 40.9329 153.92 41.0325C154.02 41.0871 154.111 41.1402 154.192 41.1919C154.283 41.2451 154.387 41.3053 154.505 41.3724C154.604 41.4367 154.731 41.515 154.885 41.6073C155.039 41.6996 155.22 41.8107 155.427 41.9407C155.209 41.9474 155.045 41.9869 154.935 42.0593C154.872 42.0892 154.822 42.1261 154.785 42.1701C154.702 42.2661 154.603 42.3993 154.488 42.5697C154.375 42.7305 154.219 42.8847 154.019 43.0324C153.819 43.18 153.559 43.2989 153.239 43.3891C152.929 43.4807 152.526 43.4991 152.031 43.4443C151.516 43.3866 151.138 43.2408 150.897 43.007C150.665 42.7746 150.505 42.5235 150.418 42.2535C150.341 41.9753 150.312 41.7092 150.33 41.4552C150.349 41.2013 150.36 41.0301 150.363 40.9417C150.367 40.8534 150.399 40.6361 150.461 40.2899C150.523 39.9437 150.595 39.5644 150.677 39.1521C150.76 38.7301 150.841 38.3274 150.918 37.944C150.997 37.551 151.05 37.2627 151.078 37.0793C151.092 36.9827 151.112 36.882 151.138 36.7772C151.151 36.6903 151.165 36.5986 151.179 36.502C151.205 36.3973 151.225 36.2966 151.24 36.2L149.141 35.8695L149.179 35.0307L151.285 35.4069C151.282 35.2978 151.272 35.1976 151.256 35.1063C151.251 35.0068 151.244 34.9267 151.233 34.8658C151.214 34.7939 151.194 34.7316 151.172 34.6789C151.141 34.6248 151.105 34.5652 151.066 34.5C151.025 34.4444 150.972 34.3722 150.906 34.2833C150.84 34.1944 150.762 34.0937 150.67 33.9812ZM161.384 33.7565C161.903 33.8543 162.414 34.0301 162.919 34.2838C163.436 34.5294 163.892 34.8746 164.289 35.3195C164.688 35.7548 165.002 36.2909 165.232 36.9279C165.464 37.5553 165.555 38.2949 165.506 39.1467C165.47 39.8425 165.281 40.5102 164.938 41.1499C164.606 41.7813 164.19 42.3458 163.69 42.8435C163.191 43.3411 162.641 43.7472 162.041 44.0617C161.442 44.3666 160.862 44.5412 160.303 44.5853C159.963 44.6132 159.599 44.5683 159.212 44.4508C158.836 44.3251 158.458 44.1448 158.079 43.9099C157.71 43.6669 157.354 43.3763 157.01 43.0381C156.676 42.7014 156.381 42.3311 156.125 41.9273C155.872 41.5138 155.67 41.0787 155.522 40.6218C155.383 40.1664 155.324 39.7033 155.346 39.2325C155.356 38.8389 155.415 38.4133 155.523 37.9556C155.643 37.4897 155.805 37.0351 156.01 36.5919C156.226 36.1405 156.492 35.7164 156.809 35.3197C157.136 34.9147 157.523 34.5778 157.968 34.3091C158.415 34.0306 158.918 33.8397 159.476 33.7361C160.046 33.6243 160.682 33.6311 161.384 33.7565ZM157.908 39.2329C157.618 40.2459 157.589 41.0909 157.823 41.768C158.067 42.4466 158.516 42.9043 159.172 43.1412C159.49 43.2582 159.814 43.2379 160.144 43.0801C160.485 42.9142 160.811 42.6521 161.122 42.294C161.432 41.9358 161.719 41.505 161.983 41.0015C162.246 40.4979 162.465 39.963 162.639 39.3967C162.813 38.8303 162.896 38.3096 162.889 37.8344C162.892 37.3511 162.832 36.9321 162.708 36.5776C162.585 36.2135 162.411 35.9208 162.188 35.6995C161.974 35.4797 161.738 35.3405 161.48 35.282C161.031 35.1847 160.617 35.2459 160.238 35.4654C159.861 35.6753 159.525 35.9752 159.229 36.3653C158.933 36.7553 158.673 37.205 158.448 37.7143C158.233 38.2251 158.053 38.7313 157.908 39.2329Z" fill="#096A0B"/>
</svg>
