<svg width="465" height="307" viewBox="0 0 465 307" fill="none" xmlns="http://www.w3.org/2000/svg">
<rect width="457" height="302" fill="black" fill-opacity="0.69"/>
<path d="M27.118 75.836H41.022V85H20.956C17.48 81.7347 14.8467 77.6003 13.056 72.597C11.2653 67.5937 10.37 62.4587 10.37 57.192C10.37 51.8727 11.3707 46.764 13.372 41.866C15.3733 36.968 18.349 32.9127 22.299 29.7H41.022V39.18H27.118C25.696 40.8127 24.4583 43.446 23.405 47.08C22.4043 50.714 21.904 54.19 21.904 57.508C21.904 60.826 22.4043 64.302 23.405 67.936C24.4583 71.57 25.696 74.2033 27.118 75.836ZM64.8294 44.631H72.3344C74.6517 47.5803 76.2317 50.5297 77.0744 53.479C77.9171 56.4283 78.3384 60.115 78.3384 64.539V85H67.8314V63.749C67.8314 58.7457 67.1467 55.138 65.7774 52.926H56.9294V85H46.4224V29.7H56.9294V47.475C58.0881 46.4217 59.1677 45.6843 60.1684 45.263C61.2217 44.8417 62.7754 44.631 64.8294 44.631ZM103.881 66.751H95.4283C94.3223 68.1203 93.7693 69.832 93.7693 71.886C93.7693 73.94 94.3486 75.5463 95.5073 76.705H103.881V66.751ZM86.8963 44.631H106.488C109.648 46.527 111.729 48.7127 112.729 51.188C113.73 53.6107 114.23 56.9287 114.23 61.142V72.992C114.23 77.3633 114.336 81.366 114.546 85H105.54L104.118 82.156C102.064 84.052 99.1676 85 95.4283 85H90.4513C85.9746 82.0507 83.7363 77.811 83.7363 72.281C83.7363 66.6983 86.0273 62.3007 90.6093 59.088H98.0353C100.089 59.088 102.012 59.72 103.802 60.984V57.034C103.802 54.98 102.907 53.6107 101.116 52.926H86.8963V44.631ZM121.104 85V44.631H128.609L130.584 48.897C132.691 46.053 135.35 44.631 138.563 44.631H141.644V55.217H131.611V85H121.104ZM156.603 29.7V85H146.175V29.7H156.603ZM181.628 52.926H175.703C174.913 53.874 174.255 55.1907 173.728 56.876C173.254 58.5613 173.017 60.194 173.017 61.774H184.314C184.42 60.194 184.209 58.5613 183.682 56.876C183.156 55.138 182.471 53.8213 181.628 52.926ZM192.372 76.705V85H172.306C168.62 82.5247 166.013 79.47 164.485 75.836C163.011 72.1493 162.273 68.4363 162.273 64.697C162.273 56.0597 165.539 49.371 172.069 44.631H184.867C188.396 47.2117 190.792 49.9503 192.056 52.847C193.32 55.7437 193.952 58.6667 193.952 61.616C193.952 64.5653 193.715 67.0933 193.241 69.2H173.57C173.728 70.4113 174.176 71.807 174.913 73.387C175.703 74.9143 176.546 76.0203 177.441 76.705H192.372ZM201.969 44.631H219.428V52.926H207.104L214.609 64.065C217.98 68.8577 219.849 72.1493 220.218 73.94C220.429 74.7827 220.534 75.6517 220.534 76.547C220.534 80.2863 219.138 83.104 216.347 85H196.202V76.705H210.659L202.206 64.302C201.837 63.7227 201.258 62.9063 200.468 61.853C199.731 60.7997 199.151 59.957 198.73 59.325C198.309 58.6403 198.019 58.14 197.861 57.824C197.703 57.508 197.492 57.113 197.229 56.639C196.966 56.1123 196.781 55.6647 196.676 55.296C196.465 54.2953 196.36 53.479 196.36 52.847C196.36 49.0023 198.23 46.2637 201.969 44.631ZM246.178 59.72H245.862H246.178L250.365 42.419L253.762 29.7H263.637L267.192 85H256.843L255.342 54.822H254.947L249.259 77.1H242.781L237.093 54.822H236.698L235.197 85H224.848L228.403 29.7H238.278L241.675 42.419L245.862 59.72H246.178ZM292.201 66.751H283.748C282.642 68.1203 282.089 69.832 282.089 71.886C282.089 73.94 282.668 75.5463 283.827 76.705H292.201V66.751ZM275.216 44.631H294.808C297.968 46.527 300.048 48.7127 301.049 51.188C302.049 53.6107 302.55 56.9287 302.55 61.142V72.992C302.55 77.3633 302.655 81.366 302.866 85H293.86L292.438 82.156C290.384 84.052 287.487 85 283.748 85H278.771C274.294 82.0507 272.056 77.811 272.056 72.281C272.056 66.6983 274.347 62.3007 278.929 59.088H286.355C288.409 59.088 290.331 59.72 292.122 60.984V57.034C292.122 54.98 291.226 53.6107 289.436 52.926H275.216V44.631ZM326.882 44.631H335.256C337.574 47.5803 339.154 50.5297 339.996 53.479C340.839 56.4283 341.26 60.115 341.26 64.539V85H330.753V63.749C330.753 58.7457 330.069 55.138 328.699 52.926H319.851V85H309.344V44.631H317.56L318.982 47.475C320.141 46.4217 321.221 45.6843 322.221 45.263C323.275 44.8417 324.828 44.631 326.882 44.631ZM351.714 44.631H369.173V52.926H356.849L364.354 64.065C367.725 68.8577 369.595 72.1493 369.963 73.94C370.174 74.7827 370.279 75.6517 370.279 76.547C370.279 80.2863 368.884 83.104 366.092 85H345.947V76.705H360.404L351.951 64.302C351.583 63.7227 351.003 62.9063 350.213 61.853C349.476 60.7997 348.897 59.957 348.475 59.325C348.054 58.6403 347.764 58.14 347.606 57.824C347.448 57.508 347.238 57.113 346.974 56.639C346.711 56.1123 346.527 55.6647 346.421 55.296C346.211 54.2953 346.105 53.479 346.105 52.847C346.105 49.0023 347.975 46.2637 351.714 44.631ZM398.628 85H381.406C376.139 80.102 373.506 73.4133 373.506 64.934C373.506 60.668 374.085 56.955 375.244 53.795C376.455 50.635 378.351 47.5803 380.932 44.631H399.418C402.157 47.791 404.026 50.872 405.027 53.874C406.028 56.8233 406.528 60.51 406.528 64.934C406.528 73.4133 403.895 80.102 398.628 85ZM387.015 76.705H393.019C394.915 73.0183 395.863 68.8313 395.863 64.144C395.863 59.4567 394.889 55.7173 392.94 52.926H387.015C385.119 55.612 384.171 59.4303 384.171 64.381C384.171 69.279 385.119 73.387 387.015 76.705ZM429.721 44.631H438.095C440.412 47.5803 441.992 50.5297 442.835 53.479C443.678 56.4283 444.099 60.115 444.099 64.539V85H433.592V63.749C433.592 58.7457 432.907 55.138 431.538 52.926H422.69V85H412.183V44.631H420.399L421.821 47.475C422.98 46.4217 424.059 45.6843 425.06 45.263C426.113 44.8417 427.667 44.631 429.721 44.631ZM167.901 172V128.6H185.571C187.596 129.344 189.394 130.646 190.965 132.506C192.535 134.366 193.321 136.619 193.321 139.264C193.321 143.935 191.791 147.2 188.733 149.06V149.308C192.535 151.416 194.437 154.723 194.437 159.228C194.437 164.395 191.812 168.652 186.563 172H167.901ZM176.333 146.518H182.471C184.289 145.402 185.199 143.707 185.199 141.434C185.199 139.161 184.351 137.363 182.657 136.04H176.333V146.518ZM176.333 164.808H182.719C183.463 164.271 184.124 163.423 184.703 162.266C185.323 161.109 185.633 159.951 185.633 158.794C185.633 157.637 185.385 156.583 184.889 155.632C184.393 154.681 183.773 153.979 183.029 153.524H176.333V164.808ZM212.973 146.828H208.323C207.703 147.572 207.187 148.605 206.773 149.928C206.401 151.251 206.215 152.532 206.215 153.772H215.081C215.164 152.532 214.999 151.251 214.585 149.928C214.172 148.564 213.635 147.531 212.973 146.828ZM221.405 165.49V172H205.657C202.764 170.057 200.718 167.66 199.519 164.808C198.362 161.915 197.783 159.001 197.783 156.066C197.783 149.287 200.346 144.038 205.471 140.318H215.515C218.285 142.343 220.165 144.493 221.157 146.766C222.149 149.039 222.645 151.333 222.645 153.648C222.645 155.963 222.459 157.947 222.087 159.6H206.649C206.773 160.551 207.125 161.646 207.703 162.886C208.323 164.085 208.985 164.953 209.687 165.49H221.405ZM241.128 146.828H236.478C235.858 147.572 235.341 148.605 234.928 149.928C234.556 151.251 234.37 152.532 234.37 153.772H243.236C243.318 152.532 243.153 151.251 242.74 149.928C242.326 148.564 241.789 147.531 241.128 146.828ZM249.56 165.49V172H233.812C230.918 170.057 228.872 167.66 227.674 164.808C226.516 161.915 225.938 159.001 225.938 156.066C225.938 149.287 228.5 144.038 233.626 140.318H243.67C246.439 142.343 248.32 144.493 249.312 146.766C250.304 149.039 250.8 151.333 250.8 153.648C250.8 155.963 250.614 157.947 250.242 159.6H234.804C234.928 160.551 235.279 161.646 235.858 162.886C236.478 164.085 237.139 164.953 237.842 165.49H249.56ZM256.214 158.174V146.828H251.936V140.318H256.214V131.7H264.46V140.318H269.544V146.828H264.46V160.158C264.46 162.679 264.894 164.457 265.762 165.49H269.544V172H260.74C258.55 169.975 257.227 167.784 256.772 165.428C256.4 163.444 256.214 161.026 256.214 158.174ZM281.853 128.6V172H273.669V128.6H281.853ZM301.493 146.828H296.843C296.223 147.572 295.706 148.605 295.293 149.928C294.921 151.251 294.735 152.532 294.735 153.772H303.601C303.684 152.532 303.518 151.251 303.105 149.928C302.692 148.564 302.154 147.531 301.493 146.828ZM309.925 165.49V172H294.177C291.284 170.057 289.238 167.66 288.039 164.808C286.882 161.915 286.303 159.001 286.303 156.066C286.303 149.287 288.866 144.038 293.991 140.318H304.035C306.804 142.343 308.685 144.493 309.677 146.766C310.669 149.039 311.165 151.333 311.165 153.648C311.165 155.963 310.979 157.947 310.607 159.6H295.169C295.293 160.551 295.644 161.646 296.223 162.886C296.843 164.085 297.504 164.953 298.207 165.49H309.925ZM315.325 140.318H323.447V168.838C323.447 171.979 323.075 174.48 322.331 176.34C321.587 178.2 320.037 179.853 317.681 181.3H309.497V174.79H313.775C314.809 174.17 315.325 173.178 315.325 171.814V140.318ZM315.325 128.6H323.447V137.59H315.325V128.6ZM339.741 172H333.231C331.412 169.685 330.172 167.371 329.511 165.056C328.849 162.741 328.519 159.848 328.519 156.376V140.318H336.765V156.996C336.765 160.757 337.509 163.589 338.997 165.49H344.763V140.318H353.009V172H346.499L345.383 169.768C343.812 171.256 341.931 172 339.741 172ZM358.313 172V140.318H366.497V172H358.313ZM358.313 128.6H366.497V136.97H358.313V128.6ZM379.503 155.88C379.503 157.616 379.772 159.393 380.309 161.212C380.847 162.989 381.591 164.415 382.541 165.49H391.841V172H378.263C373.386 168.115 370.947 162.741 370.947 155.88C370.947 149.019 373.551 143.831 378.759 140.318H391.841V146.828H382.541C380.516 148.936 379.503 151.953 379.503 155.88ZM409.085 146.828H404.435C403.815 147.572 403.298 148.605 402.885 149.928C402.513 151.251 402.327 152.532 402.327 153.772H411.193C411.275 152.532 411.11 151.251 410.697 149.928C410.283 148.564 409.746 147.531 409.085 146.828ZM417.517 165.49V172H401.769C398.875 170.057 396.829 167.66 395.631 164.808C394.473 161.915 393.895 159.001 393.895 156.066C393.895 149.287 396.457 144.038 401.583 140.318H411.627C414.396 142.343 416.277 144.493 417.269 146.766C418.261 149.039 418.757 151.333 418.757 153.648C418.757 155.963 418.571 157.947 418.199 159.6H402.761C402.885 160.551 403.236 161.646 403.815 162.886C404.435 164.085 405.096 164.953 405.799 165.49H417.517ZM10.79 282V264.02H8.31V260.3H15.13V282H10.79ZM17.4288 282L23.6598 264.02H17.1498V260.3H28.2168V263.183L21.7998 282H17.4288ZM29.5685 282L35.7995 264.02H29.2895V260.3H40.3565V263.183L33.9395 282H29.5685ZM48.4412 272.142H45.5582C45.0622 273.175 44.8142 274.085 44.8142 274.87C44.8142 275.635 44.9072 276.348 45.0932 277.009C45.2792 277.67 45.4859 278.135 45.7132 278.404H48.4102C48.9682 277.433 49.2472 276.337 49.2472 275.118C49.2472 273.878 48.9785 272.886 48.4412 272.142ZM48.2242 268.546H49.8362C51.0142 269.145 51.9235 270.034 52.5642 271.212C53.2255 272.369 53.5562 273.558 53.5562 274.777C53.5562 277.691 52.3989 280.099 50.0842 282H44.1322C41.7762 280.326 40.5982 277.918 40.5982 274.777C40.5982 273.723 40.7532 272.586 41.0632 271.367C41.3939 270.148 41.7245 269.135 42.0552 268.329C42.4065 267.523 42.8819 266.5 43.4812 265.26L45.7132 260.3H50.0222L45.9922 269.259C46.7569 268.784 47.5009 268.546 48.2242 268.546ZM60.173 264.02V271.77H62.932C64.0687 270.84 64.637 269.476 64.637 267.678C64.637 266.913 64.482 266.19 64.172 265.508C63.8827 264.826 63.5313 264.33 63.118 264.02H60.173ZM55.988 282V260.3H64.389C65.7943 260.92 66.9 261.871 67.706 263.152C68.5327 264.433 68.946 265.932 68.946 267.647C68.946 269.342 68.5223 270.912 67.675 272.359C66.8277 273.806 65.5773 274.829 63.924 275.428H60.173V282H55.988ZM71.0605 282V266.159H75.1525V282H71.0605ZM71.0605 260.3H75.1525V264.485H71.0605V260.3ZM78.7415 275.087V269.414H76.6025V266.159H78.7415V261.85H82.8645V266.159H85.4065V269.414H82.8645V276.079C82.8645 277.34 83.0815 278.228 83.5155 278.745H85.4065V282H81.0045C79.9092 280.987 79.2478 279.892 79.0205 278.714C78.8345 277.722 78.7415 276.513 78.7415 275.087ZM87.4687 260.3H91.5607V267.275C92.0154 266.862 92.4391 266.572 92.8317 266.407C93.2451 266.242 93.8547 266.159 94.6607 266.159H97.1407C98.0087 267.006 98.6907 268.102 99.1867 269.445C99.6827 270.788 99.9307 272.266 99.9307 273.878C99.9307 277.329 98.8974 280.037 96.8307 282H93.8857C92.8731 282 92.0257 281.618 91.3437 280.853L90.7857 282H87.4687V260.3ZM91.5917 278.745H94.5677C95.3324 277.443 95.7147 275.862 95.7147 274.002C95.7147 272.142 95.3221 270.613 94.5367 269.414H91.5917V278.745ZM107.638 282H104.383C103.474 280.843 102.854 279.685 102.523 278.528C102.193 277.371 102.027 275.924 102.027 274.188V266.159H106.15V274.498C106.15 276.379 106.522 277.794 107.266 278.745H110.149V266.159H114.272V282H111.017L110.459 280.884C109.674 281.628 108.734 282 107.638 282ZM121.017 260.3V282H116.925V260.3H121.017ZM127.768 260.3V282H123.676V260.3H127.768Z" fill="#DFFFA5"/>
<path d="M22.878 172L21.975 167.227H15.181L14.278 172H8.43L14.235 141.9H23.136L28.64 172H22.878ZM18.492 147.49L16.815 157.509L15.869 162.626H21.244L20.255 157.509L18.578 147.49H18.492ZM36.6051 141.9V172H30.9291V141.9H36.6051ZM50.2263 154.542H47.0013C46.5713 155.058 46.213 155.775 45.9263 156.692C45.6683 157.609 45.5393 158.498 45.5393 159.358H51.6883C51.7457 158.498 51.631 157.609 51.3443 156.692C51.0577 155.746 50.685 155.029 50.2263 154.542ZM56.0743 167.485V172H45.1523C43.1457 170.653 41.7267 168.99 40.8953 167.012C40.0927 165.005 39.6913 162.984 39.6913 160.949C39.6913 156.248 41.4687 152.607 45.0233 150.027H51.9893C53.91 151.432 55.2143 152.922 55.9023 154.499C56.5903 156.076 56.9343 157.667 56.9343 159.272C56.9343 160.877 56.8053 162.253 56.5473 163.4H45.8403C45.9263 164.059 46.17 164.819 46.5713 165.679C47.0013 166.51 47.46 167.112 47.9473 167.485H56.0743ZM66.6668 158.197L69.3328 150.027H75.3098L71.2248 160.734L75.4818 172H69.5908L66.6238 163.486H66.4518L63.6138 172H57.7228L61.9798 160.734L57.8948 150.027H63.7858L66.4948 158.197H66.6668ZM76.3374 167.012H80.7664C81.2824 166.353 81.6121 165.593 81.7554 164.733C81.8987 163.844 81.9704 162.067 81.9704 159.401V141.9H87.8614V157.38C87.8614 159.301 87.8184 160.791 87.7324 161.852C87.6751 162.913 87.5031 164.117 87.2164 165.464C86.6717 168.015 85.3101 170.194 83.1314 172H76.3374V167.012ZM104.596 172H95.2218C92.3551 169.334 90.9218 165.693 90.9218 161.078C90.9218 158.756 91.2371 156.735 91.8678 155.015C92.5271 153.295 93.5591 151.632 94.9638 150.027H105.026C106.516 151.747 107.534 153.424 108.079 155.058C108.623 156.663 108.896 158.67 108.896 161.078C108.896 165.693 107.462 169.334 104.596 172ZM98.2748 167.485H101.543C102.575 165.478 103.091 163.199 103.091 160.648C103.091 158.097 102.56 156.061 101.5 154.542H98.2748C97.2428 156.004 96.7268 158.082 96.7268 160.777C96.7268 163.443 97.2428 165.679 98.2748 167.485ZM121.52 150.027H126.078C127.339 151.632 128.199 153.238 128.658 154.843C129.117 156.448 129.346 158.455 129.346 160.863V172H123.627V160.433C123.627 157.71 123.254 155.746 122.509 154.542H117.693V172H111.974V150.027H116.446L117.22 151.575C117.851 151.002 118.438 150.6 118.983 150.371C119.556 150.142 120.402 150.027 121.52 150.027ZM142.819 154.542H139.594C139.164 155.058 138.806 155.775 138.519 156.692C138.261 157.609 138.132 158.498 138.132 159.358H144.281C144.338 158.498 144.224 157.609 143.937 156.692C143.65 155.746 143.278 155.029 142.819 154.542ZM148.667 167.485V172H137.745C135.738 170.653 134.319 168.99 133.488 167.012C132.685 165.005 132.284 162.984 132.284 160.949C132.284 156.248 134.061 152.607 137.616 150.027H144.582C146.503 151.432 147.807 152.922 148.495 154.499C149.183 156.076 149.527 157.667 149.527 159.272C149.527 160.877 149.398 162.253 149.14 163.4H138.433C138.519 164.059 138.763 164.819 139.164 165.679C139.594 166.51 140.053 167.112 140.54 167.485H148.667ZM153.891 150.027H163.394V154.542H156.686L160.771 160.605C162.605 163.214 163.623 165.005 163.824 165.98C163.938 166.439 163.996 166.912 163.996 167.399C163.996 169.434 163.236 170.968 161.717 172H150.752V167.485H158.621L154.02 160.734C153.819 160.419 153.504 159.974 153.074 159.401C152.672 158.828 152.357 158.369 152.128 158.025C151.898 157.652 151.741 157.38 151.655 157.208C151.569 157.036 151.454 156.821 151.311 156.563C151.167 156.276 151.067 156.033 151.01 155.832C150.895 155.287 150.838 154.843 150.838 154.499C150.838 152.406 151.855 150.916 153.891 150.027Z" fill="#C6C501"/>
<path d="M150.503 293.85H141.971C135.229 283.369 131.859 270.808 131.859 256.167C131.859 241.473 135.229 229.017 141.971 218.8H150.503C144.288 229.491 141.181 241.894 141.181 256.009C141.181 270.071 144.288 282.685 150.503 293.85ZM154.333 282V226.7H165.156V250.005H165.551L175.426 226.7H186.565L175.031 253.086L187.118 282H175.11L165.709 257.826H165.156V282H154.333ZM208.774 263.751H200.321C199.215 265.12 198.662 266.832 198.662 268.886C198.662 270.94 199.241 272.546 200.4 273.705H208.774V263.751ZM191.789 241.631H211.381C214.541 243.527 216.621 245.713 217.622 248.188C218.623 250.611 219.123 253.929 219.123 258.142V269.992C219.123 274.363 219.228 278.366 219.439 282H210.433L209.011 279.156C206.957 281.052 204.06 282 200.321 282H195.344C190.867 279.051 188.629 274.811 188.629 269.281C188.629 263.698 190.92 259.301 195.502 256.088H202.928C204.982 256.088 206.904 256.72 208.695 257.984V254.034C208.695 251.98 207.8 250.611 206.009 249.926H191.789V241.631ZM225.997 282V241.631H233.502L235.477 245.897C237.583 243.053 240.243 241.631 243.456 241.631H246.537V252.217H236.504V282H225.997ZM267.851 249.926H261.926C261.136 250.874 260.478 252.191 259.951 253.876C259.477 255.561 259.24 257.194 259.24 258.774H270.537C270.642 257.194 270.432 255.561 269.905 253.876C269.378 252.138 268.694 250.821 267.851 249.926ZM278.595 273.705V282H258.529C254.842 279.525 252.235 276.47 250.708 272.836C249.233 269.149 248.496 265.436 248.496 261.697C248.496 253.06 251.761 246.371 258.292 241.631H271.09C274.619 244.212 277.015 246.95 278.279 249.847C279.543 252.744 280.175 255.667 280.175 258.616C280.175 261.565 279.938 264.093 279.464 266.2H259.793C259.951 267.411 260.399 268.807 261.136 270.387C261.926 271.914 262.769 273.02 263.664 273.705H278.595ZM303.014 241.631H311.388C313.705 244.58 315.285 247.53 316.128 250.479C316.971 253.428 317.392 257.115 317.392 261.539V282H306.885V260.749C306.885 255.746 306.2 252.138 304.831 249.926H295.983V282H285.476V241.631H293.692L295.114 244.475C296.273 243.422 297.352 242.684 298.353 242.263C299.406 241.842 300.96 241.631 303.014 241.631ZM329.031 293.85H320.499C326.714 282.685 329.821 270.071 329.821 256.009C329.821 241.894 326.714 229.491 320.499 218.8H329.031C335.772 229.017 339.143 241.473 339.143 256.167C339.143 270.808 335.772 283.369 329.031 293.85Z" fill="#EA000B"/>
</svg>
