<svg width="92" height="23" viewBox="0 0 92 23" fill="none" xmlns="http://www.w3.org/2000/svg">
<path d="M0.401367 0.613281C1.02637 0.710938 1.59277 0.798828 2.10059 0.876953C2.6084 0.935547 3.04785 0.984375 3.41895 1.02344C3.84863 1.08203 4.22949 1.13086 4.56152 1.16992C4.97168 1.22852 5.58691 1.16016 6.40723 0.964844C7.22754 0.75 8.12598 0.554688 9.10254 0.378906C10.0986 0.183594 11.1143 0.0761719 12.1494 0.0566406C13.1846 0.0175781 14.1318 0.203125 14.9912 0.613281C15.8506 1.02344 16.5537 1.43359 17.1006 1.84375C17.6475 2.25391 18.0771 2.69336 18.3896 3.16211C18.7217 3.61133 18.9561 4.08984 19.0928 4.59766C19.2295 5.10547 19.3076 5.66211 19.3271 6.26758C19.3076 7.16602 19.0928 8.03516 18.6826 8.875C18.5068 9.22656 18.2725 9.59766 17.9795 9.98828C17.7061 10.3594 17.3643 10.7207 16.9541 11.0723C16.5439 11.4238 16.0557 11.7559 15.4893 12.0684C14.9424 12.3809 14.2979 12.6543 13.5557 12.8887C14.2783 13.1035 14.874 13.3574 15.3428 13.6504C15.8311 13.9434 16.2217 14.2168 16.5146 14.4707C16.8662 14.7832 17.1299 15.0859 17.3057 15.3789C17.5205 15.7891 17.667 16.1406 17.7451 16.4336C17.8232 16.7266 17.8721 17.0098 17.8916 17.2832C17.9307 17.5371 17.9795 17.8008 18.0381 18.0742C18.0967 18.3477 18.2236 18.6602 18.4189 19.0117C18.5752 19.2852 18.7607 19.5684 18.9756 19.8613C19.1709 20.1152 19.3955 20.3887 19.6494 20.6816C19.9229 20.9746 20.2549 21.2578 20.6455 21.5312C20.0986 21.5508 19.5908 21.5605 19.1221 21.5605C18.6729 21.5605 18.2822 21.5605 17.9502 21.5605C17.5596 21.5605 17.1885 21.5508 16.8369 21.5312C16.4854 21.5117 16.0459 21.502 15.5186 21.502C15.0693 21.502 14.4932 21.502 13.79 21.502C13.1064 21.502 12.2764 21.5117 11.2998 21.5312C11.7295 21.1992 12.0811 20.8672 12.3545 20.5352C12.6279 20.2031 12.8428 19.9004 12.999 19.627C13.1748 19.3145 13.3018 19.0117 13.3799 18.7188C13.4775 18.1914 13.4873 17.6445 13.4092 17.0781C13.3506 16.5898 13.1943 16.0527 12.9404 15.4668C12.6865 14.8613 12.2764 14.2559 11.71 13.6504C11.1436 13.748 10.665 13.8262 10.2744 13.8848C9.90332 13.9238 9.58105 13.9629 9.30762 14.002C8.99512 14.041 8.74121 14.0703 8.5459 14.0898C8.37012 14.1094 8.1748 14.1289 7.95996 14.1484C7.78418 14.168 7.58887 14.1973 7.37402 14.2363C7.17871 14.2559 6.99316 14.2852 6.81738 14.3242C6.77832 15.1641 6.77832 15.8965 6.81738 16.5215C6.85645 17.127 6.90527 17.6348 6.96387 18.0449C7.04199 18.5332 7.12988 18.9531 7.22754 19.3047C7.3252 19.6562 7.46191 19.998 7.6377 20.3301C7.77441 20.6035 7.9502 20.8965 8.16504 21.209C8.37988 21.502 8.62402 21.7461 8.89746 21.9414C8.38965 21.9414 7.90137 21.9414 7.43262 21.9414C6.9834 21.9414 6.57324 21.9316 6.20215 21.9121C5.77246 21.9121 5.3623 21.9023 4.97168 21.8828C4.58105 21.8633 4.1416 21.8535 3.65332 21.8535C3.24316 21.8535 2.75488 21.8535 2.18848 21.8535C1.6416 21.8535 1.0459 21.8633 0.401367 21.8828C0.90918 21.3555 1.30957 20.9062 1.60254 20.5352C1.89551 20.1641 2.12012 19.8516 2.27637 19.5977C2.45215 19.3242 2.55957 19.0898 2.59863 18.8945C2.6377 18.582 2.66699 18.0254 2.68652 17.2246C2.72559 16.4043 2.75488 15.4668 2.77441 14.4121C2.79395 13.3574 2.80371 12.2539 2.80371 11.1016C2.80371 9.94922 2.79395 8.875 2.77441 7.87891C2.75488 6.86328 2.73535 5.99414 2.71582 5.27148C2.69629 4.54883 2.67676 4.08984 2.65723 3.89453C2.59863 3.54297 2.47168 3.19141 2.27637 2.83984C2.12012 2.52734 1.89551 2.17578 1.60254 1.78516C1.30957 1.39453 0.90918 1.00391 0.401367 0.613281ZM11.4756 10.9258C11.6709 10.8086 11.8369 10.6914 11.9736 10.5742C12.1104 10.457 12.2275 10.2715 12.3252 10.0176C12.4229 9.74414 12.501 9.36328 12.5596 8.875C12.6377 8.38672 12.7256 7.72266 12.8232 6.88281C12.9014 6.04297 12.8428 5.34961 12.6475 4.80273C12.4717 4.25586 12.2275 3.82617 11.915 3.51367C11.6221 3.18164 11.29 2.95703 10.9189 2.83984C10.5674 2.70313 10.2549 2.63477 9.98145 2.63477C9.43457 2.63477 8.89746 2.80078 8.37012 3.13281C7.84277 3.46484 7.44238 3.91406 7.16895 4.48047C7.07129 4.73437 6.9834 5.1543 6.90527 5.74023C6.84668 6.24805 6.80762 6.95117 6.78809 7.84961C6.76855 8.74805 6.79785 9.92969 6.87598 11.3945C7.61816 11.5117 8.27246 11.5605 8.83887 11.541C9.40527 11.502 9.88379 11.4336 10.2744 11.3359C10.7432 11.2383 11.1436 11.1016 11.4756 10.9258ZM20.0596 1.4043C20.6455 1.52148 21.1436 1.60938 21.5537 1.66797C21.9639 1.72656 22.3057 1.77539 22.5791 1.81445C22.8916 1.85352 23.1553 1.87305 23.3701 1.87305C23.585 1.87305 23.8779 1.86328 24.249 1.84375C24.5811 1.82422 25.001 1.81445 25.5088 1.81445C26.0166 1.79492 26.6611 1.76563 27.4424 1.72656C26.9932 2.03906 26.6318 2.30273 26.3584 2.51758C26.085 2.73242 25.8799 2.91797 25.7432 3.07422C25.5674 3.25 25.46 3.39648 25.4209 3.51367C25.3818 3.5918 25.3428 3.88477 25.3037 4.39258C25.2646 4.88086 25.2256 5.50586 25.1865 6.26758C25.167 7.00977 25.167 7.84961 25.1865 8.78711C25.2061 9.70508 25.2549 10.6426 25.333 11.5996C25.4307 12.5566 25.5674 13.4844 25.7432 14.3828C25.9189 15.2617 26.1533 16.0332 26.4463 16.6973C26.7588 17.3613 27.1299 17.8789 27.5596 18.25C28.0088 18.6211 28.5459 18.7578 29.1709 18.6602C29.9912 18.543 30.6553 18.1426 31.1631 17.459C31.6709 16.7754 32.0518 15.9453 32.3057 14.9688C32.5791 13.9922 32.7451 12.9473 32.8037 11.834C32.8818 10.7012 32.8916 9.64648 32.833 8.66992C32.7939 7.67383 32.7158 6.81445 32.5986 6.0918C32.4814 5.36914 32.374 4.91992 32.2764 4.74414C32.1592 4.54883 32.0029 4.32422 31.8076 4.07031C31.6514 3.85547 31.4463 3.61133 31.1924 3.33789C30.9385 3.04492 30.6455 2.73242 30.3135 2.40039C30.9189 2.41992 31.4658 2.43945 31.9541 2.45898C32.4424 2.45898 32.8525 2.46875 33.1846 2.48828C33.5752 2.50781 33.9268 2.52734 34.2393 2.54688C34.5518 2.56641 34.9424 2.5957 35.4111 2.63477C35.8018 2.67383 36.2998 2.71289 36.9053 2.75195C37.5303 2.79102 38.2725 2.84961 39.1318 2.92773C38.7998 3.00586 38.5264 3.11328 38.3115 3.25C38.1162 3.38672 37.96 3.5332 37.8428 3.68945C37.7061 3.86523 37.6084 4.04102 37.5498 4.2168C37.4912 4.37305 37.4424 4.8418 37.4033 5.62305C37.3838 6.38477 37.3447 7.3125 37.2861 8.40625C37.2471 9.48047 37.1787 10.6523 37.0811 11.9219C36.9834 13.1719 36.8271 14.3633 36.6123 15.4961C36.417 16.6289 36.1533 17.6348 35.8213 18.5137C35.5088 19.3926 35.0986 19.998 34.5908 20.3301C33.8486 20.8184 33.0674 21.1699 32.2471 21.3848C31.4268 21.5801 30.5967 21.6875 29.7568 21.707C28.917 21.707 28.0869 21.6387 27.2666 21.502C26.4658 21.3457 25.6943 21.1602 24.9521 20.9453C24.1904 20.7109 23.5557 20.1836 23.0479 19.3633C22.5596 18.543 22.1689 17.5762 21.876 16.4629C21.6025 15.3301 21.3975 14.1191 21.2607 12.8301C21.1436 11.5215 21.0654 10.2617 21.0264 9.05078C21.0068 7.83984 21.0068 6.74609 21.0264 5.76953C21.0654 4.77344 21.0947 4.02148 21.1143 3.51367C21.1143 3.25977 21.0752 3.01562 20.9971 2.78125C20.9385 2.56641 20.8311 2.3418 20.6748 2.10742C20.5381 1.85352 20.333 1.61914 20.0596 1.4043ZM39.249 0.759766C39.8154 0.857422 40.3135 0.925781 40.7432 0.964844C41.1924 1.00391 41.5635 1.0332 41.8564 1.05273C42.208 1.07227 42.5107 1.08203 42.7646 1.08203C43.0186 1.08203 43.3799 1.0625 43.8486 1.02344C44.2393 0.984375 44.7471 0.935547 45.3721 0.876953C46.0166 0.818359 46.8076 0.720703 47.7451 0.583984C47.4717 0.662109 47.2178 0.886719 46.9834 1.25781C46.7686 1.60938 46.5732 1.99023 46.3975 2.40039C46.1826 2.88867 45.9971 3.42578 45.8408 4.01172C45.7041 4.53906 45.5283 5.26172 45.3135 6.17969C45.1182 7.09766 44.9229 8.09375 44.7275 9.16797C44.5518 10.2422 44.415 11.3359 44.3174 12.4492C44.2197 13.543 44.2002 14.5488 44.2588 15.4668C44.3369 16.3848 44.5225 17.1465 44.8154 17.752C45.1084 18.3379 45.5576 18.6504 46.1631 18.6895C47.0811 18.7676 47.8428 18.7773 48.4482 18.7188C49.0732 18.6406 49.5811 18.5332 49.9717 18.3965C50.3623 18.2598 50.665 18.1035 50.8799 17.9277C51.0947 17.7324 51.2607 17.5469 51.3779 17.3711C51.6904 16.9219 52.0127 16.3457 52.3447 15.6426C52.6768 14.9395 52.9697 14.2656 53.2236 13.6211C53.4971 12.9766 53.7217 12.4297 53.8975 11.9805C54.0732 11.5312 54.1611 11.3164 54.1611 11.3359C54.1611 11.375 54.1514 11.5996 54.1318 12.0098C54.1318 12.4004 54.1221 12.8789 54.1025 13.4453C54.1025 13.9922 54.0928 14.5684 54.0732 15.1738C54.0732 15.7793 54.0635 16.2969 54.0439 16.7266C54.0244 17.0781 54.0049 17.4688 53.9854 17.8984C53.9658 18.2695 53.9463 18.709 53.9268 19.2168C53.9268 19.7246 53.9072 20.2812 53.8682 20.8867C53.0479 20.8281 52.2666 20.7891 51.5244 20.7695C50.7822 20.75 50.1279 20.7402 49.5615 20.7402C48.8975 20.7402 48.2822 20.75 47.7158 20.7695C47.1104 20.7891 46.4072 20.8184 45.6064 20.8574C44.9229 20.8965 44.0732 20.9453 43.0576 21.0039C42.042 21.043 40.8701 21.1016 39.542 21.1797C39.6982 20.9062 39.8252 20.6523 39.9229 20.418C40.04 20.1836 40.1279 19.9883 40.1865 19.832C40.2646 19.6367 40.3135 19.4707 40.333 19.334C40.4502 18.709 40.5479 17.918 40.626 16.9609C40.7041 15.9844 40.7627 14.9492 40.8018 13.8555C40.8604 12.7617 40.8896 11.6484 40.8896 10.5156C40.9092 9.36328 40.9092 8.29883 40.8896 7.32227C40.8701 6.3457 40.8311 5.49609 40.7725 4.77344C40.7334 4.05078 40.6748 3.55273 40.5967 3.2793C40.499 2.9668 40.3818 2.6543 40.2451 2.3418C40.1279 2.06836 39.9814 1.79492 39.8057 1.52148C39.6494 1.22852 39.4639 0.974609 39.249 0.759766ZM53.5752 1.99023C54.9424 2.0293 56.0752 2.05859 56.9736 2.07812C57.8916 2.07812 58.6338 2.07812 59.2002 2.07812H60.7529H69.4834C69.5225 2.46875 69.5518 2.84961 69.5713 3.2207C69.6104 3.57227 69.6299 3.88477 69.6299 4.1582C69.6299 4.49023 69.6201 4.79297 69.6006 5.06641C69.5811 5.33984 69.5518 5.63281 69.5127 5.94531C69.4736 6.21875 69.4346 6.51172 69.3955 6.82422C69.3564 7.13672 69.2881 7.45898 69.1904 7.79102C68.917 6.73633 68.5459 5.93555 68.0771 5.38867C67.6279 4.8418 67.1689 4.44141 66.7002 4.1875C66.1533 3.89453 65.5771 3.73828 64.9717 3.71875C64.1709 3.75781 63.5459 3.82617 63.0967 3.92383C62.6475 4.02148 62.2959 4.1582 62.042 4.33398C61.7881 4.50977 61.5928 4.71484 61.4561 4.94922C61.3389 5.16406 61.2119 5.4082 61.0752 5.68164C60.958 5.91602 60.8506 6.27734 60.7529 6.76562C60.6553 7.17578 60.5576 7.73242 60.46 8.43555C60.3818 9.13867 60.2939 10.0469 60.1963 11.1602C60.7236 11.0039 61.1436 10.8574 61.4561 10.7207C61.7881 10.584 62.0518 10.4668 62.2471 10.3691C62.4619 10.252 62.6182 10.1445 62.7158 10.0469C62.7939 9.92969 62.9111 9.71484 63.0674 9.40234C63.1846 9.12891 63.3408 8.75781 63.5361 8.28906C63.751 7.82031 64.0049 7.17578 64.2979 6.35547C64.3369 7.25391 64.3564 8.00586 64.3564 8.61133C64.3564 9.19727 64.3662 9.67578 64.3857 10.0469C64.3857 10.4766 64.3955 10.8184 64.415 11.0723V12.1855C64.415 12.5957 64.415 13.1523 64.415 13.8555C64.4346 14.5391 64.4639 15.4082 64.5029 16.4629C64.2686 15.7402 64.0537 15.1738 63.8584 14.7637C63.6826 14.334 63.5264 14.0117 63.3896 13.7969C63.2334 13.543 63.0967 13.3672 62.9795 13.2695C62.8428 13.2305 62.6572 13.1914 62.4229 13.1523C62.208 13.1328 61.9346 13.123 61.6025 13.123C61.29 13.123 60.8896 13.1719 60.4014 13.2695C60.3428 14.3438 60.333 15.2129 60.3721 15.877C60.4307 16.5215 60.5088 17.0195 60.6064 17.3711C60.7041 17.7812 60.8213 18.0742 60.958 18.25C61.1338 18.4258 61.4854 18.5723 62.0127 18.6895C62.54 18.7871 63.1357 18.8262 63.7998 18.8066C64.4834 18.7676 65.1768 18.6504 65.8799 18.4551C66.583 18.2598 67.208 17.9375 67.7549 17.4883C68.165 17.1172 68.6045 16.6484 69.0732 16.082C69.4639 15.5938 69.8936 14.9785 70.3623 14.2363C70.8506 13.4941 71.3291 12.5957 71.7979 11.541C71.7197 12.4199 71.6611 13.1523 71.6221 13.7383C71.6025 14.3047 71.5732 14.7637 71.5342 15.1152C71.4951 15.5254 71.4658 15.8379 71.4463 16.0527C71.4463 16.2871 71.417 16.6191 71.3584 17.0488C71.3193 17.4199 71.251 17.9277 71.1533 18.5723C71.0752 19.1973 70.9678 19.998 70.8311 20.9746C69.9131 20.9941 69.0439 21.0137 68.2236 21.0332C67.4033 21.0332 66.6807 21.043 66.0557 21.0625C65.3135 21.082 64.6299 21.1016 64.0049 21.1211C63.3604 21.1211 62.6475 21.1504 61.8662 21.209C61.1826 21.248 60.3721 21.3066 59.4346 21.3848C58.5166 21.4629 57.501 21.5703 56.3877 21.707C56.4854 20.3789 56.5537 19.1289 56.5928 17.957C56.6514 16.7656 56.6904 15.7207 56.71 14.8223C56.7295 13.7676 56.7295 12.791 56.71 11.8926C56.8076 9.64648 56.7686 7.83008 56.5928 6.44336C56.417 5.05664 56.2119 4.16797 55.9775 3.77734C55.8604 3.64063 55.6943 3.47461 55.4795 3.2793C55.3037 3.12305 55.0596 2.9375 54.7471 2.72266C54.4346 2.50781 54.0439 2.26367 53.5752 1.99023ZM91.6904 0.554688C91.417 1.17969 91.1729 1.72656 90.958 2.19531C90.7432 2.66406 90.5576 3.06445 90.4014 3.39648C90.2256 3.76758 90.0791 4.09961 89.9619 4.39258C89.8643 4.60742 89.7373 4.90039 89.5811 5.27148C89.4248 5.60352 89.2295 6.04297 88.9951 6.58984C88.7803 7.11719 88.4971 7.80078 88.1455 8.64062C87.9697 7.91797 87.7549 7.2832 87.501 6.73633C87.2471 6.18945 86.9736 5.71094 86.6807 5.30078C86.3877 4.89062 86.0752 4.55859 85.7432 4.30469C85.4307 4.03125 85.1182 3.80664 84.8057 3.63086C84.083 3.24023 83.3213 3.02539 82.5205 2.98633C81.4658 3.04492 80.6357 3.2207 80.0303 3.51367C79.4443 3.78711 79.0146 4.10938 78.7412 4.48047C78.4678 4.83203 78.3213 5.20312 78.3018 5.59375C78.2822 5.96484 78.3311 6.27734 78.4482 6.53125C78.5459 6.76562 78.8877 7.03906 79.4736 7.35156C80.0791 7.66406 80.8018 8.02539 81.6416 8.43555C82.501 8.82617 83.4189 9.27539 84.3955 9.7832C85.3721 10.2715 86.2705 10.8184 87.0908 11.4238C87.9307 12.0098 88.6338 12.6543 89.2002 13.3574C89.7861 14.041 90.1084 14.7734 90.167 15.5547C90.2256 16.5508 90.2158 17.4492 90.1377 18.25C90.0596 19.0508 89.7861 19.7344 89.3174 20.3008C88.8486 20.8672 88.1162 21.3164 87.1201 21.6484C86.1436 21.9805 84.7861 22.1855 83.0479 22.2637C81.251 22.3418 79.7764 22.2441 78.624 21.9707C77.4717 21.6973 76.5342 21.3262 75.8115 20.8574C75.1084 20.3887 74.5811 19.8711 74.2295 19.3047C73.8975 18.7383 73.6533 18.2012 73.4971 17.6934C73.3408 17.166 73.2334 16.7168 73.1748 16.3457C73.1162 15.9551 73.0186 15.7207 72.8818 15.6426C72.7256 15.5449 72.5693 15.457 72.4131 15.3789C72.2764 15.3008 72.1299 15.2324 71.9736 15.1738C71.8174 15.0957 71.6611 15.0273 71.5049 14.9688L80.0303 13.5918C79.542 13.9824 79.1611 14.3438 78.8877 14.6758C78.6338 15.0078 78.4385 15.3008 78.3018 15.5547C78.1455 15.8477 78.0381 16.1211 77.9795 16.375C77.9404 16.6484 78.0283 16.9902 78.2432 17.4004C78.458 17.8105 78.751 18.2109 79.1221 18.6016C79.5127 18.9727 79.9619 19.2852 80.4697 19.5391C80.9775 19.793 81.5049 19.9004 82.0518 19.8613C82.7354 19.8027 83.292 19.6367 83.7217 19.3633C84.1514 19.0703 84.4736 18.709 84.6885 18.2793C84.9229 17.8496 85.0596 17.3809 85.0986 16.873C85.1377 16.3652 85.0889 15.8672 84.9521 15.3789C84.835 14.8711 84.6396 14.4023 84.3662 13.9727C84.0928 13.5234 83.7705 13.1523 83.3994 12.8594C83.0674 12.625 82.5498 12.4004 81.8467 12.1855C81.1631 11.9707 80.3916 11.7363 79.5322 11.4824C78.6924 11.2285 77.8232 10.9355 76.9248 10.6035C76.0459 10.2715 75.2451 9.86133 74.5225 9.37305C73.8193 8.88477 73.2529 8.30859 72.8232 7.64453C72.4131 6.98047 72.2568 6.17969 72.3545 5.24219C72.4326 4.44141 72.6865 3.77734 73.1162 3.25C73.5654 2.70313 74.1221 2.27344 74.7861 1.96094C75.4697 1.62891 76.2217 1.38477 77.042 1.22852C77.8818 1.07227 78.7314 0.984375 79.5908 0.964844C80.4697 0.925781 81.3291 0.935547 82.1689 0.994141C83.0283 1.05273 83.7998 1.12109 84.4834 1.19922C85.167 1.27734 85.7432 1.35547 86.2119 1.43359C86.7002 1.49219 87.0029 1.53125 87.1201 1.55078C87.6279 1.58984 88.1357 1.58008 88.6436 1.52148C89.0928 1.48242 89.5811 1.39453 90.1084 1.25781C90.6553 1.10156 91.1826 0.867187 91.6904 0.554688Z" fill="#3EE242"/>
</svg>
