<svg width="920" height="146" viewBox="0 0 920 146" fill="none" xmlns="http://www.w3.org/2000/svg">
<path d="M0.9375 7.69531C5.23438 8.21615 9.14062 8.60677 12.6562 8.86719C16.0417 9.1276 18.9714 9.38802 21.4453 9.64844C24.3099 9.90885 26.849 10.1042 29.0625 10.2344C31.4062 10.2344 34.401 10.1693 38.0469 10.0391C41.1719 9.90885 45.1432 9.71354 49.9609 9.45312C54.7786 9.19271 60.7031 8.73698 67.7344 8.08594C64.349 10.0391 61.5495 11.9922 59.3359 13.9453C57.2526 15.8984 55.625 17.6562 54.4531 19.2188C53.0208 21.0417 51.9792 22.8646 51.3281 24.6875C50.9375 27.1615 51.0677 31.9792 51.7188 39.1406C51.9792 42.1354 52.3698 45.8464 52.8906 50.2734C53.5417 54.5703 54.3229 59.7135 55.2344 65.7031C56.276 71.5625 57.513 78.3333 58.9453 86.0156C60.5078 93.6979 62.2656 102.422 64.2188 112.188C66.8229 104.766 68.9714 98.1901 70.6641 92.4609C72.3568 86.6016 73.7891 81.5885 74.9609 77.4219C76.263 72.7344 77.3698 68.5677 78.2812 64.9219C79.1927 61.1458 80.2995 56.263 81.6016 50.2734C82.6432 45.1953 84.0104 38.6198 85.7031 30.5469C87.3958 22.474 89.4792 12.513 91.9531 0.664062L98.9844 1.64062C99.6354 10.8854 100.286 19.0234 100.938 26.0547C101.719 33.0859 102.37 39.0755 102.891 44.0234C103.411 49.7526 103.932 54.7005 104.453 58.8672C104.974 62.6432 105.755 67.0052 106.797 71.9531C107.708 76.1198 108.88 81.263 110.312 87.3828C111.745 93.3724 113.633 100.143 115.977 107.695C118.32 98.4505 120.404 90.1823 122.227 82.8906C124.18 75.599 125.807 69.1536 127.109 63.5547C128.542 57.9557 129.714 53.138 130.625 49.1016C131.667 45.0651 132.513 41.6797 133.164 38.9453C134.596 32.4349 135.443 28.0729 135.703 25.8594C135.573 23.3854 134.987 20.9766 133.945 18.6328C133.034 16.5495 131.602 14.2708 129.648 11.7969C127.695 9.32292 124.831 6.91406 121.055 4.57031C128.997 4.83073 135.443 5.02604 140.391 5.15625C145.469 5.15625 149.505 5.15625 152.5 5.15625H160.312H167.344C169.948 5.15625 173.333 5.15625 177.5 5.15625C181.797 5.02604 187.266 4.83073 193.906 4.57031C188.177 7.5651 183.555 10.2995 180.039 12.7734C176.523 15.2474 173.789 17.3307 171.836 19.0234C169.492 21.1068 167.799 22.8646 166.758 24.2969C165.716 26.901 164.023 32.7604 161.68 41.875C160.638 45.7812 159.466 50.6641 158.164 56.5234C156.862 62.2526 155.299 69.1536 153.477 77.2266C151.784 85.2995 149.831 94.7396 147.617 105.547C145.404 116.224 142.93 128.464 140.195 142.266L106.406 138.75L91.9531 78.0078C89.7396 89.0755 87.9818 98.0599 86.6797 104.961C85.3776 111.732 84.401 117.005 83.75 120.781C82.9688 125.339 82.513 128.659 82.3828 130.742C82.2526 132.565 82.1224 134.323 81.9922 136.016C81.862 137.448 81.6667 139.01 81.4062 140.703C81.276 142.396 81.0807 143.958 80.8203 145.391H46.25C42.8646 130.547 39.8047 117.461 37.0703 106.133C34.4661 94.6745 32.1224 84.6484 30.0391 76.0547C27.9557 67.4609 26.1328 60.1693 24.5703 54.1797C23.138 48.1901 21.8359 43.1771 20.6641 39.1406C18.0599 29.7656 16.1719 23.9714 15 21.7578C14.0885 20.7161 12.9167 19.4792 11.4844 18.0469C10.3125 16.875 8.88021 15.4427 7.1875 13.75C5.36458 11.9271 3.28125 9.90885 0.9375 7.69531ZM161.875 11.6016C170.99 11.862 178.542 12.0573 184.531 12.1875C190.651 12.1875 195.599 12.1875 199.375 12.1875H209.727H267.93C268.19 14.7917 268.385 17.3307 268.516 19.8047C268.776 22.1484 268.906 24.2318 268.906 26.0547C268.906 28.2682 268.841 30.2865 268.711 32.1094C268.581 33.9323 268.385 35.8854 268.125 37.9688C267.865 39.7917 267.604 41.7448 267.344 43.8281C267.083 45.9115 266.628 48.0599 265.977 50.2734C264.154 43.2422 261.68 37.9036 258.555 34.2578C255.56 30.612 252.5 27.9427 249.375 26.25C245.729 24.2969 241.888 23.2552 237.852 23.125C232.513 23.3854 228.346 23.8411 225.352 24.4922C222.357 25.1432 220.013 26.0547 218.32 27.2266C216.628 28.3984 215.326 29.7656 214.414 31.3281C213.633 32.7604 212.786 34.388 211.875 36.2109C211.094 37.7734 210.378 40.1823 209.727 43.4375C209.076 46.1719 208.424 49.8828 207.773 54.5703C207.253 59.2578 206.667 65.3125 206.016 72.7344C209.531 71.6927 212.331 70.7161 214.414 69.8047C216.628 68.8932 218.385 68.112 219.688 67.4609C221.12 66.6797 222.161 65.9635 222.812 65.3125C223.333 64.5312 224.115 63.099 225.156 61.0156C225.938 59.1927 226.979 56.7188 228.281 53.5938C229.714 50.4688 231.406 46.1719 233.359 40.7031C233.62 46.6927 233.75 51.7057 233.75 55.7422C233.75 59.6484 233.815 62.8385 233.945 65.3125C233.945 68.1771 234.01 70.4557 234.141 72.1484V79.5703C234.141 82.3047 234.141 86.0156 234.141 90.7031C234.271 95.2604 234.466 101.055 234.727 108.086C233.164 103.268 231.732 99.4922 230.43 96.7578C229.258 93.8932 228.216 91.7448 227.305 90.3125C226.263 88.6198 225.352 87.4479 224.57 86.7969C223.659 86.5365 222.422 86.276 220.859 86.0156C219.427 85.8854 217.604 85.8203 215.391 85.8203C213.307 85.8203 210.638 86.1458 207.383 86.7969C206.992 93.9583 206.927 99.7526 207.188 104.18C207.578 108.477 208.099 111.797 208.75 114.141C209.401 116.875 210.182 118.828 211.094 120C212.266 121.172 214.609 122.148 218.125 122.93C221.641 123.581 225.612 123.841 230.039 123.711C234.596 123.451 239.219 122.669 243.906 121.367C248.594 120.065 252.76 117.917 256.406 114.922C259.141 112.448 262.07 109.323 265.195 105.547C267.799 102.292 270.664 98.1901 273.789 93.2422C277.044 88.2943 280.234 82.3047 283.359 75.2734C282.839 81.1328 282.448 86.0156 282.188 89.9219C282.057 93.6979 281.862 96.7578 281.602 99.1016C281.341 101.836 281.146 103.919 281.016 105.352C281.016 106.914 280.82 109.128 280.43 111.992C280.169 114.466 279.714 117.852 279.062 122.148C278.542 126.315 277.826 131.654 276.914 138.164C270.794 138.294 265 138.424 259.531 138.555C254.062 138.555 249.245 138.62 245.078 138.75C240.13 138.88 235.573 139.01 231.406 139.141C227.109 139.141 222.357 139.336 217.148 139.727C212.591 139.987 207.188 140.378 200.938 140.898C194.818 141.419 188.047 142.135 180.625 143.047C181.276 134.193 181.732 125.859 181.992 118.047C182.383 110.104 182.643 103.138 182.773 97.1484C182.904 90.1172 182.904 83.6068 182.773 77.6172C183.424 62.6432 183.164 50.5339 181.992 41.2891C180.82 32.0443 179.453 26.1198 177.891 23.5156C177.109 22.6042 176.003 21.4974 174.57 20.1953C173.398 19.1536 171.771 17.9167 169.688 16.4844C167.604 15.0521 165 13.4245 161.875 11.6016ZM280.43 6.52344C286.289 7.5651 291.107 8.28125 294.883 8.67188C298.659 9.0625 301.719 9.38802 304.062 9.64844C306.797 9.90885 308.945 9.97396 310.508 9.84375H316.367C318.451 9.84375 321.055 9.84375 324.18 9.84375C327.435 9.71354 331.471 9.64844 336.289 9.64844C339.023 16.0286 341.497 21.888 343.711 27.2266C346.055 32.5651 348.008 37.1224 349.57 40.8984C351.393 45.4557 353.086 49.5573 354.648 53.2031C356.471 57.7604 358.424 62.7734 360.508 68.2422C362.591 73.7109 364.479 78.8542 366.172 83.6719C367.995 88.4896 369.492 92.4609 370.664 95.5859C371.836 98.7109 372.422 100.143 372.422 99.8828C372.422 99.7526 372.487 98.4505 372.617 95.9766C372.747 93.3724 372.878 90.1823 373.008 86.4062C373.138 82.5 373.268 78.2682 373.398 73.7109C373.659 69.0234 373.789 64.5312 373.789 60.2344C373.919 55.8073 373.984 51.7708 373.984 48.125C373.984 44.4792 373.854 41.7448 373.594 39.9219C373.203 37.7083 372.422 35.1693 371.25 32.3047C370.208 29.8307 368.776 26.901 366.953 23.5156C365.13 20 362.591 16.0286 359.336 11.6016C364.674 11.7318 369.036 11.7969 372.422 11.7969C375.807 11.7969 378.542 11.7969 380.625 11.7969C382.969 11.7969 384.792 11.7318 386.094 11.6016C387.786 11.6016 389.87 11.4714 392.344 11.2109C394.557 10.9505 397.292 10.7552 400.547 10.625C403.932 10.3646 408.099 10.0391 413.047 9.64844C410.182 12.2526 407.904 14.7266 406.211 17.0703C404.518 19.4141 403.151 21.4974 402.109 23.3203C400.938 25.4036 400.156 27.3568 399.766 29.1797C399.245 31.5234 398.789 35.3646 398.398 40.7031C398.138 45.9115 397.812 51.7708 397.422 58.2812C397.161 64.7917 396.901 71.5625 396.641 78.5938C396.38 85.625 396.12 92.0703 395.859 97.9297C395.859 102.357 395.729 107.109 395.469 112.188C395.208 116.484 394.948 121.367 394.688 126.836C394.427 132.174 394.102 137.578 393.711 143.047L376.328 143.438C371.25 134.453 366.953 126.771 363.438 120.391C360.052 113.88 357.253 108.542 355.039 104.375C352.565 99.5573 350.482 95.5208 348.789 92.2656C347.357 89.1406 345.469 85.5599 343.125 81.5234C341.172 78.138 338.698 73.9714 335.703 69.0234C332.839 64.0755 329.388 58.4115 325.352 52.0312C324.961 61.0156 324.766 68.6979 324.766 75.0781C324.896 81.3281 325.091 86.5365 325.352 90.7031C325.742 95.5208 326.198 99.5573 326.719 102.812C327.37 105.938 328.281 109.453 329.453 113.359C330.495 116.745 331.732 120.716 333.164 125.273C334.727 129.831 336.615 134.974 338.828 140.703C331.146 140.312 325.417 140.117 321.641 140.117H315.781C313.958 140.117 311.484 140.312 308.359 140.703C305.755 140.964 302.174 141.354 297.617 141.875C293.19 142.396 287.656 143.112 281.016 144.023C284.141 140.247 286.615 136.797 288.438 133.672C290.391 130.417 291.888 127.682 292.93 125.469C294.232 122.865 295.143 120.586 295.664 118.633C296.055 116.549 296.315 112.969 296.445 107.891C296.576 102.682 296.576 96.8229 296.445 90.3125C296.445 83.6719 296.315 76.7057 296.055 69.4141C295.924 62.1224 295.729 55.3516 295.469 49.1016C295.208 42.8516 294.883 37.513 294.492 33.0859C294.232 28.6589 294.036 25.9245 293.906 24.8828C293.516 23.1901 292.734 21.3672 291.562 19.4141C290.521 17.7214 289.154 15.8333 287.461 13.75C285.768 11.5365 283.424 9.1276 280.43 6.52344ZM466.172 11.6016C475.286 11.862 482.839 12.0573 488.828 12.1875C494.948 12.1875 499.896 12.1875 503.672 12.1875H514.023H572.227C572.487 14.7917 572.682 17.3307 572.812 19.8047C573.073 22.1484 573.203 24.2318 573.203 26.0547C573.203 28.2682 573.138 30.2865 573.008 32.1094C572.878 33.9323 572.682 35.8854 572.422 37.9688C572.161 39.7917 571.901 41.7448 571.641 43.8281C571.38 45.9115 570.924 48.0599 570.273 50.2734C568.451 43.2422 565.977 37.9036 562.852 34.2578C559.857 30.612 556.797 27.9427 553.672 26.25C550.026 24.2969 546.185 23.2552 542.148 23.125C536.81 23.3854 532.643 23.8411 529.648 24.4922C526.654 25.1432 524.31 26.0547 522.617 27.2266C520.924 28.3984 519.622 29.7656 518.711 31.3281C517.93 32.7604 517.083 34.388 516.172 36.2109C515.391 37.7734 514.674 40.1823 514.023 43.4375C513.372 46.1719 512.721 49.8828 512.07 54.5703C511.549 59.2578 510.964 65.3125 510.312 72.7344C513.828 71.6927 516.628 70.7161 518.711 69.8047C520.924 68.8932 522.682 68.112 523.984 67.4609C525.417 66.6797 526.458 65.9635 527.109 65.3125C527.63 64.5312 528.411 63.099 529.453 61.0156C530.234 59.1927 531.276 56.7188 532.578 53.5938C534.01 50.4688 535.703 46.1719 537.656 40.7031C537.917 46.6927 538.047 51.7057 538.047 55.7422C538.047 59.6484 538.112 62.8385 538.242 65.3125C538.242 68.1771 538.307 70.4557 538.438 72.1484V79.5703C538.438 82.3047 538.438 86.0156 538.438 90.7031C538.568 95.2604 538.763 101.055 539.023 108.086C537.461 103.268 536.029 99.4922 534.727 96.7578C533.555 93.8932 532.513 91.7448 531.602 90.3125C530.56 88.6198 529.648 87.4479 528.867 86.7969C527.956 86.5365 526.719 86.276 525.156 86.0156C523.724 85.8854 521.901 85.8203 519.688 85.8203C517.604 85.8203 514.935 86.1458 511.68 86.7969C511.289 93.9583 511.224 99.7526 511.484 104.18C511.875 108.477 512.396 111.797 513.047 114.141C513.698 116.875 514.479 118.828 515.391 120C516.562 121.172 518.906 122.148 522.422 122.93C525.938 123.581 529.909 123.841 534.336 123.711C538.893 123.451 543.516 122.669 548.203 121.367C552.891 120.065 557.057 117.917 560.703 114.922C563.438 112.448 566.367 109.323 569.492 105.547C572.096 102.292 574.961 98.1901 578.086 93.2422C581.341 88.2943 584.531 82.3047 587.656 75.2734C587.135 81.1328 586.745 86.0156 586.484 89.9219C586.354 93.6979 586.159 96.7578 585.898 99.1016C585.638 101.836 585.443 103.919 585.312 105.352C585.312 106.914 585.117 109.128 584.727 111.992C584.466 114.466 584.01 117.852 583.359 122.148C582.839 126.315 582.122 131.654 581.211 138.164C575.091 138.294 569.297 138.424 563.828 138.555C558.359 138.555 553.542 138.62 549.375 138.75C544.427 138.88 539.87 139.01 535.703 139.141C531.406 139.141 526.654 139.336 521.445 139.727C516.888 139.987 511.484 140.378 505.234 140.898C499.115 141.419 492.344 142.135 484.922 143.047C485.573 134.193 486.029 125.859 486.289 118.047C486.68 110.104 486.94 103.138 487.07 97.1484C487.201 90.1172 487.201 83.6068 487.07 77.6172C487.721 62.6432 487.461 50.5339 486.289 41.2891C485.117 32.0443 483.75 26.1198 482.188 23.5156C481.406 22.6042 480.299 21.4974 478.867 20.1953C477.695 19.1536 476.068 17.9167 473.984 16.4844C471.901 15.0521 469.297 13.4245 466.172 11.6016ZM617.344 12.7734C623.854 13.1641 629.323 13.4896 633.75 13.75C638.307 13.8802 642.083 14.0104 645.078 14.1406C648.464 14.2708 651.328 14.2708 653.672 14.1406C656.016 14.0104 659.206 13.6849 663.242 13.1641C666.628 12.7734 671.12 12.1875 676.719 11.4062C682.448 10.4948 689.544 9.32292 698.008 7.89062C695.013 10.8854 692.669 13.6198 690.977 16.0938C689.414 18.4375 688.177 20.4557 687.266 22.1484C686.224 24.2318 685.508 25.9896 685.117 27.4219C684.857 28.724 685.117 31.9792 685.898 37.1875C686.68 42.3958 687.786 48.5807 689.219 55.7422C690.651 62.7734 692.214 70.3255 693.906 78.3984C695.599 86.3411 697.292 93.8281 698.984 100.859C700.677 107.76 702.174 113.685 703.477 118.633C704.909 123.451 705.951 126.315 706.602 127.227C708.555 129.961 709.792 131.784 710.312 132.695C710.833 133.477 711.745 134.193 713.047 134.844C713.568 135.104 714.414 135.495 715.586 136.016C716.628 136.536 717.995 137.188 719.688 137.969C721.51 138.75 723.789 139.661 726.523 140.703C721.445 140.964 717.083 141.159 713.438 141.289C709.792 141.289 706.797 141.354 704.453 141.484C701.719 141.615 699.375 141.745 697.422 141.875C695.469 141.875 693.125 142.005 690.391 142.266C688.047 142.526 684.987 142.786 681.211 143.047C677.565 143.307 673.268 143.568 668.32 143.828C670.924 142.005 673.008 140.378 674.57 138.945C676.263 137.383 677.565 136.081 678.477 135.039C679.518 133.737 680.234 132.565 680.625 131.523C680.885 130.352 681.081 128.594 681.211 126.25C681.341 124.167 681.341 121.432 681.211 118.047C681.081 114.531 680.755 109.974 680.234 104.375L628.867 109.648C627.565 111.862 626.589 113.815 625.938 115.508C625.286 117.07 624.831 118.438 624.57 119.609C624.18 121.042 624.049 122.214 624.18 123.125C624.44 124.167 624.896 125.404 625.547 126.836C626.198 128.138 627.109 129.701 628.281 131.523C629.583 133.216 631.471 135.234 633.945 137.578C630.69 137.448 627.37 137.383 623.984 137.383C620.599 137.383 617.474 137.448 614.609 137.578C611.224 137.708 607.904 137.839 604.648 137.969C601.393 138.099 597.682 138.294 593.516 138.555C590 138.815 585.898 139.141 581.211 139.531C576.393 139.792 571.25 140.182 565.781 140.703C569.167 139.141 572.031 137.578 574.375 136.016C576.719 134.323 578.672 132.76 580.234 131.328C582.057 129.766 583.62 128.268 584.922 126.836C585.833 125.534 587.656 122.539 590.391 117.852C593.125 113.034 596.185 107.37 599.57 100.859C603.086 94.349 606.732 87.3828 610.508 79.9609C614.414 72.5391 617.93 65.5729 621.055 59.0625C624.18 52.4219 626.719 46.6927 628.672 41.875C630.625 37.0573 631.602 33.9323 631.602 32.5C631.341 30.8073 630.69 28.9193 629.648 26.8359C628.737 25.013 627.305 22.9297 625.352 20.5859C623.529 18.2422 620.859 15.638 617.344 12.7734ZM677.891 89.9219C677.109 85.3646 676.393 81.4583 675.742 78.2031C675.091 74.8177 674.57 72.0182 674.18 69.8047C673.659 67.2005 673.268 64.9219 673.008 62.9688C672.617 61.1458 672.161 58.8021 671.641 55.9375C671.12 53.4635 670.469 50.4036 669.688 46.7578C669.036 42.9818 668.19 38.4896 667.148 33.2812C659.727 48.125 653.932 59.6484 649.766 67.8516C645.729 75.9245 642.799 81.849 640.977 85.625C638.763 90.0521 637.526 92.6562 637.266 93.4375L677.891 89.9219ZM710.508 2.42188C719.232 3.46354 726.784 4.24479 733.164 4.76562C739.544 5.15625 744.818 5.48177 748.984 5.74219C753.802 6.0026 757.839 6.06771 761.094 5.9375C764.479 5.80729 769.102 5.48177 774.961 4.96094C779.909 4.57031 786.419 4.04948 794.492 3.39844C802.565 2.61719 812.656 1.57552 824.766 0.273438C824.896 3.26823 824.961 6.19792 824.961 9.0625C825.091 11.7969 825.221 14.2057 825.352 16.2891C825.482 18.763 825.547 21.0417 825.547 23.125C825.547 25.3385 825.417 28.138 825.156 31.5234C824.896 34.388 824.44 38.0339 823.789 42.4609C823.268 46.7578 822.422 51.901 821.25 57.8906C819.427 50.8594 817.669 45.1953 815.977 40.8984C814.284 36.4714 812.721 32.9557 811.289 30.3516C809.727 27.3568 808.164 25.0781 806.602 23.5156C804.909 22.3438 802.891 21.3672 800.547 20.5859C798.464 19.9349 795.794 19.4141 792.539 19.0234C789.414 18.6328 785.703 18.6979 781.406 19.2188C780.755 36.4062 780.299 50.3385 780.039 61.0156C779.779 71.6927 779.583 80.026 779.453 86.0156C779.323 93.1771 779.258 98.3203 779.258 101.445C779.388 105.872 780.104 110.234 781.406 114.531C782.448 118.177 784.141 121.953 786.484 125.859C788.828 129.766 792.214 133.216 796.641 136.211H772.812C770.599 136.211 767.865 136.341 764.609 136.602C761.875 136.862 758.359 137.122 754.062 137.383C749.896 137.643 745.013 138.099 739.414 138.75C741.367 135.365 742.93 132.305 744.102 129.57C745.273 126.836 746.185 124.492 746.836 122.539C747.617 120.195 748.203 118.112 748.594 116.289C748.724 113.685 749.049 108.411 749.57 100.469C749.701 97.2135 749.831 93.1771 749.961 88.3594C750.221 83.5417 750.482 77.8125 750.742 71.1719C751.133 64.5312 751.458 56.9141 751.719 48.3203C752.109 39.5964 752.5 29.7656 752.891 18.8281C750.547 18.1771 748.333 18.2422 746.25 19.0234C744.167 19.6745 742.344 20.5208 740.781 21.5625C738.958 22.8646 737.201 24.4271 735.508 26.25C733.815 28.4635 731.927 31.3281 729.844 34.8438C728.021 37.8385 725.938 41.8099 723.594 46.7578C721.25 51.5755 718.581 57.5651 715.586 64.7266C714.935 57.1745 714.479 50.9896 714.219 46.1719C713.958 41.224 713.763 37.3828 713.633 34.6484C713.503 31.3932 713.438 28.9844 713.438 27.4219C713.438 25.9896 713.307 24.1016 713.047 21.7578C712.786 19.8047 712.461 17.2656 712.07 14.1406C711.68 10.8854 711.159 6.97917 710.508 2.42188ZM862.656 44.0234C860.312 44.4141 857.969 44.8047 855.625 45.1953C853.281 45.5859 851.198 45.9115 849.375 46.1719C847.161 46.5625 845.078 46.888 843.125 47.1484C841.172 47.5391 839.023 47.8646 836.68 48.125C834.727 48.3854 832.448 48.6458 829.844 48.9062C827.24 49.0365 824.505 49.1667 821.641 49.2969C821.901 48.2552 822.161 46.9531 822.422 45.3906C822.812 43.8281 823.138 42.3307 823.398 40.8984C823.789 39.2057 824.115 37.4479 824.375 35.625C824.766 33.2812 825.026 31.3281 825.156 29.7656C825.417 28.2031 825.612 26.8359 825.742 25.6641C826.003 24.4922 826.328 23.4505 826.719 22.5391C827.109 21.6276 827.826 20.7161 828.867 19.8047C830.43 18.3724 832.383 16.8099 834.727 15.1172C837.201 13.2943 840.13 11.7318 843.516 10.4297C847.031 8.9974 851.068 7.89062 855.625 7.10938C860.312 6.32812 865.716 6.13281 871.836 6.52344C877.956 6.91406 883.034 7.5651 887.07 8.47656C891.107 9.38802 894.492 10.5599 897.227 11.9922C899.961 13.2943 902.174 14.8568 903.867 16.6797C905.69 18.3724 907.383 20.3906 908.945 22.7344C910.508 25.0781 912.005 27.9427 913.438 31.3281C915 34.5833 916.302 38.0339 917.344 41.6797C918.385 45.3255 918.971 48.9714 919.102 52.6172C919.362 56.263 919.036 59.5182 918.125 62.3828C916.953 64.7266 914.674 67.0703 911.289 69.4141C908.294 71.4974 903.997 73.8411 898.398 76.4453C892.93 79.0495 885.312 81.6536 875.547 84.2578C875.807 86.7318 876.198 88.9453 876.719 90.8984C877.24 92.8516 877.76 94.5443 878.281 95.9766C878.802 97.6693 879.453 99.1667 880.234 100.469C881.016 101.641 881.732 102.943 882.383 104.375C883.034 105.547 883.685 106.849 884.336 108.281C885.117 109.583 885.833 110.82 886.484 111.992L848.203 116.68C849.375 115.247 850.286 113.75 850.938 112.188C851.719 110.495 852.305 108.932 852.695 107.5C853.216 105.807 853.477 104.115 853.477 102.422C853.477 100.599 853.346 98.3854 853.086 95.7812C852.826 93.5677 852.435 90.7682 851.914 87.3828C851.523 83.8672 850.807 79.7656 849.766 75.0781C855.885 74.8177 860.898 74.1667 864.805 73.125C868.841 71.9531 872.096 70.7812 874.57 69.6094C877.435 68.1771 879.648 66.6797 881.211 65.1172C882.383 63.6849 883.359 61.4714 884.141 58.4766C885.052 55.3516 885.638 51.901 885.898 48.125C886.289 44.349 886.289 40.5078 885.898 36.6016C885.508 32.5651 884.596 28.9844 883.164 25.8594C881.732 22.7344 879.714 20.2604 877.109 18.4375C874.635 16.4844 871.445 15.638 867.539 15.8984C861.68 16.4193 857.253 17.526 854.258 19.2188C851.263 20.7812 849.18 22.5391 848.008 24.4922C846.836 26.4453 846.25 28.3984 846.25 30.3516C846.38 32.3047 846.576 33.737 846.836 34.6484C846.966 35.5599 847.682 36.4714 848.984 37.3828C850.026 38.2943 851.589 39.2708 853.672 40.3125C855.885 41.3542 858.88 42.5911 862.656 44.0234ZM866.367 123.516C871.055 122.865 874.701 123.646 877.305 125.859C880.039 128.073 881.341 131.133 881.211 135.039C881.081 136.992 880.69 138.555 880.039 139.727C879.388 140.898 878.477 141.81 877.305 142.461C876.263 142.982 874.961 143.438 873.398 143.828C871.966 144.089 870.273 144.349 868.32 144.609C866.367 145 864.479 144.935 862.656 144.414C860.833 143.763 859.206 142.852 857.773 141.68C856.341 140.508 855.169 139.206 854.258 137.773C853.477 136.341 853.086 134.909 853.086 133.477C853.086 131.914 853.477 130.612 854.258 129.57C855.169 128.398 856.276 127.422 857.578 126.641C859.01 125.729 860.443 125.078 861.875 124.688C863.438 124.167 864.935 123.776 866.367 123.516Z" fill="#F9F301"/>
</svg>
